<?xml version="1.0" encoding="UTF-8"?>
<svg id="floorplan" version="1.1" xmlns="http://www.w3.org/2000/svg" width="708" height="547">
<path d="M0 0 C233.64 0 467.28 0 708 0 C708 180.51 708 361.02 708 547 C474.36 547 240.72 547 0 547 C0 366.49 0 185.98 0 0 Z " fill="#FDFDFD" transform="translate(0,0)"/>
<path d="M0 0 C233.64 0 467.28 0 708 0 C708 64.68 708 129.36 708 196 C707.01 196 706.02 196 705 196 C705 196.99 705 197.98 705 199 C701.04 199 697.08 199 693 199 C693.33 197.68 693.66 196.36 694 195 C695.32 195 696.64 195 698 195 C698 190.38 698 185.76 698 181 C657.74 181 617.48 181 576 181 C576 125.56 576 70.12 576 13 C562.8 13 549.6 13 536 13 C536 66.79 536 120.58 536 176 C533.51549411 177.24225295 531.86983607 177.12308537 529.0899353 177.12025452 C528.05224503 177.12162918 527.01455475 177.12300385 525.94541931 177.12442017 C524.23099388 177.11902725 524.23099388 177.11902725 522.48193359 177.11352539 C520.68196175 177.11374443 520.68196175 177.11374443 518.84562683 177.1139679 C515.55037139 177.11338957 512.25517818 177.10836565 508.95993376 177.10139394 C505.51793824 177.09515327 502.07594195 177.09455604 498.63394165 177.09336853 C492.11392065 177.09025732 485.59391636 177.08204676 479.07390273 177.07201904 C471.65199262 177.06085138 464.23008173 177.05534581 456.80816531 177.05032361 C441.53876692 177.03986398 426.26938627 177.02206776 411 177 C411 171.72 411 166.44 411 161 C371.07 161 331.14 161 290 161 C290 167.6 290 174.2 290 181 C248.75 181 207.5 181 165 181 C165 125.56 165 70.12 165 13 C152.13 13 139.26 13 126 13 C126 181.63 126 350.26 126 524 C126.99 524 127.98 524 129 524 C129 525.65 129 527.3 129 529 C128.01 529 127.02 529 126 529 C126 534.61 126 540.22 126 546 C110.29259712 545.89256675 94.5852422 545.78001144 78.87792587 545.66066074 C71.58481184 545.60537371 64.29169291 545.55189915 56.99853516 545.50268555 C50.64210727 545.45978832 44.28571474 545.41349639 37.92934155 545.36312145 C34.56344806 545.33656511 31.19756137 545.31171322 27.83162689 545.29092598 C24.07487597 545.26687211 20.31821828 545.23681857 16.56152344 545.20532227 C15.44446518 545.1995668 14.32740692 545.19381134 13.17649841 545.18788147 C12.15288712 545.17809265 11.12927582 545.16830383 10.074646 545.15821838 C8.74173334 545.14853956 8.74173334 545.14853956 7.38189316 545.1386652 C5 545 5 545 1 544 C0.67 364.48 0.34 184.96 0 0 Z " fill="#FF000" transform="translate(0,0)"/>
<path d="M0 0 C14.41665657 -0.03112087 28.83331425 -0.05115725 43.25 -0.0625 C44.3301878 -0.06335602 45.4103756 -0.06421204 46.52329636 -0.06509399 C91.35852375 -0.09641879 136.16769438 0.37624618 181 1 C181 33.01 181 65.02 181 98 C198.01958074 97.67344206 198.01958074 97.67344206 215.0390625 97.34179688 C230.02779855 97.05664638 245.00864262 96.93175247 260 97 C261.28765958 99.57531916 261.12297065 101.40517149 261.12025452 104.28970337 C261.12163201 105.40919687 261.12300951 106.52869038 261.12442875 107.68210793 C261.12083064 108.92090391 261.11723253 110.1596999 261.11352539 111.43603516 C261.11370619 113.4138778 261.11370619 113.4138778 261.11389065 115.43167686 C261.11411685 119.00554632 261.10831169 122.57938244 261.10128021 126.15324402 C261.09559463 129.50409861 261.0953176 132.8549517 261.09460449 136.20581055 C261.08935253 146.01221146 261.07539144 155.81860615 261.0625 165.625 C261.041875 187.52875 261.02125 209.4325 261 232 C315.12 232.33 369.24 232.66 425 233 C425 178.88 425 124.76 425 69 C423.02 69 421.04 69 419 69 C419.33 67.68 419.66 66.36 420 65 C423.3 65 426.6 65 430 65 C430.33 65.99 430.66 66.98 431 68 C432.32 68 433.64 68 435 68 C435 140.27 435 212.54 435 287 C256.47 287 77.94 287 -106 287 C-106 283.7 -106 280.4 -106 277 C-105.34 277 -104.68 277 -104 277 C-104 274.36 -104 271.72 -104 269 C-105.32 269 -106.64 269 -108 269 C-108 267.68 -108 266.36 -108 265 C-106.68 265 -105.36 265 -104 265 C-103.67 264.01 -103.34 263.02 -103 262 C-102.34 262.33 -101.68 262.66 -101 263 C-101 267.62 -101 272.24 -101 277 C-63.71 277 -26.42 277 12 277 C12 262.48 12 247.96 12 233 C12.66 233 13.32 233 14 233 C14 196.37 14 159.74 14 122 C9.38 122 4.76 122 0 122 C0 121.01 0 120.02 0 119 C4.62 119 9.24 119 14 119 C14 80.39 14 41.78 14 2 C9.38 2 4.76 2 0 2 C0 1.34 0 0.68 0 0 Z " fill="#3C3E46" transform="translate(273,260)"/>
<path d="M0 0 C33.37951636 0 33.37951636 0 44.30175781 0.07592773 C45.58210403 0.08407501 46.86245026 0.09222229 48.18159485 0.10061646 C52.27211526 0.12682273 56.36262022 0.1550662 60.453125 0.18359375 C61.88486478 0.1934816 63.31660458 0.20336478 64.74834442 0.21324348 C70.68918106 0.25439132 76.63001347 0.2960764 82.57083511 0.33933926 C91.00333813 0.40073486 99.43584959 0.45864495 107.86840749 0.51199192 C113.85964282 0.55016405 119.8508446 0.59209233 125.8420341 0.63687855 C129.40134437 0.66338972 132.96064816 0.68825117 136.51999664 0.70907402 C140.45380791 0.73218441 144.38753657 0.76305006 148.32128906 0.79467773 C149.49708023 0.8004332 150.6728714 0.80618866 151.8842926 0.81211853 C152.94601181 0.82190735 154.00773102 0.83169617 155.10162354 0.84178162 C156.02907505 0.84823417 156.95652657 0.85468672 157.91208267 0.8613348 C160 1 160 1 161 2 C161.10041643 4.23937566 161.12800589 6.48200732 161.12939453 8.72363281 C161.13112419 9.43947572 161.13285385 10.15531862 161.13463593 10.89285374 C161.13905812 13.32963303 161.13600653 15.76634451 161.1328125 18.203125 C161.13383207 19.9686434 161.13517377 21.73416163 161.1368103 23.49967957 C161.13956421 28.3860527 161.13493989 33.27239505 161.12857056 38.15876389 C161.12500905 41.24216558 161.12338064 44.32556257 161.12231445 47.40896606 C161.09643125 108.27386681 160.52463666 169.13775791 160 230 C160.66 230.33 161.32 230.66 162 231 C108.54 231 55.08 231 0 231 C0 154.77 0 78.54 0 0 Z " fill="#3D3F47" transform="translate(290,262)"/>
<path id="2" d="M0 0 C36.96 0 73.92 0 112 0 C112 65.67 112 131.34 112 199 C75.04 199 38.08 199 0 199 C0 133.33 0 67.66 0 0 Z " fill="#FEFEFE" transform="translate(11,181)"/> <!--Computer LAB 2-->
<path id="CA" d="M0 0 C39.27 0 78.54 0 119 0 C119 54.45 119 108.9 119 165 C79.73 165 40.46 165 0 165 C0 110.55 0 56.1 0 0 Z " fill="#FDFDFD" transform="translate(579,13)"/> <!--Chipeco Academy-->
<path id="4" d="M0 0 C39.27 0 78.54 0 119 0 C119 54.12 119 108.24 119 164 C79.73 164 40.46 164 0 164 C0 109.88 0 55.76 0 0 Z " fill="#FEFEFE" transform="translate(168,14)"/> <!--Computer LAB 4 -->
<path id="5" d="M0 0 C39.6 0 79.2 0 120 0 C120 53.13 120 106.26 120 161 C80.73 161 41.46 161 1 161 C0.835 145.015625 0.67 129.03125 0.5 112.5625 C0.44779297 107.65189697 0.39558594 102.74129395 0.34179688 97.68188477 C0.01773619 65.1157147 0 32.57190324 0 0 Z " fill="#FCFCFC" transform="translate(413,13)"/> <!--Computer LAB 5-->
<path d="M0 0 C0.66 0 1.32 0 2 0 C2 16.5 2 33 2 50 C-134.62 50 -271.24 50 -412 50 C-411.67 35.15 -411.34 20.3 -411 5 C-378.13717195 4.97689159 -345.27434731 4.95923137 -312.41151288 4.94893467 C-308.43962511 4.94768549 -304.46773735 4.94639103 -300.49584961 4.94506836 C-299.70585184 4.94480605 -298.91585407 4.94454374 -298.10191698 4.94427348 C-287.1929924 4.94055872 -276.28407166 4.93445834 -265.37514956 4.92626567 C-246.43629814 4.91204528 -227.49745079 4.90304612 -208.55859375 4.90234375 C-207.80711435 4.90230518 -207.05563496 4.90226661 -206.28138345 4.90222687 C-137.51806007 4.89986751 -68.76022925 5.37512501 0 6 C0 4.02 0 2.04 0 0 Z " fill="#FDFDFD" transform="translate(706,497)"/>
<path id="3" d="M0 0 C36.96 0 73.92 0 112 0 C112 54.12 112 108.24 112 164 C75.04 164 38.08 164 0 164 C0 109.88 0 55.76 0 0 Z " fill="#FEFEFE" transform="translate(11,14)"/> <!--Computer Lab 3-->
<path id="CR" d="M0 0 C39.6 0 79.2 0 120 0 C120.87119673 48.02471998 121.08471893 95.96436399 121 144 C81.07 144 41.14 144 0 144 C0 96.48 0 48.96 0 0 Z " fill="#FEFEFE" transform="translate(290,14)"/> <!--CR / BATHROOM-->
<path id="1" d="M0 0 C36.96 0 73.92 0 112 0 C112 50.16 112 100.32 112 152 C75.04 152 38.08 152 0 152 C0 101.84 0 51.68 0 0 Z " fill="#FEFEFE" transform="translate(11,383)"/> <!--Computer Lab 1-->
<path d="M0 0 C14.41665657 -0.03112087 28.83331425 -0.05115725 43.25 -0.0625 C44.3301878 -0.06335602 45.4103756 -0.06421204 46.52329636 -0.06509399 C91.35852375 -0.09641879 136.16769438 0.37624618 181 1 C181 33.01 181 65.02 181 98 C198.01958074 97.67344206 198.01958074 97.67344206 215.0390625 97.34179688 C230.02779855 97.05664638 245.00864262 96.93175247 260 97 C261.28765958 99.57531916 261.12297065 101.40517149 261.12025452 104.28970337 C261.12231651 105.9724511 261.12231651 105.9724511 261.12442017 107.68919373 C261.12082489 108.9256514 261.11722961 110.16210907 261.11352539 111.43603516 C261.11367142 112.73355209 261.11381744 114.03106903 261.1139679 115.36790466 C261.1142555 118.93173592 261.10836475 122.49553371 261.10139394 126.05935717 C261.09515425 129.78162499 261.09455611 133.50389353 261.09336853 137.22616577 C261.09025704 144.27742568 261.08204609 151.32867013 261.07201904 158.37992322 C261.06085227 166.40641693 261.05534603 174.43291137 261.05032361 182.45941091 C261.03986333 198.97294966 261.02226739 215.48647286 261 232 C260.01 232 259.02 232 258 232 C258 188.44 258 144.88 258 100 C250.74 100.33 243.48 100.66 236 101 C217.52 101 199.04 101 180 101 C179.67 144.23 179.34 187.46 179 232 C178.34 232 177.68 232 177 232 C177 156.76 177 81.52 177 4 C135.1939991 3.711567 135.1939991 3.711567 93.38793945 3.43188477 C85.20349121 3.3729248 85.20349121 3.3729248 81.34196472 3.34410095 C78.71073754 3.3251915 76.07953294 3.30749265 73.44828796 3.29173279 C69.40469485 3.26742112 65.36117312 3.2364805 61.31762695 3.20532227 C60.19471662 3.19955201 59.07180628 3.19378176 57.91486835 3.18783665 C44.26043337 3.07075651 30.66141424 2.47108325 17 2 C17 78.23 17 154.46 17 233 C151.64 233 286.28 233 425 233 C425 178.88 425 124.76 425 69 C423.02 69 421.04 69 419 69 C419.33 67.68 419.66 66.36 420 65 C423.3 65 426.6 65 430 65 C430.33 65.99 430.66 66.98 431 68 C432.32 68 433.64 68 435 68 C435 123.77 435 179.54 435 237 C434.34 237 433.68 237 433 237 C433 238.98 433 240.96 433 243 C363.48002624 243.05713854 293.96099702 243.03487794 224.44140625 242.78125 C223.68987209 242.77851342 222.93833794 242.77577683 222.16403002 242.77295732 C203.22631962 242.70389269 184.28862839 242.63018925 165.35094297 242.55461788 C154.40201653 242.51097282 143.45308536 242.46869437 132.50415039 242.42724609 C131.71520728 242.4242591 130.92626417 242.4212721 130.1134137 242.41819459 C126.14934575 242.40319297 122.18527772 242.38821246 118.22120965 242.37324238 C86.14746007 242.25209111 54.07372558 242.12735047 22 242 C22.00523682 243.18553467 22.01047363 244.37106934 22.01586914 245.5925293 C22.0339988 250.00007367 22.04546114 254.40761476 22.05493164 258.81518555 C22.05995364 260.72111567 22.06677248 262.62704195 22.07543945 264.53295898 C22.08759846 267.27588856 22.09324971 270.0187671 22.09765625 272.76171875 C22.10281754 273.61086349 22.10797882 274.46000824 22.11329651 275.33488464 C22.11337204 276.13533707 22.11344757 276.93578949 22.11352539 277.76049805 C22.115746 278.45999069 22.11796661 279.15948334 22.12025452 279.88017273 C22 282 22 282 21 287 C-20.91 287 -62.82 287 -106 287 C-106 283.7 -106 280.4 -106 277 C-105.34 277 -104.68 277 -104 277 C-104 274.36 -104 271.72 -104 269 C-105.32 269 -106.64 269 -108 269 C-108 267.68 -108 266.36 -108 265 C-106.68 265 -105.36 265 -104 265 C-103.67 264.01 -103.34 263.02 -103 262 C-102.34 262.33 -101.68 262.66 -101 263 C-101 267.62 -101 272.24 -101 277 C-63.71 277 -26.42 277 12 277 C12 262.48 12 247.96 12 233 C12.66 233 13.32 233 14 233 C14 196.37 14 159.74 14 122 C9.38 122 4.76 122 0 122 C0 121.01 0 120.02 0 119 C4.62 119 9.24 119 14 119 C14 80.39 14 41.78 14 2 C9.38 2 4.76 2 0 2 C0 1.34 0 0.68 0 0 Z " fill="#020202" transform="translate(273,260)"/>
<path d="M0 0 C230.34 0 460.68 0 698 0 C698 0.99 698 1.98 698 3 C509.24 3 320.48 3 126 3 C126 2.34 126 1.68 126 1 C125.01 1 124.02 1 123 1 C123 1.66 123 2.32 123 3 C82.41 3 41.82 3 0 3 C0 2.01 0 1.02 0 0 Z " fill="#FEFEFE" transform="translate(0,0)"/>
<path d="M0 0 C0 32.01 0 64.02 0 97 C17.01958074 96.67344206 17.01958074 96.67344206 34.0390625 96.34179688 C49.02779855 96.05664638 64.00864262 95.93175247 79 96 C80.28765958 98.57531916 80.12297065 100.40517149 80.12025452 103.28970337 C80.12231651 104.9724511 80.12231651 104.9724511 80.12442017 106.68919373 C80.12082489 107.9256514 80.11722961 109.16210907 80.11352539 110.43603516 C80.11367142 111.73355209 80.11381744 113.03106903 80.1139679 114.36790466 C80.1142555 117.93173592 80.10836475 121.49553371 80.10139394 125.05935717 C80.09515425 128.78162499 80.09455611 132.50389353 80.09336853 136.22616577 C80.09025704 143.27742568 80.08204609 150.32867013 80.07201904 157.37992322 C80.06085227 165.40641693 80.05534603 173.43291137 80.05032361 181.45941091 C80.03986333 197.97294966 80.02226739 214.48647286 80 231 C79.01 231 78.02 231 77 231 C77 187.44 77 143.88 77 99 C69.74 99.33 62.48 99.66 55 100 C36.52 100 18.04 100 -1 100 C-1.33 143.23 -1.66 186.46 -2 231 C-2.66 231 -3.32 231 -4 231 C-4 155.76 -4 80.52 -4 3 C-47.23 2.67 -90.46 2.34 -135 2 C-135 1.67 -135 1.34 -135 1 C-117.98880528 0.86943047 -100.97760924 0.73903545 -83.96641159 0.60884857 C-76.06793912 0.5483974 -68.1694671 0.48788898 -60.27099609 0.42724609 C-53.38722197 0.37439399 -46.50344704 0.32164899 -39.61967111 0.26903296 C-35.97430884 0.24116593 -32.328947 0.21324504 -28.68358612 0.18519592 C-24.61555607 0.15389659 -20.54752423 0.12283637 -16.47949219 0.09179688 C-15.26892654 0.08244614 -14.0583609 0.0730954 -12.81111145 0.0634613 C-11.70335861 0.05504715 -10.59560577 0.046633 -9.45428467 0.03796387 C-8.01075686 0.02690235 -8.01075686 0.02690235 -6.53806686 0.01561737 C-4.35874628 0.00220746 -2.17936184 0 0 0 Z " fill="#0F0F0F" transform="translate(454,261)"/>
<path d="M0 0 C15.98548434 0.08383874 31.97085551 0.17894931 47.95618916 0.28752708 C55.37824245 0.33767655 62.80028457 0.38411914 70.22241211 0.421875 C76.69056213 0.4547874 83.15862601 0.49461435 89.62668103 0.54279006 C93.05235409 0.56806264 96.47796996 0.58984159 99.90371132 0.60334396 C103.72538078 0.61853629 107.54684054 0.64916404 111.3684082 0.68115234 C112.50776321 0.68331253 113.64711823 0.68547272 114.82099915 0.68769836 C116.37959656 0.70444359 116.37959656 0.70444359 117.96968079 0.7215271 C119.32609916 0.72982324 119.32609916 0.72982324 120.70991993 0.73828697 C123 1 123 1 126 3 C84.42 3 42.84 3 0 3 C0 2.01 0 1.02 0 0 Z " fill="#E0E0E0" transform="translate(0,544)"/>
<path d="M0 0 C0.99 0 1.98 0 3 0 C3 3.3 3 6.6 3 10 C4.65 10 6.3 10 8 10 C8 10.66 8 11.32 8 12 C5.36 12 2.72 12 0 12 C-0.33 11.34 -0.66 10.68 -1 10 C-1.66 10.66 -2.32 11.32 -3 12 C-6 12.25 -6 12.25 -9 12 C-11 10 -11 10 -11.25 6.5 C-11 3 -11 3 -9 1 C-3.66666667 0.66666667 -3.66666667 0.66666667 -1 2 C-0.67 1.34 -0.34 0.68 0 0 Z " fill="#F3F3F3" transform="translate(66,268)"/>
<path d="M0 0 C0.99 0 1.98 0 3 0 C3 3.3 3 6.6 3 10 C4.65 10 6.3 10 8 10 C8 10.66 8 11.32 8 12 C5.36 12 2.72 12 0 12 C-0.33 11.34 -0.66 10.68 -1 10 C-1.66 10.66 -2.32 11.32 -3 12 C-6 12.3125 -6 12.3125 -9 12 C-11.30163882 8.54754176 -11.34490322 7.05261287 -11 3 C-9 1 -9 1 -5.4375 0.8125 C-2 1 -2 1 -1 2 C-0.67 1.34 -0.34 0.68 0 0 Z " fill="#D9D9D9" transform="translate(62,80)"/>
<path d="M0 0 C1.7325 0.061875 1.7325 0.061875 3.5 0.125 C4.16 0.125 4.82 0.125 5.5 0.125 C6.49 0.125 7.48 0.125 8.5 0.125 C8.5 3.095 8.5 6.065 8.5 9.125 C10.15 9.125 11.8 9.125 13.5 9.125 C13.5 9.785 13.5 10.445 13.5 11.125 C10.86 11.125 8.22 11.125 5.5 11.125 C5.17 10.465 4.84 9.805 4.5 9.125 C3.84 9.785 3.18 10.445 2.5 11.125 C-0.5 11.4375 -0.5 11.4375 -3.5 11.125 C-5.80163882 7.67254176 -5.84490322 6.17761287 -5.5 2.125 C-3.5 0.125 -3.5 0.125 0 0 Z " fill="#E6E6E6" transform="translate(60.5,450.875)"/>
<path d="M0 0 C1.7325 0.061875 1.7325 0.061875 3.5 0.125 C4.16 0.125 4.82 0.125 5.5 0.125 C6.49 0.125 7.48 0.125 8.5 0.125 C8.5 3.095 8.5 6.065 8.5 9.125 C10.15 9.125 11.8 9.125 13.5 9.125 C13.5 9.785 13.5 10.445 13.5 11.125 C10.86 11.125 8.22 11.125 5.5 11.125 C5.17 10.465 4.84 9.805 4.5 9.125 C3.84 9.785 3.18 10.445 2.5 11.125 C-0.5 11.4375 -0.5 11.4375 -3.5 11.125 C-5.80163882 7.67254176 -5.84490322 6.17761287 -5.5 2.125 C-3.5 0.125 -3.5 0.125 0 0 Z " fill="#E6E6E6" transform="translate(465.5,80.875)"/>
<path d="M0 0 C0.66 0 1.32 0 2 0 C2 4.62 2 9.24 2 14 C6.95 14 11.9 14 17 14 C17 14.99 17 15.98 17 17 C12.71 17 8.42 17 4 17 C4 20.63 4 24.26 4 28 C3.01 28 2.02 28 1 28 C0.90912109 26.93458984 0.90912109 26.93458984 0.81640625 25.84765625 C0.73261719 24.92855469 0.64882812 24.00945312 0.5625 23.0625 C0.48128906 22.14597656 0.40007812 21.22945313 0.31640625 20.28515625 C0.23955024 18.03840268 0.23955024 18.03840268 -1 17 C-1.09981214 14.3226862 -1.13879875 11.67695825 -1.125 9 C-1.12886719 8.24976563 -1.13273438 7.49953125 -1.13671875 6.7265625 C-1.12661053 1.12661053 -1.12661053 1.12661053 0 0 Z " fill="#161616" transform="translate(168,365)"/>
<path d="M0 0 C5.94 0 11.88 0 18 0 C18 0.99 18 1.98 18 3 C13.38 3 8.76 3 4 3 C4 7.62 4 12.24 4 17 C2.68 17 1.36 17 0 17 C0 11.39 0 5.78 0 0 Z " fill="#333333" transform="translate(167,260)"/>
<path d="M0 0 C1.32 0.33 2.64 0.66 4 1 C5.046875 3.28515625 5.046875 3.28515625 5.75 6.0625 C5.99234375 6.98160156 6.2346875 7.90070313 6.484375 8.84765625 C6.65453125 9.55792969 6.8246875 10.26820312 7 11 C6.01 11 5.02 11 4 11 C4 10.01 4 9.02 4 8 C2.35 8 0.7 8 -1 8 C-1 8.99 -1 9.98 -1 11 C-1.99 10.67 -2.98 10.34 -4 10 C-2.68 6.7 -1.36 3.4 0 0 Z " fill="#4F4F4F" transform="translate(645,81)"/>
<path d="M0 0 C1.32 0 2.64 0 4 0 C5.125 7.625 5.125 7.625 4 11 C3.01 11 2.02 11 1 11 C1 10.34 1 9.68 1 9 C-0.65 9 -2.3 9 -4 9 C-3.35334574 5.508067 -2.13457576 2.84610101 0 0 Z " fill="#2D2D2D" transform="translate(240,81)"/>
<path d="M0 0 C5.94 0.99 5.94 0.99 12 2 C12.33 3.32 12.66 4.64 13 6 C11.04196493 6.05389087 9.08351091 6.09274217 7.125 6.125 C6.03445313 6.14820313 4.94390625 6.17140625 3.8203125 6.1953125 C1 6 1 6 -1 4 C-0.67 2.68 -0.34 1.36 0 0 Z " fill="#1A1A1A" transform="translate(659,323)"/>
<path d="M0 0 C1.134375 0.020625 2.26875 0.04125 3.4375 0.0625 C3.4375 1.0525 3.4375 2.0425 3.4375 3.0625 C1.7875 3.0625 0.1375 3.0625 -1.5625 3.0625 C-1.5625 4.7125 -1.5625 6.3625 -1.5625 8.0625 C-0.2425 8.3925 1.0775 8.7225 2.4375 9.0625 C2.4375 8.4025 2.4375 7.7425 2.4375 7.0625 C3.0975 7.0625 3.7575 7.0625 4.4375 7.0625 C4.4375 8.0525 4.4375 9.0425 4.4375 10.0625 C-1.9225 11.3825 -1.9225 11.3825 -4.5625 10.0625 C-6.13529672 6.91690657 -5.3040208 4.39934358 -4.5625 1.0625 C-3.5625 0.0625 -3.5625 0.0625 0 0 Z " fill="#2B2B2B" transform="translate(221.5625,80.9375)"/>
<path d="M0 0 C0.66 0.33 1.32 0.66 2 1 C2 6.61 2 12.22 2 18 C1.01 18 0.02 18 -1 18 C-1.02684312 15.18743719 -1.04676188 12.37512759 -1.0625 9.5625 C-1.07087891 8.76005859 -1.07925781 7.95761719 -1.08789062 7.13085938 C-1.0965143 5.08704779 -1.0522815 3.04316098 -1 1 C-0.67 0.67 -0.34 0.34 0 0 Z " fill="#0A0A0A" transform="translate(170,501)"/>
<path d="M0 0 C0.66 0.33 1.32 0.66 2 1 C2 6.61 2 12.22 2 18 C1.01 18 0.02 18 -1 18 C-1.02684312 15.18743719 -1.04676188 12.37512759 -1.0625 9.5625 C-1.07087891 8.76005859 -1.07925781 7.95761719 -1.08789062 7.13085938 C-1.0965143 5.08704779 -1.0522815 3.04316098 -1 1 C-0.67 0.67 -0.34 0.34 0 0 Z " fill="#0A0A0A" transform="translate(170,480)"/>
<path d="M0 0 C0.66 0.33 1.32 0.66 2 1 C2 6.61 2 12.22 2 18 C1.01 18 0.02 18 -1 18 C-1.02684312 15.18743719 -1.04676188 12.37512759 -1.0625 9.5625 C-1.07087891 8.76005859 -1.07925781 7.95761719 -1.08789062 7.13085938 C-1.0965143 5.08704779 -1.0522815 3.04316098 -1 1 C-0.67 0.67 -0.34 0.34 0 0 Z " fill="#0A0A0A" transform="translate(170,459)"/>
<path d="M0 0 C0.66 0.33 1.32 0.66 2 1 C2 6.61 2 12.22 2 18 C1.01 18 0.02 18 -1 18 C-1.02684312 15.18743719 -1.04676188 12.37512759 -1.0625 9.5625 C-1.07087891 8.76005859 -1.07925781 7.95761719 -1.08789062 7.13085938 C-1.0965143 5.08704779 -1.0522815 3.04316098 -1 1 C-0.67 0.67 -0.34 0.34 0 0 Z " fill="#0A0A0A" transform="translate(170,438)"/>
<path d="M0 0 C0.66 0.33 1.32 0.66 2 1 C2 6.61 2 12.22 2 18 C1.01 18 0.02 18 -1 18 C-1.02684312 15.18743719 -1.04676188 12.37512759 -1.0625 9.5625 C-1.07087891 8.76005859 -1.07925781 7.95761719 -1.08789062 7.13085938 C-1.0965143 5.08704779 -1.0522815 3.04316098 -1 1 C-0.67 0.67 -0.34 0.34 0 0 Z " fill="#0A0A0A" transform="translate(170,417)"/>
<path d="M0 0 C0.66 0.33 1.32 0.66 2 1 C2 6.61 2 12.22 2 18 C1.01 18 0.02 18 -1 18 C-1.02684312 15.18743719 -1.04676188 12.37512759 -1.0625 9.5625 C-1.07087891 8.76005859 -1.07925781 7.95761719 -1.08789062 7.13085938 C-1.0965143 5.08704779 -1.0522815 3.04316098 -1 1 C-0.67 0.67 -0.34 0.34 0 0 Z " fill="#0A0A0A" transform="translate(170,396)"/>
<path d="M0 0 C0.66 0 1.32 0 2 0 C2 5.94 2 11.88 2 18 C1.01 17.67 0.02 17.34 -1 17 C-1.02684679 14.35409986 -1.04676357 11.70846904 -1.0625 9.0625 C-1.07087891 8.30775391 -1.07925781 7.55300781 -1.08789062 6.77539062 C-1.09652441 4.85005687 -1.05224333 2.92464419 -1 1 C-0.67 0.67 -0.34 0.34 0 0 Z " fill="#242424" transform="translate(168,344)"/>
<path d="M0 0 C0.66 0 1.32 0 2 0 C2 5.94 2 11.88 2 18 C1.01 17.67 0.02 17.34 -1 17 C-1.02684679 14.35409986 -1.04676357 11.70846904 -1.0625 9.0625 C-1.07087891 8.30775391 -1.07925781 7.55300781 -1.08789062 6.77539062 C-1.09652441 4.85005687 -1.05224333 2.92464419 -1 1 C-0.67 0.67 -0.34 0.34 0 0 Z " fill="#242424" transform="translate(168,323)"/>
<path d="M0 0 C0.66 0 1.32 0 2 0 C2 5.94 2 11.88 2 18 C1.01 17.67 0.02 17.34 -1 17 C-1.02684679 14.35409986 -1.04676357 11.70846904 -1.0625 9.0625 C-1.07087891 8.30775391 -1.07925781 7.55300781 -1.08789062 6.77539062 C-1.09652441 4.85005687 -1.05224333 2.92464419 -1 1 C-0.67 0.67 -0.34 0.34 0 0 Z " fill="#242424" transform="translate(168,302)"/>
<path d="M0 0 C0.66 0 1.32 0 2 0 C2 5.94 2 11.88 2 18 C1.01 17.67 0.02 17.34 -1 17 C-1.02684679 14.35409986 -1.04676357 11.70846904 -1.0625 9.0625 C-1.07087891 8.30775391 -1.07925781 7.55300781 -1.08789062 6.77539062 C-1.09652441 4.85005687 -1.05224333 2.92464419 -1 1 C-0.67 0.67 -0.34 0.34 0 0 Z " fill="#242424" transform="translate(168,281)"/>
<path d="M0 0 C5.61 0 11.22 0 17 0 C17 0.99 17 1.98 17 3 C11.39 3 5.78 3 0 3 C0 2.01 0 1.02 0 0 Z " fill="#161616" transform="translate(252,379)"/>
<path d="M0 0 C5.61 0 11.22 0 17 0 C17 0.99 17 1.98 17 3 C11.39 3 5.78 3 0 3 C0 2.01 0 1.02 0 0 Z " fill="#161616" transform="translate(231,379)"/>
<path d="M0 0 C5.61 0 11.22 0 17 0 C17 0.99 17 1.98 17 3 C11.39 3 5.78 3 0 3 C0 2.01 0 1.02 0 0 Z " fill="#161616" transform="translate(210,379)"/>
<path d="M0 0 C5.61 0 11.22 0 17 0 C17 0.99 17 1.98 17 3 C11.39 3 5.78 3 0 3 C0 2.01 0 1.02 0 0 Z " fill="#161616" transform="translate(189,379)"/>
<path d="M0 0 C1.670625 0.061875 1.670625 0.061875 3.375 0.125 C3.375 1.115 3.375 2.105 3.375 3.125 C1.395 3.125 -0.585 3.125 -2.625 3.125 C-2.625 4.775 -2.625 6.425 -2.625 8.125 C-0.645 7.795 1.335 7.465 3.375 7.125 C3.375 8.115 3.375 9.105 3.375 10.125 C2.375 11.125 2.375 11.125 -0.5625 11.375 C-1.573125 11.2925 -2.58375 11.21 -3.625 11.125 C-5.92663882 7.67254176 -5.96990322 6.17761287 -5.625 2.125 C-3.625 0.125 -3.625 0.125 0 0 Z " fill="#202020" transform="translate(60.625,450.875)"/>
<path d="M0 0 C4.62 0 9.24 0 14 0 C13.01 0.33 12.02 0.66 11 1 C11 1.99 11 2.98 11 4 C7.04 4 3.08 4 -1 4 C-0.67 2.68 -0.34 1.36 0 0 Z " fill="#242424" transform="translate(694,195)"/>
<path d="M0 0 C1.670625 0.061875 1.670625 0.061875 3.375 0.125 C3.375 1.115 3.375 2.105 3.375 3.125 C1.395 3.125 -0.585 3.125 -2.625 3.125 C-2.625 4.775 -2.625 6.425 -2.625 8.125 C-0.645 7.795 1.335 7.465 3.375 7.125 C3.375 8.115 3.375 9.105 3.375 10.125 C2.375 11.125 2.375 11.125 -0.5625 11.375 C-1.573125 11.2925 -2.58375 11.21 -3.625 11.125 C-5.92663882 7.67254176 -5.96990322 6.17761287 -5.625 2.125 C-3.625 0.125 -3.625 0.125 0 0 Z " fill="#202020" transform="translate(465.625,80.875)"/>
<path d="M0 0 C1.670625 0.061875 1.670625 0.061875 3.375 0.125 C3.375 1.115 3.375 2.105 3.375 3.125 C1.395 3.125 -0.585 3.125 -2.625 3.125 C-2.625 4.775 -2.625 6.425 -2.625 8.125 C-0.645 7.795 1.335 7.465 3.375 7.125 C3.375 8.115 3.375 9.105 3.375 10.125 C2.375 11.125 2.375 11.125 -0.5625 11.375 C-1.573125 11.2925 -2.58375 11.21 -3.625 11.125 C-5.92663882 7.67254176 -5.96990322 6.17761287 -5.625 2.125 C-3.625 0.125 -3.625 0.125 0 0 Z " fill="#202020" transform="translate(56.625,80.875)"/>
<path d="M0 0 C0.94875 0.04125 1.8975 0.0825 2.875 0.125 C3.205 1.115 3.535 2.105 3.875 3.125 C3.070625 2.939375 2.26625 2.75375 1.4375 2.5625 C0.1690625 2.3459375 0.1690625 2.3459375 -1.125 2.125 C-2.42133621 3.19145115 -2.42133621 3.19145115 -2.1875 5.6875 C-2.166875 6.491875 -2.14625 7.29625 -2.125 8.125 C-0.805 8.455 0.515 8.785 1.875 9.125 C1.875 8.465 1.875 7.805 1.875 7.125 C2.535 7.125 3.195 7.125 3.875 7.125 C3.545 8.445 3.215 9.765 2.875 11.125 C0 11.25 0 11.25 -3.125 11.125 C-5.125 9.125 -5.125 9.125 -5.375 5.625 C-5.05328869 1.12104166 -4.56738407 0.18269536 0 0 Z " fill="#191919" transform="translate(60.125,268.875)"/>
<path d="M0 0 C1.98 0 3.96 0 6 0 C5.979375 0.721875 5.95875 1.44375 5.9375 2.1875 C5.91643458 5.00835294 5.91643458 5.00835294 6.5625 7.75 C6.706875 8.4925 6.85125 9.235 7 10 C6 11 6 11 2.9375 11.0625 C1.968125 11.041875 0.99875 11.02125 0 11 C-0.33 10.01 -0.66 9.02 -1 8 C1.475 8.495 1.475 8.495 4 9 C4 8.01 4 7.02 4 6 C3.01 6 2.02 6 1 6 C1 5.34 1 4.68 1 4 C1.99 4 2.98 4 4 4 C4 3.01 4 2.02 4 1 C2.35 1.33 0.7 1.66 -1 2 C-0.67 1.34 -0.34 0.68 0 0 Z " fill="#1D1D1D" transform="translate(72,81)"/>
<path d="M0 0 C0.94875 0.04125 1.8975 0.0825 2.875 0.125 C3.205 1.115 3.535 2.105 3.875 3.125 C3.070625 2.939375 2.26625 2.75375 1.4375 2.5625 C0.1690625 2.3459375 0.1690625 2.3459375 -1.125 2.125 C-2.42133621 3.19145115 -2.42133621 3.19145115 -2.1875 5.6875 C-2.166875 6.491875 -2.14625 7.29625 -2.125 8.125 C-0.805 8.455 0.515 8.785 1.875 9.125 C1.875 8.465 1.875 7.805 1.875 7.125 C2.535 7.125 3.195 7.125 3.875 7.125 C3.545 8.445 3.215 9.765 2.875 11.125 C0 11.25 0 11.25 -3.125 11.125 C-5.125 9.125 -5.125 9.125 -5.375 5.625 C-5.05328869 1.12104166 -4.56738407 0.18269536 0 0 Z " fill="#191919" transform="translate(636.125,80.875)"/>
<path d="M0 0 C1.65 0.33 3.3 0.66 5 1 C5.25 3.3125 5.25 3.3125 5 6 C3 7.8125 3 7.8125 1 9 C2.32 9.33 3.64 9.66 5 10 C5 10.66 5 11.32 5 12 C2.69 12 0.38 12 -2 12 C-1.42647107 8.12867972 0.48704352 5.91827204 3 3 C1.35 3 -0.3 3 -2 3 C-1.34 2.01 -0.68 1.02 0 0 Z " fill="#2B2B2B" transform="translate(77,268)"/>
<path d="M0 0 C1.98 0 3.96 0 6 0 C4.68 0.33 3.36 0.66 2 1 C2.33 1.66 2.66 2.32 3 3 C5.02463255 3.65213292 5.02463255 3.65213292 7 4 C7.04254356 5.99954746 7.04080783 8.00041636 7 10 C6 11 6 11 3.4375 11.0625 C2.633125 11.041875 1.82875 11.02125 1 11 C0.67 10.01 0.34 9.02 0 8 C2.475 8.495 2.475 8.495 5 9 C4.67 8.01 4.34 7.02 4 6 C2.68 6 1.36 6 0 6 C0 4.02 0 2.04 0 0 Z " fill="#191919" transform="translate(481,81)"/>
<path d="M0 0 C3.3 0 6.6 0 10 0 C10.33 1.32 10.66 2.64 11 4 C7.04 4 3.08 4 -1 4 C-0.67 2.68 -0.34 1.36 0 0 Z " fill="#181818" transform="translate(677,325)"/>
<path d="M0 0 C0.99 0 1.98 0 3 0 C3 3.3 3 6.6 3 10 C4.65 10 6.3 10 8 10 C8 10.66 8 11.32 8 12 C5.36 12 2.72 12 0 12 C0 8.04 0 4.08 0 0 Z " fill="#393939" transform="translate(66,268)"/>
<path d="M0 0 C0.99 0 1.98 0 3 0 C3 3.3 3 6.6 3 10 C4.65 10 6.3 10 8 10 C8 10.66 8 11.32 8 12 C5.36 12 2.72 12 0 12 C0 8.04 0 4.08 0 0 Z " fill="#393939" transform="translate(228,80)"/>
<path d="M0 0 C1.32 0 2.64 0 4 0 C4 2.97 4 5.94 4 9 C4.99 9 5.98 9 7 9 C7 9.66 7 10.32 7 11 C4.36 11 1.72 11 -1 11 C-1 10.34 -1 9.68 -1 9 C-0.01 9 0.98 9 2 9 C2 6.69 2 4.38 2 2 C1.01 1.67 0.02 1.34 -1 1 C-0.67 0.67 -0.34 0.34 0 0 Z " fill="#0F0F0F" transform="translate(76,451)"/>
<path d="M0 0 C3.96 0 7.92 0 12 0 C12 0.99 12 1.98 12 3 C8.04 3 4.08 3 0 3 C0 2.01 0 1.02 0 0 Z " fill="#0A0A0A" transform="translate(677,196)"/>
<path d="M0 0 C3.96 0 7.92 0 12 0 C12 0.99 12 1.98 12 3 C8.04 3 4.08 3 0 3 C0 2.01 0 1.02 0 0 Z " fill="#0A0A0A" transform="translate(661,196)"/>
<path d="M0 0 C0.66 0 1.32 0 2 0 C2 2.97 2 5.94 2 9 C3.65 9 5.3 9 7 9 C7 9.66 7 10.32 7 11 C4.69 11 2.38 11 0 11 C0 7.37 0 3.74 0 0 Z " fill="#040404" transform="translate(67,451)"/>
<path d="M0 0 C0.66 0 1.32 0 2 0 C2 2.97 2 5.94 2 9 C3.65 9 5.3 9 7 9 C7 9.66 7 10.32 7 11 C4.69 11 2.38 11 0 11 C0 7.37 0 3.74 0 0 Z " fill="#181818" transform="translate(63,81)"/>
<path d="M0 0 C1.32 0.33 2.64 0.66 4 1 C3.67 1.99 3.34 2.98 3 4 C2.34 4 1.68 4 1 4 C1 5.32 1 6.64 1 8 C0.34 8 -0.32 8 -1 8 C-1 8.99 -1 9.98 -1 11 C-1.99 10.67 -2.98 10.34 -4 10 C-2.68 6.7 -1.36 3.4 0 0 Z " fill="#161616" transform="translate(645,81)"/>
<path d="M0 0 C0.66 0 1.32 0 2 0 C2 2.97 2 5.94 2 9 C3.65 9 5.3 9 7 9 C7 9.66 7 10.32 7 11 C4.69 11 2.38 11 0 11 C0 7.37 0 3.74 0 0 Z " fill="#040404" transform="translate(472,81)"/>
<path d="M0 0 C0.66 0.33 1.32 0.66 2 1 C2 2.98 2 4.96 2 7 C0.35 6.67 -1.3 6.34 -3 6 C-2.01 4.02 -1.02 2.04 0 0 Z " fill="#585858" transform="translate(240,81)"/>
<path d="M0 0 C1.98 0.495 1.98 0.495 4 1 C3.67 2.32 3.34 3.64 3 5 C1.68 4.67 0.36 4.34 -1 4 C-0.67 2.68 -0.34 1.36 0 0 Z " fill="#292929" transform="translate(659,313)"/>
<path d="M0 0 C1.98 0.495 1.98 0.495 4 1 C3.67 2.32 3.34 3.64 3 5 C1.68 4.67 0.36 4.34 -1 4 C-0.67 2.68 -0.34 1.36 0 0 Z " fill="#2A2A2A" transform="translate(659,303)"/>
<path d="M0 0 C1.98 0.495 1.98 0.495 4 1 C3.67 2.32 3.34 3.64 3 5 C1.68 4.67 0.36 4.34 -1 4 C-0.67 2.68 -0.34 1.36 0 0 Z " fill="#282828" transform="translate(658,203)"/>
<path d="M0 0 C0.99 0 1.98 0 3 0 C3.33 1.32 3.66 2.64 4 4 C2.68 4.33 1.36 4.66 0 5 C-0.5625 3.0625 -0.5625 3.0625 -1 1 C-0.67 0.67 -0.34 0.34 0 0 Z " fill="#242424" transform="translate(659,293)"/>
<path d="M0 0 C0.66 0.33 1.32 0.66 2 1 C1.67 1.33 1.34 1.66 1 2 C2.32 2.33 3.64 2.66 5 3 C5 3.66 5 4.32 5 5 C2.69 5 0.38 5 -2 5 C-1.125 1.125 -1.125 1.125 0 0 Z " fill="#070707" transform="translate(77,275)"/>
<path d="M0 0 C0.99 0.33 1.98 0.66 3 1 C2.67 2.32 2.34 3.64 2 5 C0.68 4.67 -0.64 4.34 -2 4 C-2 3.01 -2 2.02 -2 1 C-1.34 0.67 -0.68 0.34 0 0 Z " fill="#222222" transform="translate(659,223)"/>
<path d="M0 0 C0.99 0.33 1.98 0.66 3 1 C2.67 2.32 2.34 3.64 2 5 C0.68 4.67 -0.64 4.34 -2 4 C-2 3.01 -2 2.02 -2 1 C-1.34 0.67 -0.68 0.34 0 0 Z " fill="#222222" transform="translate(659,213)"/>
<path d="M0 0 C0.99 0 1.98 0 3 0 C3 1.65 3 3.3 3 5 C1.68 5 0.36 5 -1 5 C-0.67 3.35 -0.34 1.7 0 0 Z " fill="#1F1F1F" transform="translate(659,283)"/>
<path d="M0 0 C0.99 0 1.98 0 3 0 C3 1.65 3 3.3 3 5 C1.68 5 0.36 5 -1 5 C-0.67 3.35 -0.34 1.7 0 0 Z " fill="#1E1E1E" transform="translate(659,273)"/>
<path d="M0 0 C0.99 0.33 1.98 0.66 3 1 C2.67 2.32 2.34 3.64 2 5 C0.68 4.67 -0.64 4.34 -2 4 C-1.34 2.68 -0.68 1.36 0 0 Z " fill="#1D1D1D" transform="translate(659,243)"/>
<path d="M0 0 C0.99 0.33 1.98 0.66 3 1 C2.67 2.32 2.34 3.64 2 5 C0.68 4.67 -0.64 4.34 -2 4 C-1.34 2.68 -0.68 1.36 0 0 Z " fill="#1D1D1D" transform="translate(659,233)"/>
<path d="M0 0 C0.99 0.33 1.98 0.66 3 1 C3 2.32 3 3.64 3 5 C1.68 5 0.36 5 -1 5 C-0.67 3.35 -0.34 1.7 0 0 Z " fill="#0F0F0F" transform="translate(146,524)"/>
<path d="M0 0 C0.99 0.33 1.98 0.66 3 1 C3 2.32 3 3.64 3 5 C1.68 5 0.36 5 -1 5 C-0.67 3.35 -0.34 1.7 0 0 Z " fill="#151515" transform="translate(136,524)"/>
<path d="M0 0 C0.99 0.33 1.98 0.66 3 1 C3 2.32 3 3.64 3 5 C1.68 5 0.36 5 -1 5 C-0.67 3.35 -0.34 1.7 0 0 Z " fill="#161616" transform="translate(659,263)"/>
<path d="M0 0 C0.99 0.33 1.98 0.66 3 1 C3 2.32 3 3.64 3 5 C1.68 5 0.36 5 -1 5 C-0.67 3.35 -0.34 1.7 0 0 Z " fill="#171717" transform="translate(659,253)"/>
</svg>
