<?xml version="1.0" encoding="UTF-8"?>
<svg id="floorplan" version="1.1" xmlns="http://www.w3.org/2000/svg" width="708" height="545">
<path d="M0 0 C233.64 0 467.28 0 708 0 C708 179.85 708 359.7 708 545 C474.36 545 240.72 545 0 545 C0 365.15 0 185.3 0 0 Z " fill="#0F0F0F" transform="translate(0,0)"/>
<path d="M0 0 C12.87 0 25.74 0 39 0 C39 55.44 39 110.88 39 168 C80.25 168 121.5 168 164 168 C164 161.4 164 154.8 164 148 C203.93 148 243.86 148 285 148 C285 153.28 285 158.56 285 164 C326.25 163.67 367.5 163.34 410 163 C410 109.54 410 56.08 410 1 C423.2 1 436.4 1 450 1 C450.18949943 21.79151498 450.35326932 42.58314325 450.5 63.375 C450.50594854 64.21418913 450.51189708 65.05337826 450.51802588 65.91799736 C451.13827938 153.78614118 451.08440453 241.6554619 451.06315851 329.52525723 C451.06249809 332.25792161 451.0618553 334.990586 451.06121445 337.72325039 C451.05004989 384.81550541 451.02929531 431.90775287 451 479 C436.81 479 422.62 479 408 479 C407.67 434.45 407.34 389.9 407 344 C395.12 344.495 395.12 344.495 383 345 C378.2020053 345.07007122 373.42111374 345.12070053 368.625 345.09765625 C367.56796875 345.09664917 366.5109375 345.09564209 365.421875 345.09460449 C361.61457169 345.08952113 357.80728429 345.07556557 354 345.0625 C345.42 345.041875 336.84 345.02125 328 345 C328 312.99 328 280.98 328 248 C316.140625 248.020625 304.28125 248.04125 292.0625 248.0625 C258.12204298 248.09049973 224.18830478 247.87317007 190.25 247.5 C188.61799589 247.48206327 188.61799589 247.48206327 186.953022 247.46376419 C173.63525747 247.31670996 160.31758857 247.1621902 147 247 C147 247.66 147 248.32 147 249 C151.62 249 156.24 249 161 249 C161 287.61 161 326.22 161 366 C156.38 366 151.76 366 147 366 C147 366.99 147 367.98 147 369 C151.62 369 156.24 369 161 369 C161 405.63 161 442.26 161 480 C160.34 480 159.68 480 159 480 C159 493.86 159 507.72 159 522 C121.71 522 84.42 522 46 522 C45.67 518.04 45.34 514.08 45 510 C44.67 510 44.34 510 44 510 C43.67 513.96 43.34 517.92 43 522 C28.81 522 14.62 522 0 522 C0 349.74 0 177.48 0 0 Z " fill="#FDFDFD" transform="translate(126,12)"/>
<path d="M0 0 C33.37951636 0 33.37951636 0 44.30175781 0.07592773 C45.58210403 0.08407501 46.86245026 0.09222229 48.18159485 0.10061646 C52.27211526 0.12682273 56.36262022 0.1550662 60.453125 0.18359375 C61.88486478 0.1934816 63.31660458 0.20336478 64.74834442 0.21324348 C70.68918106 0.25439132 76.63001347 0.2960764 82.57083511 0.33933926 C91.00333813 0.40073486 99.43584959 0.45864495 107.86840749 0.51199192 C113.85964282 0.55016405 119.8508446 0.59209233 125.8420341 0.63687855 C129.40134437 0.66338972 132.96064816 0.68825117 136.51999664 0.70907402 C140.45380791 0.73218441 144.38753657 0.76305006 148.32128906 0.79467773 C149.49708023 0.8004332 150.6728714 0.80618866 151.8842926 0.81211853 C152.94601181 0.82190735 154.00773102 0.83169617 155.10162354 0.84178162 C156.02907505 0.84823417 156.95652657 0.85468672 157.91208267 0.8613348 C160 1 160 1 161 2 C161.10041643 4.23937566 161.12800589 6.48200732 161.12939453 8.72363281 C161.13112419 9.43947572 161.13285385 10.15531862 161.13463593 10.89285374 C161.13905812 13.32963303 161.13600653 15.76634451 161.1328125 18.203125 C161.13383207 19.9686434 161.13517377 21.73416163 161.1368103 23.49967957 C161.13956421 28.3860527 161.13493989 33.27239505 161.12857056 38.15876389 C161.12500905 41.24216558 161.12338064 44.32556257 161.12231445 47.40896606 C161.09643125 108.27386681 160.52463666 169.13775791 160 230 C160.66 230 161.32 230 162 230 C162 186.44 162 142.88 162 98 C188.07 98 214.14 98 241 98 C241 141.56 241 185.12 241 230 C256.18 230 271.36 230 287 230 C287 207.89 287 185.78 287 163 C287.33 163 287.66 163 288 163 C288 185.44 288 207.88 288 231 C192.96 231 97.92 231 0 231 C0 154.77 0 78.54 0 0 Z " fill="#3D3F47" transform="translate(290,261)"/>
<path d="M0 0 C36.96 0 73.92 0 112 0 C112 65.67 112 131.34 112 199 C75.04 199 38.08 199 0 199 C0 133.33 0 67.66 0 0 Z " fill="#FEFEFE" transform="translate(11,180)"/> <!--Library-->
<path id="1" d="M0 0 C39.27 0 78.54 0 119 0 C119 54.12 119 108.24 119 164 C79.73 164 40.46 164 0 164 C0 109.88 0 55.76 0 0 Z " fill="#FEFEFE" transform="translate(168,13)"/> <!--Room 201-->
<path id="3" d="M0 0 C38.61 0 77.22 0 117 0 C117 54.45 117 108.9 117 165 C78.39 165 39.78 165 0 165 C0 110.55 0 56.1 0 0 Z " fill="#FEFEFE" transform="translate(579,12)"/> <!--Room 203-->
<path id="2" d="M0 0 C39.6 0 79.2 0 120 0 C120 53.13 120 106.26 120 161 C80.73 161 41.46 161 1 161 C0.835 145.015625 0.67 129.03125 0.5 112.5625 C0.44779297 107.65189697 0.39558594 102.74129395 0.34179688 97.68188477 C0.01773619 65.1157147 0 32.57190324 0 0 Z " fill="#FCFCFC" transform="translate(413,12)"/> <!--Room 202-->
<path d="M0 0 C0.66 0 1.32 0 2 0 C2 120.45 2 240.9 2 365 C-190.06 365 -382.12 365 -580 365 C-580 364.67 -580 364.34 -580 364 C-524.56 364 -469.12 364 -412 364 C-411.67 349.81 -411.34 335.62 -411 321 C-347.63212875 320.94277865 -284.26592878 321.00490265 -220.8984375 321.21875 C-220.15346545 321.22125472 -219.40849341 321.22375944 -218.64094645 321.22634006 C-217.91016868 321.22879709 -217.17939092 321.23125413 -216.42646837 321.23378563 C-215.79310061 321.23591478 -215.15973286 321.23804393 -214.50717214 321.24023759 C-190.12976659 321.32275742 -165.75238677 321.41203322 -141.375 321.5 C-94.72125 321.665 -48.0675 321.83 0 322 C0 215.74 0 109.48 0 0 Z " fill="#FEFEFE" transform="translate(706,180)"/>
<path d="M0 0 C36.96 0 73.92 0 112 0 C112 54.12 112 108.24 112 164 C75.04 164 38.08 164 0 164 C0 109.88 0 55.76 0 0 Z " fill="#FEFEFE" transform="translate(11,13)"/> <!--Library-->
<path id="4" d="M0 0 C38.28 0 76.56 0 116 0 C116 51.81 116 103.62 116 157 C77.72 157 39.44 157 0 157 C0 105.19 0 53.38 0 0 Z " fill="#FEFEFE" transform="translate(580,180)"/> <!--ROOM 204-->
<path id="5" d="M0 0 C38.28 0 76.56 0 116 0 C116 50.16 116 100.32 116 152 C77.72 152 39.44 152 0 152 C0 101.84 0 51.68 0 0 Z " fill="#FDFDFD" transform="translate(580,340)"/> <!--ROOM 205-->
<path d="M0 0 C39.6 0 79.2 0 120 0 C120.87119673 48.02471998 121.08471893 95.96436399 121 144 C81.07 144 41.14 144 0 144 C0 96.48 0 48.96 0 0 Z " fill="#FEFEFE" transform="translate(290,13)"/>
<path d="M0 0 C36.96 0 73.92 0 112 0 C112 50.16 112 100.32 112 152 C75.04 152 38.08 152 0 152 C0 101.84 0 51.68 0 0 Z " fill="#FEFEFE" transform="translate(11,382)"/>
<path d="M0 0 C192.06 0 384.12 0 582 0 C582 58.41 582 116.82 582 177 C581.34 177 580.68 177 580 177 C580 119.25 580 61.5 580 2 C537.43193359 2.10828125 537.43193359 2.10828125 494.00390625 2.21875 C475.64257864 2.26454324 457.28125086 2.31023395 438.91992188 2.35546875 C429.22257479 2.37936419 419.52522778 2.40328433 409.82788086 2.42724609 C408.61379065 2.43024503 407.39970044 2.43324396 406.14881963 2.43633378 C389.32730743 2.47791585 372.50579778 2.52041568 355.68428986 2.56369197 C326.58250098 2.63856042 297.48070793 2.71152174 268.37890625 2.78125 C267.23637833 2.78399162 266.0938504 2.78673324 264.91670042 2.78955793 C176.61104109 3.00107742 88.3058751 3.06487485 0 3 C0 2.01 0 1.02 0 0 Z " fill="#FEFEFE" transform="translate(126,0)"/>
<path d="M0 0 C94.71 0 189.42 0 287 0 C287 0.66 287 1.32 287 2 C269.35429716 2.18105098 251.70845839 2.34597607 234.0625 2.5 C233.38290694 2.50594854 232.70331388 2.51189708 232.0031271 2.51802588 C178.8769155 2.98181615 125.7530684 3.08805248 72.625 3.0625 C71.71668505 3.06207577 70.8083701 3.06165154 69.87253046 3.06121445 C46.58167652 3.05015145 23.29083716 3.03008573 0 3 C0 2.01 0 1.02 0 0 Z " fill="#FDFDFD" transform="translate(126,0)"/>
<path d="M0 0 C14.19 0 28.38 0 43 0 C43 0.66 43 1.32 43 2 C81.94 2 120.88 2 161 2 C161 2.33 161 2.66 161 3 C107.87 3 54.74 3 0 3 C0 2.01 0 1.02 0 0 Z " fill="#AAAAAA" transform="translate(126,0)"/>
<path d="M0 0 C3.0625 0.4375 3.0625 0.4375 4.9375 2.9375 C5.30875 3.7625 5.68 4.5875 6.0625 5.4375 C6.660625 4.6125 7.25875 3.7875 7.875 2.9375 C8.596875 2.1125 9.31875 1.2875 10.0625 0.4375 C11.0525 0.4375 12.0425 0.4375 13.0625 0.4375 C13.0625 2.7475 13.0625 5.0575 13.0625 7.4375 C13.7225 7.7675 14.3825 8.0975 15.0625 8.4375 C14.4025 8.4375 13.7425 8.4375 13.0625 8.4375 C13.0625 9.4275 13.0625 10.4175 13.0625 11.4375 C12.4025 11.4375 11.7425 11.4375 11.0625 11.4375 C11.0625 10.7775 11.0625 10.1175 11.0625 9.4375 C7.64593976 9.27072718 7.64593976 9.27072718 4.0625 9.4375 C3.4025 10.0975 2.7425 10.7575 2.0625 11.4375 C-0.4375 11.75 -0.4375 11.75 -2.9375 11.4375 C-5.23913882 7.98504176 -5.28240322 6.49011287 -4.9375 2.4375 C-2.9375 0.4375 -2.9375 0.4375 0 0 Z " fill="#171717" transform="translate(637.9375,252.5625)"/>
<path d="M0 0 C0.66 0 1.32 0 2 0 C2 4.62 2 9.24 2 14 C6.95 14 11.9 14 17 14 C17 14.99 17 15.98 17 17 C12.71 17 8.42 17 4 17 C4 20.63 4 24.26 4 28 C3.01 28 2.02 28 1 28 C0.90912109 26.93458984 0.90912109 26.93458984 0.81640625 25.84765625 C0.73261719 24.92855469 0.64882812 24.00945312 0.5625 23.0625 C0.48128906 22.14597656 0.40007812 21.22945313 0.31640625 20.28515625 C0.23955024 18.03840268 0.23955024 18.03840268 -1 17 C-1.09981214 14.3226862 -1.13879875 11.67695825 -1.125 9 C-1.12886719 8.24976563 -1.13273438 7.49953125 -1.13671875 6.7265625 C-1.12661053 1.12661053 -1.12661053 1.12661053 0 0 Z " fill="#161616" transform="translate(168,364)"/>
<path d="M0 0 C5.94 0 11.88 0 18 0 C18 0.99 18 1.98 18 3 C13.38 3 8.76 3 4 3 C4 7.62 4 12.24 4 17 C2.68 17 1.36 17 0 17 C0 11.39 0 5.78 0 0 Z " fill="#333333" transform="translate(167,259)"/>
<path d="M0 0 C1.9375 0.8125 1.9375 0.8125 3.9375 2.8125 C4.28240322 6.86511287 4.23913882 8.36004176 1.9375 11.8125 C-0.5625 12.125 -0.5625 12.125 -3.0625 11.8125 C-5.0625 9.8125 -5.0625 9.8125 -5.375 6.375 C-5.0625 2.8125 -5.0625 2.8125 -3.8125 0.8125 C-2.0625 -0.1875 -2.0625 -0.1875 0 0 Z " fill="#141414" transform="translate(225.0625,92.1875)"/>
<path d="M0 0 C3.0625 0.1875 3.0625 0.1875 5.0625 2.1875 C5.40740322 6.24011287 5.36413882 7.73504176 3.0625 11.1875 C0.5625 11.5 0.5625 11.5 -1.9375 11.1875 C-3.9375 9.1875 -3.9375 9.1875 -4.16796875 7.27734375 C-4.02781859 0.2570948 -4.02781859 0.2570948 0 0 Z " fill="#0E0E0E" transform="translate(633.9375,410.8125)"/>
<path d="M0 0 C3.0625 0.1875 3.0625 0.1875 5.0625 2.1875 C5.40740322 6.24011287 5.36413882 7.73504176 3.0625 11.1875 C0.5625 11.5 0.5625 11.5 -1.9375 11.1875 C-3.9375 9.1875 -3.9375 9.1875 -4.16796875 7.27734375 C-4.02781859 0.2570948 -4.02781859 0.2570948 0 0 Z " fill="#0E0E0E" transform="translate(635.9375,83.8125)"/>
<path d="M0 0 C0.94875 0.04125 1.8975 0.0825 2.875 0.125 C4.38162097 3.13824195 4.05270373 5.80786377 3.875 9.125 C1.875 11.125 1.875 11.125 -0.625 11.4375 C-1.8625 11.2828125 -1.8625 11.2828125 -3.125 11.125 C-5.42663882 7.67254176 -5.46990322 6.17761287 -5.125 2.125 C-3.125 0.125 -3.125 0.125 0 0 Z " fill="#171717" transform="translate(477.125,89.875)"/>
<path d="M0 0 C2.31 0 4.62 0 7 0 C7.19406478 1.64507218 7.38007935 3.29109594 7.5625 4.9375 C7.66691406 5.85402344 7.77132812 6.77054687 7.87890625 7.71484375 C7.91886719 8.46894531 7.95882812 9.22304687 8 10 C7 11 7 11 3.4375 11.0625 C2.303125 11.041875 1.16875 11.02125 0 11 C0 7.37 0 3.74 0 0 Z " fill="#4E4E4E" transform="translate(68,90)"/>
<path d="M0 0 C0.66 0.33 1.32 0.66 2 1 C2 6.61 2 12.22 2 18 C1.01 18 0.02 18 -1 18 C-1.02684312 15.18743719 -1.04676188 12.37512759 -1.0625 9.5625 C-1.07087891 8.76005859 -1.07925781 7.95761719 -1.08789062 7.13085938 C-1.0965143 5.08704779 -1.0522815 3.04316098 -1 1 C-0.67 0.67 -0.34 0.34 0 0 Z " fill="#0A0A0A" transform="translate(170,500)"/>
<path d="M0 0 C0.66 0.33 1.32 0.66 2 1 C2 6.61 2 12.22 2 18 C1.01 18 0.02 18 -1 18 C-1.02684312 15.18743719 -1.04676188 12.37512759 -1.0625 9.5625 C-1.07087891 8.76005859 -1.07925781 7.95761719 -1.08789062 7.13085938 C-1.0965143 5.08704779 -1.0522815 3.04316098 -1 1 C-0.67 0.67 -0.34 0.34 0 0 Z " fill="#0A0A0A" transform="translate(170,479)"/>
<path d="M0 0 C0.66 0.33 1.32 0.66 2 1 C2 6.61 2 12.22 2 18 C1.01 18 0.02 18 -1 18 C-1.02684312 15.18743719 -1.04676188 12.37512759 -1.0625 9.5625 C-1.07087891 8.76005859 -1.07925781 7.95761719 -1.08789062 7.13085938 C-1.0965143 5.08704779 -1.0522815 3.04316098 -1 1 C-0.67 0.67 -0.34 0.34 0 0 Z " fill="#0A0A0A" transform="translate(170,458)"/>
<path d="M0 0 C0.66 0.33 1.32 0.66 2 1 C2 6.61 2 12.22 2 18 C1.01 18 0.02 18 -1 18 C-1.02684312 15.18743719 -1.04676188 12.37512759 -1.0625 9.5625 C-1.07087891 8.76005859 -1.07925781 7.95761719 -1.08789062 7.13085938 C-1.0965143 5.08704779 -1.0522815 3.04316098 -1 1 C-0.67 0.67 -0.34 0.34 0 0 Z " fill="#0A0A0A" transform="translate(170,437)"/>
<path d="M0 0 C0.66 0.33 1.32 0.66 2 1 C2 6.61 2 12.22 2 18 C1.01 18 0.02 18 -1 18 C-1.02684312 15.18743719 -1.04676188 12.37512759 -1.0625 9.5625 C-1.07087891 8.76005859 -1.07925781 7.95761719 -1.08789062 7.13085938 C-1.0965143 5.08704779 -1.0522815 3.04316098 -1 1 C-0.67 0.67 -0.34 0.34 0 0 Z " fill="#0A0A0A" transform="translate(170,416)"/>
<path d="M0 0 C0.66 0.33 1.32 0.66 2 1 C2 6.61 2 12.22 2 18 C1.01 18 0.02 18 -1 18 C-1.02684312 15.18743719 -1.04676188 12.37512759 -1.0625 9.5625 C-1.07087891 8.76005859 -1.07925781 7.95761719 -1.08789062 7.13085938 C-1.0965143 5.08704779 -1.0522815 3.04316098 -1 1 C-0.67 0.67 -0.34 0.34 0 0 Z " fill="#0A0A0A" transform="translate(170,395)"/>
<path d="M0 0 C0.66 0 1.32 0 2 0 C2 5.94 2 11.88 2 18 C1.01 17.67 0.02 17.34 -1 17 C-1.02684679 14.35409986 -1.04676357 11.70846904 -1.0625 9.0625 C-1.07087891 8.30775391 -1.07925781 7.55300781 -1.08789062 6.77539062 C-1.09652441 4.85005687 -1.05224333 2.92464419 -1 1 C-0.67 0.67 -0.34 0.34 0 0 Z " fill="#242424" transform="translate(168,343)"/>
<path d="M0 0 C0.66 0 1.32 0 2 0 C2 5.94 2 11.88 2 18 C1.01 17.67 0.02 17.34 -1 17 C-1.02684679 14.35409986 -1.04676357 11.70846904 -1.0625 9.0625 C-1.07087891 8.30775391 -1.07925781 7.55300781 -1.08789062 6.77539062 C-1.09652441 4.85005687 -1.05224333 2.92464419 -1 1 C-0.67 0.67 -0.34 0.34 0 0 Z " fill="#242424" transform="translate(168,322)"/>
<path d="M0 0 C0.66 0 1.32 0 2 0 C2 5.94 2 11.88 2 18 C1.01 17.67 0.02 17.34 -1 17 C-1.02684679 14.35409986 -1.04676357 11.70846904 -1.0625 9.0625 C-1.07087891 8.30775391 -1.07925781 7.55300781 -1.08789062 6.77539062 C-1.09652441 4.85005687 -1.05224333 2.92464419 -1 1 C-0.67 0.67 -0.34 0.34 0 0 Z " fill="#242424" transform="translate(168,301)"/>
<path d="M0 0 C0.66 0 1.32 0 2 0 C2 5.94 2 11.88 2 18 C1.01 17.67 0.02 17.34 -1 17 C-1.02684679 14.35409986 -1.04676357 11.70846904 -1.0625 9.0625 C-1.07087891 8.30775391 -1.07925781 7.55300781 -1.08789062 6.77539062 C-1.09652441 4.85005687 -1.05224333 2.92464419 -1 1 C-0.67 0.67 -0.34 0.34 0 0 Z " fill="#242424" transform="translate(168,280)"/>
<path d="M0 0 C1.98 0 3.96 0 6 0 C6.75 1.75 6.75 1.75 7 4 C5.0625 6.25 5.0625 6.25 3 8 C4.32 8.33 5.64 8.66 7 9 C7 9.66 7 10.32 7 11 C4.36 11 1.72 11 -1 11 C-0.42647107 7.12867972 1.48704352 4.91827204 4 2 C2.68 2.33 1.36 2.66 0 3 C0 2.01 0 1.02 0 0 Z " fill="#303030" transform="translate(623,84)"/>
<path d="M0 0 C2.31 0 4.62 0 7 0 C7.33 1.32 7.66 2.64 8 4 C7.34 4 6.68 4 6 4 C5.67 3.34 5.34 2.68 5 2 C4.01 1.67 3.02 1.34 2 1 C2 3.64 2 6.28 2 9 C3.65 9 5.3 9 7 9 C7 8.01 7 7.02 7 6 C7.66 6 8.32 6 9 6 C8.125 9.875 8.125 9.875 7 11 C4.66702567 11.04092937 2.33294775 11.04241723 0 11 C0 7.37 0 3.74 0 0 Z " fill="#111111" transform="translate(65,453)"/>
<path d="M0 0 C2.31 0 4.62 0 7 0 C7 0.33 7 0.66 7 1 C5.35 1 3.7 1 2 1 C2.33 1.66 2.66 2.32 3 3 C5.02463255 3.65213292 5.02463255 3.65213292 7 4 C7.625 6.375 7.625 6.375 8 9 C6 11 6 11 3.375 11.125 C2.59125 11.08375 1.8075 11.0425 1 11 C0.67 10.01 0.34 9.02 0 8 C2.475 8.495 2.475 8.495 5 9 C5 7.68 5 6.36 5 5 C3.35 5.33 1.7 5.66 0 6 C0 4.02 0 2.04 0 0 Z " fill="#2C2C2C" transform="translate(641,411)"/>
<path d="M0 0 C5.61 0 11.22 0 17 0 C17 0.99 17 1.98 17 3 C11.39 3 5.78 3 0 3 C0 2.01 0 1.02 0 0 Z " fill="#161616" transform="translate(252,378)"/>
<path d="M0 0 C5.61 0 11.22 0 17 0 C17 0.99 17 1.98 17 3 C11.39 3 5.78 3 0 3 C0 2.01 0 1.02 0 0 Z " fill="#161616" transform="translate(231,378)"/>
<path d="M0 0 C5.61 0 11.22 0 17 0 C17 0.99 17 1.98 17 3 C11.39 3 5.78 3 0 3 C0 2.01 0 1.02 0 0 Z " fill="#161616" transform="translate(210,378)"/>
<path d="M0 0 C5.61 0 11.22 0 17 0 C17 0.99 17 1.98 17 3 C11.39 3 5.78 3 0 3 C0 2.01 0 1.02 0 0 Z " fill="#161616" transform="translate(189,378)"/>
<path d="M0 0 C2.31 0 4.62 0 7 0 C7.33 1.32 7.66 2.64 8 4 C7.01 4.495 7.01 4.495 6 5 C6 3.68 6 2.36 6 1 C4.68 1 3.36 1 2 1 C2 3.64 2 6.28 2 9 C3.65 9 5.3 9 7 9 C7 8.01 7 7.02 7 6 C7.66 6 8.32 6 9 6 C8.125 9.875 8.125 9.875 7 11 C4.66702567 11.04092937 2.33294775 11.04241723 0 11 C0 7.37 0 3.74 0 0 Z " fill="#090909" transform="translate(70,274)"/>
<path d="M0 0 C1.98 0 3.96 0 6 0 C6.75 1.75 6.75 1.75 7 4 C5.0625 6.25 5.0625 6.25 3 8 C4.32 8.33 5.64 8.66 7 9 C7 9.66 7 10.32 7 11 C4.36 11 1.72 11 -1 11 C-0.52797514 6.75177626 1.96655518 4.80010291 5 2 C3.35 2.33 1.7 2.66 0 3 C0 2.01 0 1.02 0 0 Z " fill="#1C1C1C" transform="translate(211,93)"/>
<path d="M0 0 C0.33 1.65 0.66 3.3 1 5 C-0.32 5.99 -1.64 6.98 -3 8 C-1.68 8.33 -0.36 8.66 1 9 C1 9.66 1 10.32 1 11 C-1.31 11 -3.62 11 -6 11 C-5.5206753 6.68607774 -4.2542015 4.83430453 -1 2 C-2.65 2.33 -4.3 2.66 -6 3 C-6 2.01 -6 1.02 -6 0 C-3.50907189 -1.24546405 -2.58919267 -0.7767578 0 0 Z " fill="#212121" transform="translate(469,90)"/>
<path d="M0 0 C1.98 0 3.96 0 6 0 C6.75 1.75 6.75 1.75 7 4 C5.0625 6.25 5.0625 6.25 3 8 C4.32 8.33 5.64 8.66 7 9 C7 9.66 7 10.32 7 11 C4.36 11 1.72 11 -1 11 C-0.52797514 6.75177626 1.96655518 4.80010291 5 2 C3.35 2.33 1.7 2.66 0 3 C0 2.01 0 1.02 0 0 Z " fill="#232323" transform="translate(621,411)"/>
<path d="M0 0 C0.77675511 3.39830361 1.19382275 6.51119051 1 10 C0 11 0 11 -2.4375 11.25 C-3.283125 11.1675 -4.12875 11.085 -5 11 C-5.66 10.01 -6.32 9.02 -7 8 C-4.03 8.495 -4.03 8.495 -1 9 C-1 8.01 -1 7.02 -1 6 C-1.99 6 -2.98 6 -4 6 C-4 4 -4 4 -2 2 C-3.32 2 -4.64 2 -6 2 C-6 1.34 -6 0.68 -6 0 C-3.50907189 -1.24546405 -2.58919267 -0.7767578 0 0 Z " fill="#161616" transform="translate(649,84)"/>
<path d="M0 0 C1.65 0.33 3.3 0.66 5 1 C5.25 3.3125 5.25 3.3125 5 6 C3 7.8125 3 7.8125 1 9 C2.32 9.33 3.64 9.66 5 10 C5 10.66 5 11.32 5 12 C2.69 12 0.38 12 -2 12 C-1.42647107 8.12867972 0.48704352 5.91827204 3 3 C1.35 3 -0.3 3 -2 3 C-1.34 2.01 -0.68 1.02 0 0 Z " fill="#2B2B2B" transform="translate(626,252)"/>
<path d="M0 0 C1.65 0.33 3.3 0.66 5 1 C5.25 3.3125 5.25 3.3125 5 6 C3 7.8125 3 7.8125 1 9 C2.32 9.33 3.64 9.66 5 10 C5 10.66 5 11.32 5 12 C2.69 12 0.38 12 -2 12 C-1.42647107 8.12867972 0.48704352 5.91827204 3 3 C1.35 3 -0.3 3 -2 3 C-1.34 2.01 -0.68 1.02 0 0 Z " fill="#2B2B2B" transform="translate(485,89)"/>
<path d="M0 0 C0.99 0 1.98 0 3 0 C3 3.3 3 6.6 3 10 C4.65 10 6.3 10 8 10 C8 10.66 8 11.32 8 12 C5.36 12 2.72 12 0 12 C0 8.04 0 4.08 0 0 Z " fill="#393939" transform="translate(50,452)"/>
<path d="M0 0 C0.99 0 1.98 0 3 0 C3 3.3 3 6.6 3 10 C4.65 10 6.3 10 8 10 C8 10.66 8 11.32 8 12 C5.36 12 2.72 12 0 12 C0 8.04 0 4.08 0 0 Z " fill="#393939" transform="translate(55,273)"/>
<path d="M0 0 C1.32 0 2.64 0 4 0 C4 2.97 4 5.94 4 9 C4.99 9 5.98 9 7 9 C7 9.66 7 10.32 7 11 C4.36 11 1.72 11 -1 11 C-1 10.34 -1 9.68 -1 9 C-0.01 9 0.98 9 2 9 C2 6.69 2 4.38 2 2 C1.34 2 0.68 2 0 2 C0 1.34 0 0.68 0 0 Z " fill="#141414" transform="translate(231,93)"/>
<path d="M0 0 C1.875 0.25 1.875 0.25 4 1 C5.3125 2.875 5.3125 2.875 6 5 C5.67 5.99 5.34 6.98 5 8 C3.35 8 1.7 8 0 8 C0 5.36 0 2.72 0 0 Z " fill="#A0A0A0" transform="translate(67,454)"/>
<path d="M0 0 C1.32 0 2.64 0 4 0 C4 1.32 4 2.64 4 4 C4.66 4.33 5.32 4.66 6 5 C5.67 5.99 5.34 6.98 5 8 C3.35 8 1.7 8 0 8 C0 5.36 0 2.72 0 0 Z " fill="#9E9E9E" transform="translate(72,275)"/>
<path d="M0 0 C0.99 0 1.98 0 3 0 C3 3.96 3 7.92 3 12 C2.01 12 1.02 12 0 12 C0 8.04 0 4.08 0 0 Z " fill="#474747" transform="translate(59,452)"/>
<path d="M0 0 C2.31 0 4.62 0 7 0 C5.47291037 3.43595166 3.40072955 6.11912454 1 9 C-0.4783226 6.04335481 -0.06032783 3.25770263 0 0 Z " fill="#ECECEC" transform="translate(481,92)"/>
<path d="M0 0 C0.99 0 1.98 0 3 0 C3 3.96 3 7.92 3 12 C2.01 12 1.02 12 0 12 C0 8.04 0 4.08 0 0 Z " fill="#474747" transform="translate(62,89)"/>
<path d="M0 0 C0.99 0 1.98 0 3 0 C3 2.31 3 4.62 3 7 C3.66 7.33 4.32 7.66 5 8 C4.34 8 3.68 8 3 8 C3 8.99 3 9.98 3 11 C2.34 11 1.68 11 1 11 C1 10.01 1 9.02 1 8 C-0.65 8 -2.3 8 -4 8 C-3.34 7.34 -2.68 6.68 -2 6 C-1.01 6.33 -0.02 6.66 1 7 C1 5.35 1 3.7 1 2 C0.34 1.67 -0.32 1.34 -1 1 C-0.67 0.67 -0.34 0.34 0 0 Z " fill="#020202" transform="translate(648,253)"/>
<path d="M0 0 C1.32 0 2.64 0 4 0 C4 1.98 4 3.96 4 6 C2.0625 6.5625 2.0625 6.5625 0 7 C-1 6 -1 6 -1.125 3.5 C-1 1 -1 1 0 0 Z " fill="#E4E4E4" transform="translate(636,255)"/>
<path d="M0 0 C1.32 0 2.64 0 4 0 C4 1.98 4 3.96 4 6 C2.0625 6.5625 2.0625 6.5625 0 7 C-1 6 -1 6 -1.125 3.5 C-1 1 -1 1 0 0 Z " fill="#E4E4E4" transform="translate(475,92)"/>
<path d="M0 0 C0.66 0 1.32 0 2 0 C2 2.97 2 5.94 2 9 C3.65 9 5.3 9 7 9 C7 9.66 7 10.32 7 11 C4.69 11 2.38 11 0 11 C0 7.37 0 3.74 0 0 Z " fill="#040404" transform="translate(53,90)"/>
<path d="M0 0 C2.76223278 2.76223278 2.57856291 5.20706617 3 9 C2.01 9.33 1.02 9.66 0 10 C0 9.34 0 8.68 0 8 C-1.65 8 -3.3 8 -5 8 C-4.0409375 7.13375 -4.0409375 7.13375 -3.0625 6.25 C-1.01776132 4.01937599 -0.41794801 2.92563609 0 0 Z " fill="#E4E4E4" transform="translate(631,254)"/>
<path d="M0 0 C0.99 0.33 1.98 0.66 3 1 C3 3.31 3 5.62 3 8 C1.68 8 0.36 8 -1 8 C-1.04241723 5.66705225 -1.04092937 3.33297433 -1 1 C-0.67 0.67 -0.34 0.34 0 0 Z " fill="#EEEEEE" transform="translate(633,412)"/>
<path d="M0 0 C0.99 0 1.98 0 3 0 C3 1.65 3 3.3 3 5 C1.68 5 0.36 5 -1 5 C0.32 5.66 1.64 6.32 3 7 C1.02 7 -0.96 7 -3 7 C-3.33 5.35 -3.66 3.7 -4 2 C-3.01 2 -2.02 2 -1 2 C-0.67 1.34 -0.34 0.68 0 0 Z " fill="#7E7E7E" transform="translate(646,255)"/>
<path d="M0 0 C0.99 0.33 1.98 0.66 3 1 C3 3.31 3 5.62 3 8 C1.35 8.33 -0.3 8.66 -2 9 C-1.34 6.03 -0.68 3.06 0 0 Z " fill="#EFEFEF" transform="translate(230,94)"/>
<path d="M0 0 C0.99 0.33 1.98 0.66 3 1 C3 3.31 3 5.62 3 8 C1.68 8 0.36 8 -1 8 C-1.04241723 5.66705225 -1.04092937 3.33297433 -1 1 C-0.67 0.67 -0.34 0.34 0 0 Z " fill="#EEEEEE" transform="translate(635,85)"/>
<path d="M0 0 C1.32 0 2.64 0 4 0 C4 2.31 4 4.62 4 7 C2.68 6.67 1.36 6.34 0 6 C0 4.02 0 2.04 0 0 Z " fill="#F4F4F4" transform="translate(222,95)"/>
<path d="M0 0 C1.98 0 3.96 0 6 0 C7.125 3.75 7.125 3.75 6 6 C4.68 5.67 3.36 5.34 2 5 C2.99 4.01 3.98 3.02 5 2 C3.35 2.33 1.7 2.66 0 3 C0 2.01 0 1.02 0 0 Z " fill="#292929" transform="translate(211,93)"/>
<path d="M0 0 C0 1.32 0 2.64 0 4 C-1.65 3.67 -3.3 3.34 -5 3 C-5.33 3.66 -5.66 4.32 -6 5 C-6.33 3.68 -6.66 2.36 -7 1 C-4.50935112 0.31292445 -2.62113708 0 0 0 Z " fill="#E4E4E4" transform="translate(646,416)"/>
<path d="M0 0 C0.25 5.625 0.25 5.625 -2 9 C-3.32 8.34 -4.64 7.68 -6 7 C-5.01 7 -4.02 7 -3 7 C-3 5.02 -3 3.04 -3 1 C-1 0 -1 0 0 0 Z " fill="#454545" transform="translate(639,413)"/>
<path d="M0 0 C0.66 0 1.32 0 2 0 C2 0.66 2 1.32 2 2 C3.65 2 5.3 2 7 2 C7 2.66 7 3.32 7 4 C4.36 4 1.72 4 -1 4 C-0.67 2.68 -0.34 1.36 0 0 Z " fill="#1A1A1A" transform="translate(623,91)"/>
<path d="M0 0 C0.25 5.625 0.25 5.625 -2 9 C-3.32 8.34 -4.64 7.68 -6 7 C-5.01 7 -4.02 7 -3 7 C-3 5.02 -3 3.04 -3 1 C-1 0 -1 0 0 0 Z " fill="#454545" transform="translate(641,86)"/>
<path d="M0 0 C2.31 0 4.62 0 7 0 C7 0.33 7 0.66 7 1 C5.35 1 3.7 1 2 1 C2 1.99 2 2.98 2 4 C2.99 4.33 3.98 4.66 5 5 C3.35 5.33 1.7 5.66 0 6 C0 4.02 0 2.04 0 0 Z " fill="#050505" transform="translate(641,411)"/>
<path d="M0 0 C0.66 0.33 1.32 0.66 2 1 C1.67 1.33 1.34 1.66 1 2 C2.32 2.33 3.64 2.66 5 3 C5 3.66 5 4.32 5 5 C2.69 5 0.38 5 -2 5 C-1.125 1.125 -1.125 1.125 0 0 Z " fill="#070707" transform="translate(626,259)"/>
<path d="M0 0 C0.66 0.33 1.32 0.66 2 1 C1.67 1.33 1.34 1.66 1 2 C2.32 2.33 3.64 2.66 5 3 C5 3.66 5 4.32 5 5 C2.69 5 0.38 5 -2 5 C-1.125 1.125 -1.125 1.125 0 0 Z " fill="#070707" transform="translate(485,96)"/>
<path d="M0 0 C0.33 1.32 0.66 2.64 1 4 C0.01 4 -0.98 4 -2 4 C-2 3.34 -2 2.68 -2 2 C-3.32 2 -4.64 2 -6 2 C-6 1.34 -6 0.68 -6 0 C-3.50907189 -1.24546405 -2.58919267 -0.7767578 0 0 Z " fill="#2B2B2B" transform="translate(649,84)"/>
<path d="M0 0 C2.64 0.33 5.28 0.66 8 1 C8 1.66 8 2.32 8 3 C5.36 3 2.72 3 0 3 C0 2.01 0 1.02 0 0 Z " fill="#1D1D1D" transform="translate(620,419)"/>
<path d="M0 0 C1.9375 0.375 1.9375 0.375 4 1 C5.43088528 3.86177057 4.59991697 5.93375773 4 9 C3.67 9 3.34 9 3 9 C3 7.02 3 5.04 3 3 C2.01 3 1.02 3 0 3 C0 2.01 0 1.02 0 0 Z " fill="#565656" transform="translate(223,92)"/>
</svg>
