<?xml version="1.0" encoding="UTF-8"?>
<svg id="floorplan" version="1.1" xmlns="http://www.w3.org/2000/svg" width="716" height="545">
<path d="M0 0 C236.28 0 472.56 0 716 0 C716 179.85 716 359.7 716 545 C479.72 545 243.44 545 0 545 C0 365.15 0 185.3 0 0 Z " fill="#0E0E0E" transform="translate(0,0)"/>
<path d="M0 0 C12.87 0 25.74 0 39 0 C39 55.44 39 110.88 39 168 C80.25 168 121.5 168 164 168 C164 161.4 164 154.8 164 148 C203.93 148 243.86 148 285 148 C285 153.28 285 158.56 285 164 C326.25 163.67 367.5 163.34 410 163 C410 109.54 410 56.08 410 1 C423.2 1 436.4 1 450 1 C450.18949943 21.79151498 450.35326932 42.58314325 450.5 63.375 C450.50594854 64.21418913 450.51189708 65.05337826 450.51802588 65.91799736 C451.13827938 153.78614118 451.08440453 241.6554619 451.06315851 329.52525723 C451.06249809 332.25792161 451.0618553 334.990586 451.06121445 337.72325039 C451.05004989 384.81550541 451.02929531 431.90775287 451 479 C436.81 479 422.62 479 408 479 C407.67 434.45 407.34 389.9 407 344 C395.12 344.495 395.12 344.495 383 345 C378.2020053 345.07007122 373.42111374 345.12070053 368.625 345.09765625 C367.56796875 345.09664917 366.5109375 345.09564209 365.421875 345.09460449 C361.61457169 345.08952113 357.80728429 345.07556557 354 345.0625 C345.42 345.041875 336.84 345.02125 328 345 C328 312.99 328 280.98 328 248 C316.140625 248.020625 304.28125 248.04125 292.0625 248.0625 C258.12204298 248.09049973 224.18830478 247.87317007 190.25 247.5 C188.61799589 247.48206327 188.61799589 247.48206327 186.953022 247.46376419 C173.63525747 247.31670996 160.31758857 247.1621902 147 247 C147 247.66 147 248.32 147 249 C151.62 249 156.24 249 161 249 C161 287.61 161 326.22 161 366 C156.38 366 151.76 366 147 366 C147 366.99 147 367.98 147 369 C151.62 369 156.24 369 161 369 C161 405.63 161 442.26 161 480 C160.34 480 159.68 480 159 480 C159 493.86 159 507.72 159 522 C121.71 522 84.42 522 46 522 C45.67 518.04 45.34 514.08 45 510 C44.67 510 44.34 510 44 510 C43.67 513.96 43.34 517.92 43 522 C28.81 522 14.62 522 0 522 C0 349.74 0 177.48 0 0 Z " fill="#FDFDFD" transform="translate(126,12)"/>
<path d="M0 0 C33.37951636 0 33.37951636 0 44.30175781 0.07592773 C45.58210403 0.08407501 46.86245026 0.09222229 48.18159485 0.10061646 C52.27211526 0.12682273 56.36262022 0.1550662 60.453125 0.18359375 C61.88486478 0.1934816 63.31660458 0.20336478 64.74834442 0.21324348 C70.68918106 0.25439132 76.63001347 0.2960764 82.57083511 0.33933926 C91.00333813 0.40073486 99.43584959 0.45864495 107.86840749 0.51199192 C113.85964282 0.55016405 119.8508446 0.59209233 125.8420341 0.63687855 C129.40134437 0.66338972 132.96064816 0.68825117 136.51999664 0.70907402 C140.45380791 0.73218441 144.38753657 0.76305006 148.32128906 0.79467773 C149.49708023 0.8004332 150.6728714 0.80618866 151.8842926 0.81211853 C152.94601181 0.82190735 154.00773102 0.83169617 155.10162354 0.84178162 C156.02907505 0.84823417 156.95652657 0.85468672 157.91208267 0.8613348 C160 1 160 1 161 2 C161.10041643 4.23937566 161.12800589 6.48200732 161.12939453 8.72363281 C161.13112419 9.43947572 161.13285385 10.15531862 161.13463593 10.89285374 C161.13905812 13.32963303 161.13600653 15.76634451 161.1328125 18.203125 C161.13383207 19.9686434 161.13517377 21.73416163 161.1368103 23.49967957 C161.13956421 28.3860527 161.13493989 33.27239505 161.12857056 38.15876389 C161.12500905 41.24216558 161.12338064 44.32556257 161.12231445 47.40896606 C161.09643125 108.27386681 160.52463666 169.13775791 160 230 C160.66 230 161.32 230 162 230 C162 186.44 162 142.88 162 98 C188.07 98 214.14 98 241 98 C241 141.56 241 185.12 241 230 C256.18 230 271.36 230 287 230 C287 207.89 287 185.78 287 163 C287.33 163 287.66 163 288 163 C288 185.44 288 207.88 288 231 C192.96 231 97.92 231 0 231 C0 154.77 0 78.54 0 0 Z " fill="#3D3F47" transform="translate(290,261)"/>
<path d="M0 0 C36.96 0 73.92 0 112 0 C112 65.67 112 131.34 112 199 C75.04 199 38.08 199 0 199 C0 133.33 0 67.66 0 0 Z " fill="#FEFEFE" transform="translate(11,180)"/> <!--Avr-->
<path id="4" d="M0 0 C41.91 0 83.82 0 127 0 C127 54.45 127 108.9 127 165 C85.09 165 43.18 165 0 165 C0 110.55 0 56.1 0 0 Z " fill="#FDFDFD" transform="translate(579,12)"/> <!--Room 304-->
<path id="5" d="M0 0 C41.58 0 83.16 0 126 0 C126 51.81 126 103.62 126 157 C84.42 157 42.84 157 0 157 C0 105.19 0 53.38 0 0 Z " fill="#FEFEFE" transform="translate(580,180)"/> <!--Room 305-->
<path id="2" d="M0 0 C39.27 0 78.54 0 119 0 C119 54.12 119 108.24 119 164 C79.73 164 40.46 164 0 164 C0 109.88 0 55.76 0 0 Z " fill="#FEFEFE" transform="translate(168,13)"/> <!--Room 302-->
<path id="3" d="M0 0 C39.6 0 79.2 0 120 0 C120 53.13 120 106.26 120 161 C80.73 161 41.46 161 1 161 C0.835 145.015625 0.67 129.03125 0.5 112.5625 C0.44779297 107.65189697 0.39558594 102.74129395 0.34179688 97.68188477 C0.01773619 65.1157147 0 32.57190324 0 0 Z " fill="#FCFCFC" transform="translate(413,12)"/> <!--Room 303-->
<path id="6" d="M0 0 C41.58 0 83.16 0 126 0 C126 50.16 126 100.32 126 152 C84.42 152 42.84 152 0 152 C0 101.84 0 51.68 0 0 Z " fill="#FDFDFD" transform="translate(580,340)"/> <!--Room 306-->
<path id="1" d="M0 0 C36.96 0 73.92 0 112 0 C112 54.45 112 108.9 112 165 C75.04 165 38.08 165 0 165 C0 110.55 0 56.1 0 0 Z " fill="#FDFDFD" transform="translate(11,12)"/> <!--Room 301-->
<path d="M0 0 C138.93 0 277.86 0 421 0 C421 14.52 421 29.04 421 44 C226.3 44 31.6 44 -169 44 C-169 43.67 -169 43.34 -169 43 C-113.56 43 -58.12 43 -1 43 C-0.67 28.81 -0.34 14.62 0 0 Z " fill="#FEFEFE" transform="translate(295,501)"/>
<path d="M0 0 C39.6 0 79.2 0 120 0 C120.87119673 48.02471998 121.08471893 95.96436399 121 144 C81.07 144 41.14 144 0 144 C0 96.48 0 48.96 0 0 Z " fill="#FEFEFE" transform="translate(290,13)"/>
<path d="M0 0 C36.96 0 73.92 0 112 0 C112 50.16 112 100.32 112 152 C75.04 152 38.08 152 0 152 C0 101.84 0 51.68 0 0 Z " fill="#FEFEFE" transform="translate(11,382)"/>
<path d="M0 0 C194.7 0 389.4 0 590 0 C590 3.3 590 6.6 590 10 C586.7 10 583.4 10 580 10 C580 7.36 580 4.72 580 2 C579.17454369 2.00211597 578.34908737 2.00423194 577.49861723 2.00641203 C527.69479956 2.13402565 477.89097663 2.25940453 428.08714679 2.38218227 C422.00072478 2.39718847 415.91430281 2.41221192 409.82788086 2.42724609 C408.01162744 2.43173202 408.01162744 2.43173202 406.15868204 2.43630856 C389.33388237 2.47789919 372.50908525 2.52040722 355.68428986 2.56369197 C326.58250098 2.63856042 297.48070793 2.71152174 268.37890625 2.78125 C267.23637833 2.78399162 266.0938504 2.78673324 264.91670042 2.78955793 C176.61104109 3.00107742 88.3058751 3.06487485 0 3 C0 2.01 0 1.02 0 0 Z " fill="#FDFDFD" transform="translate(126,0)"/>
<path d="M0 0 C99.99 0 199.98 0 303 0 C303 3.3 303 6.6 303 10 C299.7 10 296.4 10 293 10 C293 7.36 293 4.72 293 2 C196.31 2 99.62 2 0 2 C0 1.34 0 0.68 0 0 Z " fill="#FFFFFF" transform="translate(413,0)"/>
<path d="M0 0 C14.19 0 28.38 0 43 0 C43 0.66 43 1.32 43 2 C81.94 2 120.88 2 161 2 C161 2.33 161 2.66 161 3 C107.87 3 54.74 3 0 3 C0 2.01 0 1.02 0 0 Z " fill="#AAAAAA" transform="translate(126,0)"/>
<path d="M0 0 C0.66 0 1.32 0 2 0 C2 4.62 2 9.24 2 14 C6.95 14 11.9 14 17 14 C17 14.99 17 15.98 17 17 C12.71 17 8.42 17 4 17 C4 20.63 4 24.26 4 28 C3.01 28 2.02 28 1 28 C0.90912109 26.93458984 0.90912109 26.93458984 0.81640625 25.84765625 C0.73261719 24.92855469 0.64882812 24.00945312 0.5625 23.0625 C0.48128906 22.14597656 0.40007812 21.22945313 0.31640625 20.28515625 C0.23955024 18.03840268 0.23955024 18.03840268 -1 17 C-1.09981214 14.3226862 -1.13879875 11.67695825 -1.125 9 C-1.12886719 8.24976563 -1.13273438 7.49953125 -1.13671875 6.7265625 C-1.12661053 1.12661053 -1.12661053 1.12661053 0 0 Z " fill="#161616" transform="translate(168,364)"/>
<path d="M0 0 C5.94 0 11.88 0 18 0 C18 0.99 18 1.98 18 3 C13.38 3 8.76 3 4 3 C4 7.62 4 12.24 4 17 C2.68 17 1.36 17 0 17 C0 11.39 0 5.78 0 0 Z " fill="#333333" transform="translate(167,259)"/>
<path d="M0 0 C1.9375 0.8125 1.9375 0.8125 3.9375 2.8125 C4.28240322 6.86511287 4.23913882 8.36004176 1.9375 11.8125 C-0.5625 12.125 -0.5625 12.125 -3.0625 11.8125 C-5.0625 9.8125 -5.0625 9.8125 -5.375 6.375 C-5.0625 2.8125 -5.0625 2.8125 -3.8125 0.8125 C-2.0625 -0.1875 -2.0625 -0.1875 0 0 Z " fill="#141414" transform="translate(68.0625,89.1875)"/>
<path d="M0 0 C2.9375 0.1875 2.9375 0.1875 3.9375 1.1875 C4.21064815 6.92361111 4.21064815 6.92361111 3.9375 9.1875 C1.9375 11.1875 1.9375 11.1875 -0.5625 11.5 C-1.8 11.3453125 -1.8 11.3453125 -3.0625 11.1875 C-5.36413882 7.73504176 -5.40740322 6.24011287 -5.0625 2.1875 C-3.0625 0.1875 -3.0625 0.1875 0 0 Z " fill="#222222" transform="translate(638.0625,255.8125)"/>
<path d="M0 0 C3.0625 0.1875 3.0625 0.1875 5.0625 2.1875 C5.40740322 6.24011287 5.36413882 7.73504176 3.0625 11.1875 C0.5625 11.5 0.5625 11.5 -1.9375 11.1875 C-3.9375 9.1875 -3.9375 9.1875 -4.16796875 7.27734375 C-4.02781859 0.2570948 -4.02781859 0.2570948 0 0 Z " fill="#0E0E0E" transform="translate(637.9375,98.8125)"/>
<path d="M0 0 C3.0625 0.1875 3.0625 0.1875 5.0625 2.1875 C5.40740322 6.24011287 5.36413882 7.73504176 3.0625 11.1875 C0.5625 11.5 0.5625 11.5 -1.9375 11.1875 C-3.9375 9.1875 -3.9375 9.1875 -4.16796875 7.27734375 C-4.02781859 0.2570948 -4.02781859 0.2570948 0 0 Z " fill="#0E0E0E" transform="translate(224.9375,89.8125)"/>
<path d="M0 0 C0.94875 0.04125 1.8975 0.0825 2.875 0.125 C4.38162097 3.13824195 4.05270373 5.80786377 3.875 9.125 C1.875 11.125 1.875 11.125 -0.625 11.4375 C-1.8625 11.2828125 -1.8625 11.2828125 -3.125 11.125 C-5.42663882 7.67254176 -5.46990322 6.17761287 -5.125 2.125 C-3.125 0.125 -3.125 0.125 0 0 Z " fill="#171717" transform="translate(638.125,410.875)"/>
<path d="M0 0 C0.94875 0.04125 1.8975 0.0825 2.875 0.125 C4.38162097 3.13824195 4.05270373 5.80786377 3.875 9.125 C1.875 11.125 1.875 11.125 -0.625 11.4375 C-1.8625 11.2828125 -1.8625 11.2828125 -3.125 11.125 C-5.42663882 7.67254176 -5.46990322 6.17761287 -5.125 2.125 C-3.125 0.125 -3.125 0.125 0 0 Z " fill="#171717" transform="translate(463.125,89.875)"/>
<path d="M0 0 C1.32 0 2.64 0 4 0 C4.19573608 1.43640171 4.38127816 2.87419504 4.5625 4.3125 C4.66691406 5.11300781 4.77132812 5.91351563 4.87890625 6.73828125 C5 9 5 9 4 12 C3.01 12 2.02 12 1 12 C1 11.34 1 10.68 1 10 C-0.65 10 -2.3 10 -4 10 C-3.29445932 6.33118845 -1.72264494 3.29549466 0 0 Z " fill="#676767" transform="translate(648,98)"/>
<path d="M0 0 C2.31 0 4.62 0 7 0 C7.68707555 2.49064888 8 4.37886292 8 7 C8.3062434 8.33981486 8.63451555 9.67511887 9 11 C8.01 11 7.02 11 6 11 C5.67 9.35 5.34 7.7 5 6 C4.01 6 3.02 6 2 6 C2 7.65 2 9.3 2 11 C1.34 11 0.68 11 0 11 C0 7.37 0 3.74 0 0 Z " fill="#020202" transform="translate(74,454)"/>
<path d="M0 0 C2.31 0 4.62 0 7 0 C7.68707555 2.49064888 8 4.37886292 8 7 C8.3062434 8.33981486 8.63451555 9.67511887 9 11 C8.01 11 7.02 11 6 11 C5.67 9.35 5.34 7.7 5 6 C4.01 6 3.02 6 2 6 C2 7.65 2 9.3 2 11 C1.34 11 0.68 11 0 11 C0 7.37 0 3.74 0 0 Z " fill="#020202" transform="translate(72,274)"/>
<path d="M0 0 C1.65 0.33 3.3 0.66 5 1 C5.99 4.3 6.98 7.6 8 11 C7.01 11 6.02 11 5 11 C5 10.01 5 9.02 5 8 C3.35 8 1.7 8 0 8 C-0.33 8.99 -0.66 9.98 -1 11 C-1.66 11 -2.32 11 -3 11 C-2.01 7.37 -1.02 3.74 0 0 Z " fill="#333333" transform="translate(52,274)"/>
<path d="M0 0 C1.32 0 2.64 0 4 0 C4.50615298 1.26839526 5.00469099 2.53983102 5.5 3.8125 C5.7784375 4.52019531 6.056875 5.22789062 6.34375 5.95703125 C7 8 7 8 7 11 C6.34 11 5.68 11 5 11 C4.67 10.34 4.34 9.68 4 9 C2.68 9 1.36 9 0 9 C-0.33 9.66 -0.66 10.32 -1 11 C-1.66 11 -2.32 11 -3 11 C-2.69078116 9.54096742 -2.37751201 8.08279278 -2.0625 6.625 C-1.88847656 5.81289063 -1.71445312 5.00078125 -1.53515625 4.1640625 C-1 2 -1 2 0 0 Z " fill="#191919" transform="translate(54,454)"/>
<path d="M0 0 C0.94875 0.04125 1.8975 0.0825 2.875 0.125 C2.875 0.785 2.875 1.445 2.875 2.125 C1.225 2.455 -0.425 2.785 -2.125 3.125 C-2.125 5.105 -2.125 7.085 -2.125 9.125 C-1.135 9.125 -0.145 9.125 0.875 9.125 C0.545 7.475 0.215 5.825 -0.125 4.125 C1.195 4.455 2.515 4.785 3.875 5.125 C3 10 3 10 1.875 11.125 C-0.5625 11.375 -0.5625 11.375 -3.125 11.125 C-5.42663882 7.67254176 -5.46990322 6.17761287 -5.125 2.125 C-3.125 0.125 -3.125 0.125 0 0 Z " fill="#272727" transform="translate(649.125,410.875)"/>
<path d="M0 0 C-0.020625 0.7425 -0.04125 1.485 -0.0625 2.25 C-0.11733104 4.93826222 -0.11733104 4.93826222 0.625 7.1875 C0.74875 7.785625 0.8725 8.38375 1 9 C-1 11 -1 11 -3.625 11.125 C-4.40875 11.08375 -5.1925 11.0425 -6 11 C-6.33 10.01 -6.66 9.02 -7 8 C-4.525 8.495 -4.525 8.495 -2 9 C-2 8.01 -2 7.02 -2 6 C-2.99 6 -3.98 6 -5 6 C-5 5.34 -5 4.68 -5 4 C-4.01 4 -3.02 4 -2 4 C-2 3.34 -2 2.68 -2 2 C-3.65 2 -5.3 2 -7 2 C-7 1.34 -7 0.68 -7 0 C-4.3333581 -1.33332095 -2.83319697 -0.67102033 0 0 Z " fill="#262626" transform="translate(631,99)"/>
<path d="M0 0 C1.65 0.33 3.3 0.66 5 1 C6.04028969 4.38094149 6.15672777 7.47362528 6 11 C5 12 5 12 1.9375 12.0625 C0.968125 12.041875 -0.00125 12.02125 -1 12 C-1.33 11.01 -1.66 10.02 -2 9 C0.97 9.495 0.97 9.495 4 10 C4 9.01 4 8.02 4 7 C2.68 7 1.36 7 0 7 C0 6.34 0 5.68 0 5 C0.99 5 1.98 5 3 5 C3 4.01 3 3.02 3 2 C1.68 2.33 0.36 2.66 -1 3 C-0.67 2.01 -0.34 1.02 0 0 Z " fill="#292929" transform="translate(450,89)"/>
<path d="M0 0 C1.65 0.33 3.3 0.66 5 1 C6.04028969 4.38094149 6.15672777 7.47362528 6 11 C5 12 5 12 1.9375 12.0625 C0.968125 12.041875 -0.00125 12.02125 -1 12 C-1.33 11.01 -1.66 10.02 -2 9 C0.97 9.495 0.97 9.495 4 10 C4 9.01 4 8.02 4 7 C2.68 7 1.36 7 0 7 C0 6.34 0 5.68 0 5 C0.99 5 1.98 5 3 5 C3 4.01 3 3.02 3 2 C1.68 2.33 0.36 2.66 -1 3 C-0.67 2.01 -0.34 1.02 0 0 Z " fill="#292929" transform="translate(55,89)"/>
<path d="M0 0 C0.66 0.33 1.32 0.66 2 1 C2 6.61 2 12.22 2 18 C1.01 18 0.02 18 -1 18 C-1.02684312 15.18743719 -1.04676188 12.37512759 -1.0625 9.5625 C-1.07087891 8.76005859 -1.07925781 7.95761719 -1.08789062 7.13085938 C-1.0965143 5.08704779 -1.0522815 3.04316098 -1 1 C-0.67 0.67 -0.34 0.34 0 0 Z " fill="#0A0A0A" transform="translate(170,500)"/>
<path d="M0 0 C0.66 0.33 1.32 0.66 2 1 C2 6.61 2 12.22 2 18 C1.01 18 0.02 18 -1 18 C-1.02684312 15.18743719 -1.04676188 12.37512759 -1.0625 9.5625 C-1.07087891 8.76005859 -1.07925781 7.95761719 -1.08789062 7.13085938 C-1.0965143 5.08704779 -1.0522815 3.04316098 -1 1 C-0.67 0.67 -0.34 0.34 0 0 Z " fill="#0A0A0A" transform="translate(170,479)"/>
<path d="M0 0 C0.66 0.33 1.32 0.66 2 1 C2 6.61 2 12.22 2 18 C1.01 18 0.02 18 -1 18 C-1.02684312 15.18743719 -1.04676188 12.37512759 -1.0625 9.5625 C-1.07087891 8.76005859 -1.07925781 7.95761719 -1.08789062 7.13085938 C-1.0965143 5.08704779 -1.0522815 3.04316098 -1 1 C-0.67 0.67 -0.34 0.34 0 0 Z " fill="#0A0A0A" transform="translate(170,458)"/>
<path d="M0 0 C0.66 0.33 1.32 0.66 2 1 C2 6.61 2 12.22 2 18 C1.01 18 0.02 18 -1 18 C-1.02684312 15.18743719 -1.04676188 12.37512759 -1.0625 9.5625 C-1.07087891 8.76005859 -1.07925781 7.95761719 -1.08789062 7.13085938 C-1.0965143 5.08704779 -1.0522815 3.04316098 -1 1 C-0.67 0.67 -0.34 0.34 0 0 Z " fill="#0A0A0A" transform="translate(170,437)"/>
<path d="M0 0 C0.66 0.33 1.32 0.66 2 1 C2 6.61 2 12.22 2 18 C1.01 18 0.02 18 -1 18 C-1.02684312 15.18743719 -1.04676188 12.37512759 -1.0625 9.5625 C-1.07087891 8.76005859 -1.07925781 7.95761719 -1.08789062 7.13085938 C-1.0965143 5.08704779 -1.0522815 3.04316098 -1 1 C-0.67 0.67 -0.34 0.34 0 0 Z " fill="#0A0A0A" transform="translate(170,416)"/>
<path d="M0 0 C0.66 0.33 1.32 0.66 2 1 C2 6.61 2 12.22 2 18 C1.01 18 0.02 18 -1 18 C-1.02684312 15.18743719 -1.04676188 12.37512759 -1.0625 9.5625 C-1.07087891 8.76005859 -1.07925781 7.95761719 -1.08789062 7.13085938 C-1.0965143 5.08704779 -1.0522815 3.04316098 -1 1 C-0.67 0.67 -0.34 0.34 0 0 Z " fill="#0A0A0A" transform="translate(170,395)"/>
<path d="M0 0 C0.66 0 1.32 0 2 0 C2 5.94 2 11.88 2 18 C1.01 17.67 0.02 17.34 -1 17 C-1.02684679 14.35409986 -1.04676357 11.70846904 -1.0625 9.0625 C-1.07087891 8.30775391 -1.07925781 7.55300781 -1.08789062 6.77539062 C-1.09652441 4.85005687 -1.05224333 2.92464419 -1 1 C-0.67 0.67 -0.34 0.34 0 0 Z " fill="#242424" transform="translate(168,343)"/>
<path d="M0 0 C0.66 0 1.32 0 2 0 C2 5.94 2 11.88 2 18 C1.01 17.67 0.02 17.34 -1 17 C-1.02684679 14.35409986 -1.04676357 11.70846904 -1.0625 9.0625 C-1.07087891 8.30775391 -1.07925781 7.55300781 -1.08789062 6.77539062 C-1.09652441 4.85005687 -1.05224333 2.92464419 -1 1 C-0.67 0.67 -0.34 0.34 0 0 Z " fill="#242424" transform="translate(168,322)"/>
<path d="M0 0 C0.66 0 1.32 0 2 0 C2 5.94 2 11.88 2 18 C1.01 17.67 0.02 17.34 -1 17 C-1.02684679 14.35409986 -1.04676357 11.70846904 -1.0625 9.0625 C-1.07087891 8.30775391 -1.07925781 7.55300781 -1.08789062 6.77539062 C-1.09652441 4.85005687 -1.05224333 2.92464419 -1 1 C-0.67 0.67 -0.34 0.34 0 0 Z " fill="#242424" transform="translate(168,301)"/>
<path d="M0 0 C0.66 0 1.32 0 2 0 C2 5.94 2 11.88 2 18 C1.01 17.67 0.02 17.34 -1 17 C-1.02684679 14.35409986 -1.04676357 11.70846904 -1.0625 9.0625 C-1.07087891 8.30775391 -1.07925781 7.55300781 -1.08789062 6.77539062 C-1.09652441 4.85005687 -1.05224333 2.92464419 -1 1 C-0.67 0.67 -0.34 0.34 0 0 Z " fill="#242424" transform="translate(168,280)"/>
<path d="M0 0 C0.99 0.33 1.98 0.66 3 1 C4.1875 4.0625 4.1875 4.0625 5 7 C5.99 5.02 6.98 3.04 8 1 C8.66 1 9.32 1 10 1 C9.01 4.63 8.02 8.26 7 12 C5.68 11.67 4.36 11.34 3 11 C2.01 7.37 1.02 3.74 0 0 Z " fill="#161616" transform="translate(62,453)"/>
<path d="M0 0 C5.61 0 11.22 0 17 0 C17 0.99 17 1.98 17 3 C11.39 3 5.78 3 0 3 C0 2.01 0 1.02 0 0 Z " fill="#161616" transform="translate(252,378)"/>
<path d="M0 0 C5.61 0 11.22 0 17 0 C17 0.99 17 1.98 17 3 C11.39 3 5.78 3 0 3 C0 2.01 0 1.02 0 0 Z " fill="#161616" transform="translate(231,378)"/>
<path d="M0 0 C5.61 0 11.22 0 17 0 C17 0.99 17 1.98 17 3 C11.39 3 5.78 3 0 3 C0 2.01 0 1.02 0 0 Z " fill="#161616" transform="translate(210,378)"/>
<path d="M0 0 C5.61 0 11.22 0 17 0 C17 0.99 17 1.98 17 3 C11.39 3 5.78 3 0 3 C0 2.01 0 1.02 0 0 Z " fill="#161616" transform="translate(189,378)"/>
<path d="M0 0 C0.99 0.33 1.98 0.66 3 1 C4.1875 4.0625 4.1875 4.0625 5 7 C5.99 5.02 6.98 3.04 8 1 C8.66 1 9.32 1 10 1 C9.01 4.63 8.02 8.26 7 12 C5.68 11.67 4.36 11.34 3 11 C2.01 7.37 1.02 3.74 0 0 Z " fill="#161616" transform="translate(60,273)"/>
<path d="M0 0 C1.98 0 3.96 0 6 0 C6.75 1.75 6.75 1.75 7 4 C5.0625 6.25 5.0625 6.25 3 8 C4.32 8.33 5.64 8.66 7 9 C7 9.66 7 10.32 7 11 C4.36 11 1.72 11 -1 11 C-0.52797514 6.75177626 1.96655518 4.80010291 5 2 C3.35 2.33 1.7 2.66 0 3 C0 2.01 0 1.02 0 0 Z " fill="#1C1C1C" transform="translate(232,90)"/>
<path d="M0 0 C0.77675511 3.39830361 1.19382275 6.51119051 1 10 C0 11 0 11 -2.4375 11.25 C-3.283125 11.1675 -4.12875 11.085 -5 11 C-5.66 10.01 -6.32 9.02 -7 8 C-4.03 8.495 -4.03 8.495 -1 9 C-1 8.01 -1 7.02 -1 6 C-1.99 6 -2.98 6 -4 6 C-4 4 -4 4 -2 2 C-3.32 2 -4.64 2 -6 2 C-6 1.34 -6 0.68 -6 0 C-3.50907189 -1.24546405 -2.58919267 -0.7767578 0 0 Z " fill="#161616" transform="translate(630,411)"/>
<path d="M0 0 C0.77675511 3.39830361 1.19382275 6.51119051 1 10 C0 11 0 11 -2.4375 11.25 C-3.283125 11.1675 -4.12875 11.085 -5 11 C-5.66 10.01 -6.32 9.02 -7 8 C-4.03 8.495 -4.03 8.495 -1 9 C-1 8.01 -1 7.02 -1 6 C-1.99 6 -2.98 6 -4 6 C-4 4 -4 4 -2 2 C-3.32 2 -4.64 2 -6 2 C-6 1.34 -6 0.68 -6 0 C-3.50907189 -1.24546405 -2.58919267 -0.7767578 0 0 Z " fill="#161616" transform="translate(630,256)"/>
<path d="M0 0 C1.98 0 3.96 0 6 0 C5.979375 0.721875 5.95875 1.44375 5.9375 2.1875 C5.91643458 5.00835294 5.91643458 5.00835294 6.5625 7.75 C6.706875 8.4925 6.85125 9.235 7 10 C6 11 6 11 2.9375 11.0625 C1.968125 11.041875 0.99875 11.02125 0 11 C-0.33 10.01 -0.66 9.02 -1 8 C1.475 8.495 1.475 8.495 4 9 C4 8.01 4 7.02 4 6 C3.01 6 2.02 6 1 6 C1 5.34 1 4.68 1 4 C1.99 4 2.98 4 4 4 C4 3.01 4 2.02 4 1 C2.35 1.33 0.7 1.66 -1 2 C-0.67 1.34 -0.34 0.68 0 0 Z " fill="#1D1D1D" transform="translate(470,90)"/>
<path d="M0 0 C1.98 0 3.96 0 6 0 C5.979375 0.721875 5.95875 1.44375 5.9375 2.1875 C5.91643458 5.00835294 5.91643458 5.00835294 6.5625 7.75 C6.706875 8.4925 6.85125 9.235 7 10 C6 11 6 11 2.9375 11.0625 C1.968125 11.041875 0.99875 11.02125 0 11 C-0.33 10.01 -0.66 9.02 -1 8 C1.475 8.495 1.475 8.495 4 9 C4 8.01 4 7.02 4 6 C3.01 6 2.02 6 1 6 C1 5.34 1 4.68 1 4 C1.99 4 2.98 4 4 4 C4 3.01 4 2.02 4 1 C2.35 1.33 0.7 1.66 -1 2 C-0.67 1.34 -0.34 0.68 0 0 Z " fill="#1D1D1D" transform="translate(212,90)"/>
<path d="M0 0 C0 3.3 0 6.6 0 10 C0.66 10 1.32 10 2 10 C2 10.66 2 11.32 2 12 C-0.31 12 -2.62 12 -5 12 C-5 11.34 -5 10.68 -5 10 C-4.34 10 -3.68 10 -3 10 C-3 7.69 -3 5.38 -3 3 C-3.66 3 -4.32 3 -5 3 C-5 2.34 -5 1.68 -5 1 C-3 0 -3 0 0 0 Z " fill="#323232" transform="translate(79,89)"/>
<path d="M0 0 C1.98 0 3.96 0 6 0 C4.68 0.33 3.36 0.66 2 1 C2 1.66 2 2.32 2 3 C3.32 3.33 4.64 3.66 6 4 C7.125 8.75 7.125 8.75 6 11 C4.02 11 2.04 11 0 11 C-0.33 10.01 -0.66 9.02 -1 8 C1.97 8.495 1.97 8.495 5 9 C4.67 8.01 4.34 7.02 4 6 C2.68 6 1.36 6 0 6 C0 4.02 0 2.04 0 0 Z " fill="#212121" transform="translate(645,256)"/>
<path d="M0 0 C1.32 0 2.64 0 4 0 C4 1.98 4 3.96 4 6 C2.0625 6.5625 2.0625 6.5625 0 7 C-1 6 -1 6 -1.125 3.5 C-1 1 -1 1 0 0 Z " fill="#E4E4E4" transform="translate(636,413)"/>
<path d="M0 0 C0.99 0.33 1.98 0.66 3 1 C3 3.31 3 5.62 3 8 C2.34 8 1.68 8 1 8 C0.67 8.66 0.34 9.32 0 10 C-0.66 9.67 -1.32 9.34 -2 9 C-1.34 6.03 -0.68 3.06 0 0 Z " fill="#ECECEC" transform="translate(73,91)"/>
<path d="M0 0 C1.32 0 2.64 0 4 0 C4 1.98 4 3.96 4 6 C2.0625 6.5625 2.0625 6.5625 0 7 C-1 6 -1 6 -1.125 3.5 C-1 1 -1 1 0 0 Z " fill="#E4E4E4" transform="translate(461,92)"/>
<path d="M0 0 C0.33 0 0.66 0 1 0 C1 1.98 1 3.96 1 6 C2.32 5.67 3.64 5.34 5 5 C5.33 6.32 5.66 7.64 6 9 C3.36 9 0.72 9 -2 9 C-2.25 3.375 -2.25 3.375 0 0 Z " fill="#C5C5C5" transform="translate(644,256)"/>
<path d="M0 0 C1.890625 0.21484375 1.890625 0.21484375 4 1 C5.046875 3.06640625 5.046875 3.06640625 5.75 5.5625 C5.99234375 6.38878906 6.2346875 7.21507812 6.484375 8.06640625 C6.65453125 8.70449219 6.8246875 9.34257812 7 10 C6.01 10 5.02 10 4 10 C3.67 8.02 3.34 6.04 3 4 C2.01 4 1.02 4 0 4 C0 2.68 0 1.36 0 0 Z " fill="#646464" transform="translate(76,455)"/>
<path d="M0 0 C1.890625 0.21484375 1.890625 0.21484375 4 1 C5.046875 3.06640625 5.046875 3.06640625 5.75 5.5625 C5.99234375 6.38878906 6.2346875 7.21507812 6.484375 8.06640625 C6.65453125 8.70449219 6.8246875 9.34257812 7 10 C6.01 10 5.02 10 4 10 C3.67 8.02 3.34 6.04 3 4 C2.01 4 1.02 4 0 4 C0 2.68 0 1.36 0 0 Z " fill="#646464" transform="translate(74,275)"/>
<path d="M0 0 C0.99 0.33 1.98 0.66 3 1 C3 3.31 3 5.62 3 8 C1.68 8 0.36 8 -1 8 C-1.04241723 5.66705225 -1.04092937 3.33297433 -1 1 C-0.67 0.67 -0.34 0.34 0 0 Z " fill="#EEEEEE" transform="translate(637,100)"/>
<path d="M0 0 C0.99 0.33 1.98 0.66 3 1 C3 3.31 3 5.62 3 8 C1.68 8 0.36 8 -1 8 C-1.04241723 5.66705225 -1.04092937 3.33297433 -1 1 C-0.67 0.67 -0.34 0.34 0 0 Z " fill="#EEEEEE" transform="translate(224,91)"/>
<path d="M0 0 C0.99 0.33 1.98 0.66 3 1 C3 2.98 3 4.96 3 7 C1.68 7.33 0.36 7.66 -1 8 C-1.04241723 5.66705225 -1.04092937 3.33297433 -1 1 C-0.67 0.67 -0.34 0.34 0 0 Z " fill="#F1F1F1" transform="translate(637,257)"/>
<path d="M0 0 C1.32 0 2.64 0 4 0 C4 2.31 4 4.62 4 7 C2.68 6.67 1.36 6.34 0 6 C0 4.02 0 2.04 0 0 Z " fill="#F4F4F4" transform="translate(65,92)"/>
<path d="M0 0 C0.99 0 1.98 0 3 0 C3 1.98 3 3.96 3 6 C2.34 5.01 1.68 4.02 1 3 C0.67 4.65 0.34 6.3 0 8 C-1.32 8 -2.64 8 -4 8 C-2.87548273 5.0280615 -1.77706209 2.66559313 0 0 Z " fill="#111111" transform="translate(648,99)"/>
<path d="M0 0 C-1.24546405 3.73639216 -2.63404953 4.18756513 -6 6 C-6.33 4.35 -6.66 2.7 -7 1 C-4 0 -4 0 0 0 Z " fill="#F1F1F1" transform="translate(237,92)"/>
<path d="M0 0 C1.98 0 3.96 0 6 0 C7.125 3.75 7.125 3.75 6 6 C4.68 5.67 3.36 5.34 2 5 C2.99 4.01 3.98 3.02 5 2 C3.35 2.33 1.7 2.66 0 3 C0 2.01 0 1.02 0 0 Z " fill="#292929" transform="translate(232,90)"/>
<path d="M0 0 C0.94875 0.04125 1.8975 0.0825 2.875 0.125 C2.875 0.785 2.875 1.445 2.875 2.125 C1.699375 2.2178125 1.699375 2.2178125 0.5 2.3125 C-0.36625 2.580625 -1.2325 2.84875 -2.125 3.125 C-3.49966625 5.60136012 -3.49966625 5.60136012 -4.125 8.125 C-4.455 8.125 -4.785 8.125 -5.125 8.125 C-5.25 5.25 -5.25 5.25 -5.125 2.125 C-3.125 0.125 -3.125 0.125 0 0 Z " fill="#333333" transform="translate(649.125,410.875)"/>
<path d="M0 0 C3 1 3 1 3.94921875 2.84765625 C4.19285156 3.57855469 4.43648438 4.30945313 4.6875 5.0625 C4.93886719 5.79597656 5.19023438 6.52945312 5.44921875 7.28515625 C5.63097656 7.85105469 5.81273438 8.41695313 6 9 C4.68 8.67 3.36 8.34 2 8 C1.34 5.36 0.68 2.72 0 0 Z " fill="#2E2E2E" transform="translate(62,453)"/>
<path d="M0 0 C3 1 3 1 3.94921875 2.84765625 C4.19285156 3.57855469 4.43648438 4.30945313 4.6875 5.0625 C4.93886719 5.79597656 5.19023438 6.52945312 5.44921875 7.28515625 C5.63097656 7.85105469 5.81273438 8.41695313 6 9 C4.68 8.67 3.36 8.34 2 8 C1.34 5.36 0.68 2.72 0 0 Z " fill="#2E2E2E" transform="translate(60,273)"/>
<path d="M0 0 C0.66 0 1.32 0 2 0 C1.67 1.65 1.34 3.3 1 5 C-0.98 5 -2.96 5 -5 5 C-5.33 4.01 -5.66 3.02 -6 2 C-3.03 2.495 -3.03 2.495 0 3 C0 2.01 0 1.02 0 0 Z " fill="#1B1B1B" transform="translate(650,262)"/>
<path d="M0 0 C0.25 5.625 0.25 5.625 -2 9 C-3.32 8.34 -4.64 7.68 -6 7 C-5.01 7 -4.02 7 -3 7 C-3 5.02 -3 3.04 -3 1 C-1 0 -1 0 0 0 Z " fill="#454545" transform="translate(643,101)"/>
<path d="M0 0 C0.25 5.625 0.25 5.625 -2 9 C-3.32 8.34 -4.64 7.68 -6 7 C-5.01 7 -4.02 7 -3 7 C-3 5.02 -3 3.04 -3 1 C-1 0 -1 0 0 0 Z " fill="#454545" transform="translate(230,92)"/>
<path d="M0 0 C0.33 1.32 0.66 2.64 1 4 C0.01 4 -0.98 4 -2 4 C-2 3.34 -2 2.68 -2 2 C-3.32 2 -4.64 2 -6 2 C-6 1.34 -6 0.68 -6 0 C-3.50907189 -1.24546405 -2.58919267 -0.7767578 0 0 Z " fill="#2B2B2B" transform="translate(630,411)"/>
<path d="M0 0 C0.33 1.32 0.66 2.64 1 4 C0.01 4 -0.98 4 -2 4 C-2 3.34 -2 2.68 -2 2 C-3.32 2 -4.64 2 -6 2 C-6 1.34 -6 0.68 -6 0 C-3.50907189 -1.24546405 -2.58919267 -0.7767578 0 0 Z " fill="#2B2B2B" transform="translate(630,256)"/>
<path d="M0 0 C1.65 0 3.3 0 5 0 C4.67 1.98 4.34 3.96 4 6 C3.01 6 2.02 6 1 6 C0.67 4.02 0.34 2.04 0 0 Z " fill="#A8A8A8" transform="translate(646,414)"/>
<path d="M0 0 C1.32 0.33 2.64 0.66 4 1 C4.33 2.32 4.66 3.64 5 5 C3.68 5 2.36 5 1 5 C0.67 3.35 0.34 1.7 0 0 Z " fill="#6E6E6E" transform="translate(53,456)"/>
<path d="M0 0 C1.9375 0.375 1.9375 0.375 4 1 C5.43088528 3.86177057 4.59991697 5.93375773 4 9 C3.67 9 3.34 9 3 9 C3 7.02 3 5.04 3 3 C2.01 3 1.02 3 0 3 C0 2.01 0 1.02 0 0 Z " fill="#565656" transform="translate(66,89)"/>
<path d="M0 0 C0.66 0 1.32 0 2 0 C2 1.32 2 2.64 2 4 C2.99 4 3.98 4 5 4 C5 4.66 5 5.32 5 6 C3.35 5.67 1.7 5.34 0 5 C0 3.35 0 1.7 0 0 Z " fill="#141414" transform="translate(645,416)"/>
</svg>
