<?xml version="1.0" encoding="UTF-8"?>
<svg id="floorplan" version="1.1" xmlns="http://www.w3.org/2000/svg" width="1882" height="981">
<path d="M0 0 C621.06 0 1242.12 0 1882 0 C1882 323.73 1882 647.46 1882 981 C1260.94 981 639.88 981 0 981 C0 657.27 0 333.54 0 0 Z " fill="#0C0B0B" transform="translate(0,0)"/>
<path d="M0 0 C33.33 0 66.66 0 101 0 C101.33 184.14 101.66 368.28 102 558 C189.45 558 276.9 558 367 558 C367 373.86 367 189.72 367 0 C399.34 0 431.68 0 465 0 C465 53.13 465 106.26 465 161 C605.91 161 746.82 161 892 161 C892 107.87 892 54.74 892 0 C905.2 0 918.4 0 932 0 C932 35.97 932 71.94 932 109 C984.47 109 1036.94 109 1091 109 C1091 73.03 1091 37.06 1091 0 C1094.63 0 1098.26 0 1102 0 C1102 35.97 1102 71.94 1102 109 C1154.47 109 1206.94 109 1261 109 C1261 73.03 1261 37.06 1261 0 C1271.56 0 1282.12 0 1293 0 C1293 159.06 1293 318.12 1293 482 C1334.58 482 1376.16 482 1419 482 C1419 600.8 1419 719.6 1419 842 C1246.08 842 1073.16 842 895 842 C895 814.94 895 787.88 895 760 C893.68 760 892.36 760 891 760 C891 768.91 891 777.82 891 787 C878.13 787 865.26 787 852 787 C852 777.43 852 767.86 852 758 C851.01 758 850.02 758 849 758 C849 785.72 849 813.44 849 842 C729.87 842 610.74 842 488 842 C488 814.61 488 787.22 488 759 C487.01 759 486.02 759 485 759 C485 767.91 485 776.82 485 786 C470.81 786 456.62 786 442 786 C442 778.41 442 770.82 442 763 C441.01 763 440.02 763 439 763 C439 789.07 439 815.14 439 842 C414.91 842 390.82 842 366 842 C366 816.92 366 791.84 366 766 C365.01 766 364.02 766 363 766 C362.505 704.125 362.505 704.125 362 641 C281.15 641 200.3 641 117 641 C117 641.99 117 642.98 117 644 C116.34 644 115.68 644 115 644 C115 683.27 115 722.54 115 763 C101.47 763 87.94 763 74 763 C74 763.66 74 764.32 74 765 C72.68 765 71.36 765 70 765 C70 787.77 70 810.54 70 834 C56.14 834 42.28 834 28 834 C28 806.28 28 778.56 28 750 C27.01 750 26.02 750 25 750 C25 768.15 25 786.3 25 805 C15.76 805 6.52 805 -3 805 C-3 724.81 -3 644.62 -3 562 C-2.34 562 -1.68 562 -1 562 C-0.67 376.54 -0.34 191.08 0 0 Z " fill="#FEFEFE" transform="translate(455,11)"/>
<path d="M0 0 C100.98 0 201.96 0 306 0 C306 155.76 306 311.52 306 472 C226.14 472 146.28 472 64 472 C63.67 476.95 63.34 481.9 63 487 C60.0175732 488.4912134 56.97381375 488.12999634 53.70458984 488.11352539 C52.94111048 488.11364593 52.17763111 488.11376646 51.39101601 488.11389065 C48.91429376 488.11314296 46.43764632 488.10552127 43.9609375 488.09765625 C42.43400102 488.09618638 40.90706404 488.09516595 39.38012695 488.09460449 C33.71174363 488.08935678 28.04337108 488.07539563 22.375 488.0625 C3.379375 488.0315625 3.379375 488.0315625 -16 488 C-16 515.72 -16 543.44 -16 572 C-151.96 572 -287.92 572 -428 572 C-427.67 410.3 -427.34 248.6 -427 82 C-426.34 82 -425.68 82 -425 82 C-425 81.34 -425 80.68 -425 80 C-285.41 80 -145.82 80 -2 80 C-1.67 80.66 -1.34 81.32 -1 82 C-0.67 54.94 -0.34 27.88 0 0 Z " fill="#3D3F47" transform="translate(1403,168)"/>
<path id="1" d="M0 0 C0.33 0 0.66 0 1 0 C1 185.46 1 370.92 1 562 C120.79 562 240.58 562 364 562 C364 642.19 364 722.38 364 805 C218.14 805 72.28 805 -78 805 C-78 706.66 -78 608.32 -78 507 C-77.67 507 -77.34 507 -77 507 C-77 525.15 -77 543.3 -77 562 C-51.59 562 -26.18 562 0 562 C0 376.54 0 191.08 0 0 Z " fill="#FD4949" transform="translate(87,11)"/>
<path d="M0 0 C86.13 0 172.26 0 261 0 C261 119.46 261 238.92 261 362 C174.87 362 88.74 362 0 362 C0 242.54 0 123.08 0 0 Z " fill="#FDFDFD" transform="translate(558,205)"/>
<path id="2" d="M0 0 C79.53 0 159.06 0 241 0 C241.2165625 36.444375 241.2165625 36.444375 241.4375 73.625 C241.5718556 95.84571812 241.5718556 95.84571812 241.7109375 118.06640625 C241.71942128 119.40123893 241.71942128 119.40123893 241.72807646 120.76303792 C241.88403974 145.24728094 242.06019362 169.73116679 242.2890625 194.21484375 C242.30066721 195.45921204 242.31227192 196.70358032 242.32422829 197.98565674 C242.42105198 208.30577536 242.52032244 218.6258669 242.62960815 228.94586182 C242.64060767 229.98794863 242.65160719 231.03003544 242.66294003 232.10370064 C242.68291523 233.9824415 242.70318387 235.86117929 242.72390842 237.73991203 C243.04184692 267.49722287 243 297.23673044 243 327 C162.81 327 82.62 327 0 327 C0 219.09 0 111.18 0 0 Z " fill="#FEFEFE" transform="translate(979,410)"/>
<path d="M0 0 C120.12 0 240.24 0 364 0 C363.34 0.33 362.68 0.66 362 1 C362 81.19 362 161.38 362 244 C371.24 244 380.48 244 390 244 C390 225.85 390 207.7 390 189 C390.33 189 390.66 189 391 189 C391 256.98 391 324.96 391 395 C391.66 395 392.32 395 393 395 C393 386.42 393 377.84 393 369 C406.86 369 420.72 369 435 369 C435 377.91 435 386.82 435 396 C264.39 396 93.78 396 -82 396 C-82 345.84 -82 295.68 -82 244 C64.19 244 210.38 244 361 244 C361 163.81 361 83.62 361 1 C241.87 1 122.74 1 0 1 C0 0.67 0 0.34 0 0 Z " fill="#9E9FA9" transform="translate(90,572)"/>
<path id="7" d="M0 0 C119.46 0 238.92 0 362 0 C362 65.67 362 131.34 362 199 C242.54 199 123.08 199 0 199 C0 133.33 0 67.66 0 0 Z " fill="#FEFEFE" transform="translate(90,189)"/>
<path d="M0 0 C79.2 0 158.4 0 240 0 C240 80.19 240 160.38 240 243 C214.59 243 189.18 243 163 243 C163 243.66 163 244.32 163 245 C162.34 245 161.68 245 161 245 C161 272.06 161 299.12 161 327 C108.53 327 56.06 327 2 327 C1.45856376 282.29283655 1.45856376 282.29283655 1.2890625 266.09765625 C1.27759815 265.00251268 1.2661338 263.90736912 1.25432205 262.77903938 C0.94397347 232.87293314 0.70708819 202.96626028 0.48761183 173.05937004 C0.45584063 168.74519163 0.42314356 164.43102207 0.38911366 160.11686087 C-0.03008354 106.74230777 0 53.3788641 0 0 Z " fill="#FEFEFE" transform="translate(1223,410)"/>
<path d="M0 0 C138.6 0 277.2 0 420 0 C420 51.15 420 102.3 420 155 C281.4 155 142.8 155 0 155 C0 103.85 0 52.7 0 0 Z " fill="#FEFEFE" transform="translate(979,252)"/>
<path id="8" d="M0 0 C119.46 0 238.92 0 362 0 C362 59.07 362 118.14 362 179 C242.54 179 123.08 179 0 179 C0 119.93 0 60.86 0 0 Z " fill="#FDFDFD" transform="translate(90,391)"/>
<path id="6" d="M0 0 C119.46 0 238.92 0 362 0 C362 57.75 362 115.5 362 175 C242.54 175 123.08 175 0 175 C0 117.25 0 59.5 0 0 Z " fill="#FEFEFE" transform="translate(90,11)"/>
<path d="M0 0 C41.58 0 83.16 0 126 0 C126 159.06 126 318.12 126 482 C84.42 482 42.84 482 0 482 C0 322.94 0 163.88 0 0 Z " fill="#3C3E46" transform="translate(1748,11)"/>
<path d="M0 0 C172.92 0 345.84 0 524 0 C524 37.95 524 75.9 524 115 C351.08 115 178.16 115 0 115 C0 77.05 0 39.1 0 0 Z " fill="#FD4747" transform="translate(1350,853)"/>
<path id="9" d="M0 0 C92.4 0 184.8 0 280 0 C280 61.38 280 122.76 280 186 C187.6 186 95.2 186 0 186 C0 124.62 0 63.24 0 0 Z " fill="#9E9FAA" transform="translate(533,782)"/>
<path id="5" d="M0 0 C85.8 0 171.6 0 260 0 C260 63.03 260 126.06 260 191 C174.2 191 88.4 191 0 191 C0 127.97 0 64.94 0 0 Z " fill="#FEFEFE" transform="translate(559,11)"/>
<path d="M0 0 C25.08 0 50.16 0 76 0 C76 185.46 76 370.92 76 562 C50.59 562 25.18 562 -1 562 C-1.02122478 522.47650549 -1.02122478 522.47650549 -1.0255127 507.52993774 C-1.02578211 506.59363386 -1.02605152 505.65732998 -1.0263291 504.69265325 C-1.04731433 429.49530416 -0.98047958 354.29866179 -0.78125 279.1015625 C-0.77851342 278.06673371 -0.77577683 277.03190491 -0.77295732 275.96571767 C-0.70381488 249.85911867 -0.63012539 223.75253327 -0.55461788 197.64595199 C-0.51099997 182.54929014 -0.46871629 167.45262493 -0.42724609 152.35595703 C-0.4242591 151.26871439 -0.4212721 150.18147174 -0.41819459 149.06128235 C-0.40319335 143.59859079 -0.38821276 138.13589917 -0.37324238 132.67320752 C-0.25202038 88.44879559 -0.12688571 44.22439611 0 0 Z " fill="#FEFEFE" transform="translate(11,11)"/>
<path d="M0 0 C119.13 0 238.26 0 361 0 C361 37.95 361 75.9 361 115 C241.87 115 122.74 115 0 115 C0 77.05 0 39.1 0 0 Z " fill="#FC4747" transform="translate(943,853)"/>
<path id="4" d="M0 0 C70.95 0 141.9 0 215 0 C215.33 52.14 215.66 104.28 216 158 C144.72 158 73.44 158 0 158 C0 105.86 0 53.72 0 0 Z " fill="#FEFEFE" transform="translate(924,11)"/>
<path id="3" d="M0 0 C66.66 0 133.32 0 202 0 C202 52.14 202 104.28 202 158 C135.67 158 69.34 158 1 158 C0.07614705 105.34038184 0 52.66772151 0 0 Z " fill="#FEFEFE" transform="translate(1142,11)"/>
<path d="M0 0 C79.86 0 159.72 0 242 0 C242 39.27 242 78.54 242 119 C162.14 119 82.28 119 0 119 C0 79.73 0 40.46 0 0 Z " fill="#FEFEFE" transform="translate(573,655)"/>
<path d="M0 0 C5.79042635 4.80997199 11.11389049 9.97800652 16.42358398 15.31005859 C17.3414418 16.22777039 18.25929962 17.14548218 19.20497131 18.09100342 C21.70258812 20.58833522 24.197126 23.08872158 26.69109225 25.58969831 C29.30511998 28.21000926 31.92201063 30.82745794 34.53858948 33.44522095 C39.48443695 38.39416715 44.4277314 43.34565522 49.37009722 48.29807818 C55.00057054 53.93975807 60.6339092 59.57857317 66.26748168 65.21715808 C77.84816263 76.80827038 89.42526815 88.40294693 101 100 C96.19002801 105.79042635 91.02199348 111.11389049 85.68994141 116.42358398 C84.77222961 117.3414418 83.85451782 118.25929962 82.90899658 119.20497131 C80.41166478 121.70258812 77.91127842 124.197126 75.41030169 126.69109225 C72.78999074 129.30511998 70.17254206 131.92201063 67.55477905 134.53858948 C62.60583285 139.48443695 57.65434478 144.4277314 52.70192182 149.37009722 C47.06024193 155.00057054 41.42142683 160.6339092 35.78284192 166.26748168 C24.19172962 177.84816263 12.59705307 189.42526815 1 201 C-4.79042635 196.19002801 -10.11389049 191.02199348 -15.42358398 185.68994141 C-16.3414418 184.77222961 -17.25929962 183.85451782 -18.20497131 182.90899658 C-20.70258812 180.41166478 -23.197126 177.91127842 -25.69109225 175.41030169 C-28.30511998 172.78999074 -30.92201063 170.17254206 -33.53858948 167.55477905 C-38.48443695 162.60583285 -43.4277314 157.65434478 -48.37009722 152.70192182 C-54.00057054 147.06024193 -59.6339092 141.42142683 -65.26748168 135.78284192 C-76.84816263 124.19172962 -88.42526815 112.59705307 -100 101 C-95.19002801 95.20957365 -90.02199348 89.88610951 -84.68994141 84.57641602 C-83.77222961 83.6585582 -82.85451782 82.74070038 -81.90899658 81.79502869 C-79.41166478 79.29741188 -76.91127842 76.802874 -74.41030169 74.30890775 C-71.78999074 71.69488002 -69.17254206 69.07798937 -66.55477905 66.46141052 C-61.60583285 61.51556305 -56.65434478 56.5722686 -51.70192182 51.62990278 C-46.06024193 45.99942946 -40.42142683 40.3660908 -34.78284192 34.73251832 C-23.19172962 23.15183737 -11.59705307 11.57473185 0 0 Z " fill="#FCFCFC" transform="translate(688,284)"/>
<path d="M0 0 C52.47 0 104.94 0 159 0 C159 35.97 159 71.94 159 109 C106.53 109 54.06 109 0 109 C0 73.03 0 37.06 0 0 Z " fill="#3D3F47" transform="translate(1557,11)"/>
<path d="M0 0 C52.47 0 104.94 0 159 0 C159 35.97 159 71.94 159 109 C106.53 109 54.06 109 0 109 C0 73.03 0 37.06 0 0 Z " fill="#3D3F47" transform="translate(1387,11)"/>
<path d="M0 0 C295.02 0 590.04 0 894 0 C894 1.32 894 2.64 894 4 C894.99 4 895.98 4 897 4 C897 2.68 897 1.36 897 0 C1045.17 0 1193.34 0 1346 0 C1346 0.66 1346 1.32 1346 2 C1347.32 2 1348.64 2 1350 2 C1350 1.34 1350 0.68 1350 0 C1525.56 0 1701.12 0 1882 0 C1882 1.65 1882 3.3 1882 5 C1260.94 5 639.88 5 0 5 C0 3.35 0 1.7 0 0 Z " fill="#FEFEFE" transform="translate(0,976)"/>
<path d="M0 0 C0.33 0 0.66 0 1 0 C1 25.08 1 50.16 1 76 C25.09 76 49.18 76 74 76 C74 113.95 74 151.9 74 191 C49.58 191 25.16 191 0 191 C0 127.97 0 64.94 0 0 Z " fill="#FA4747" transform="translate(820,777)"/>
<path d="M0 0 C139.59 0 279.18 0 423 0 C424.40085579 2.80171158 424.12273896 5.10342947 424.12025452 8.23880005 C424.12153615 9.20916523 424.12153615 9.20916523 424.12284368 10.19913375 C424.12449662 12.37643596 424.11898016 14.55366187 424.11352539 16.73095703 C424.11324345 18.28788247 424.11340138 19.84480804 424.1139679 21.4017334 C424.11425561 25.63702866 424.10836302 29.87229578 424.10139394 34.10758448 C424.09515613 38.53053299 424.09455626 42.95348209 424.09336853 47.37643433 C424.09025648 55.75579183 424.08204478 64.13513633 424.07201904 72.5144881 C424.060854 82.05244071 424.05534647 91.59039393 424.05032361 101.12835145 C424.03986207 120.75224156 424.02226505 140.37611996 424 160 C424.75755081 159.99777939 425.51510162 159.99555878 426.29560852 159.99327087 C433.4320035 159.97324051 440.56838486 159.95801183 447.70480061 159.94818783 C451.37376924 159.94296745 455.04271465 159.93588511 458.71166992 159.92456055 C462.25187089 159.91370168 465.79204952 159.90771678 469.33226585 159.90512276 C471.34141655 159.90237367 473.35055825 159.8945664 475.35969543 159.88670349 C476.58073471 159.88662796 477.80177399 159.88655243 479.05981445 159.88647461 C480.67530937 159.88314369 480.67530937 159.88314369 482.32344055 159.87974548 C485 160 485 160 488 161 C488 242.18 488 323.36 488 407 C485.0175732 408.4912134 481.97381375 408.12999634 478.70458984 408.11352539 C477.94111048 408.11364593 477.17763111 408.11376646 476.39101601 408.11389065 C473.91429376 408.11314296 471.43764632 408.10552127 468.9609375 408.09765625 C467.43400102 408.09618638 465.90706404 408.09516595 464.38012695 408.09460449 C458.71174363 408.08935678 453.04337108 408.07539563 447.375 408.0625 C428.379375 408.0315625 428.379375 408.0315625 409 408 C409 435.72 409 463.44 409 492 C273.04 492 137.08 492 -3 492 C-2.67 330.3 -2.34 168.6 -2 2 C-1.34 2 -0.68 2 0 2 C0 1.34 0 0.68 0 0 Z M1 4 C1 55.15 1 106.3 1 159 C139.6 159 278.2 159 421 159 C421 107.85 421 56.7 421 4 C282.4 4 143.8 4 1 4 Z M1 162 C1 269.91 1 377.82 1 489 C81.19 489 161.38 489 244 489 C244.01646111 443.06032993 244.01646111 443.06032993 243.69506836 397.12548828 C243.6731673 395.06561365 243.65135072 393.00573812 243.62960815 390.94586182 C243.61856426 389.90297249 243.60752037 388.86008316 243.59614182 387.78559113 C243.48630008 377.26208302 243.38720353 366.73846645 243.2890625 356.21484375 C243.27733191 354.95994141 243.26560131 353.70503906 243.25351524 352.41210938 C243.0303162 328.29715171 242.86420813 304.18189934 242.7109375 280.06640625 C242.70286158 278.79804841 242.70286158 278.79804841 242.69462252 277.50406718 C242.44992014 239.00279567 242.22878569 200.50136355 242 162 C162.47 162 82.94 162 1 162 Z M245 162 C244.98896438 242.99517 244.98896438 242.99517 245.40385818 323.98610687 C245.43871128 328.43809547 245.47169228 332.89009698 245.50436401 337.34210205 C245.72673136 367.59432975 245.97238013 397.84624868 246.2890625 428.09765625 C246.29969097 429.11316496 246.31031944 430.12867367 246.32126999 431.17495537 C246.52493933 450.45024801 246.76656613 469.72503158 247 489 C299.47 489 351.94 489 406 489 C406 461.94 406 434.88 406 407 C406.66 407 407.32 407 408 407 C408 406.34 408 405.68 408 405 C433.41 405 458.82 405 485 405 C485 324.81 485 244.62 485 162 C405.8 162 326.6 162 245 162 Z " fill="#1B1B1B" transform="translate(978,248)"/>
<path d="M0 0 C618.42 0 1236.84 0 1874 0 C1874 0.99 1874 1.98 1874 3 C1560.17 3 1246.34 3 923 3 C923 2.34 923 1.68 923 1 C922.01 1 921.02 1 920 1 C920 1.66 920 2.32 920 3 C616.4 3 312.8 3 0 3 C0 2.01 0 1.02 0 0 Z " fill="#FEFEFE" transform="translate(0,0)"/>
<path d="M0 0 C14.19 0 28.38 0 43 0 C43 25.08 43 50.16 43 76 C28.81 76 14.62 76 0 76 C0 50.92 0 25.84 0 0 Z " fill="#FB4747" transform="translate(897,892)"/>
<path d="M0 0 C13.53 0 27.06 0 41 0 C41 24.75 41 49.5 41 75 C27.47 75 13.94 75 0 75 C0 50.25 0 25.5 0 0 Z " fill="#F64545" transform="translate(1306,893)"/>
<path d="M0 0 C304.92 0 609.84 0 924 0 C922.68 0.33 921.36 0.66 920 1 C920 1.66 920 2.32 920 3 C616.4 3 312.8 3 0 3 C0 2.01 0 1.02 0 0 Z " fill="#EAEAEA" transform="translate(0,0)"/>
<path d="M0 0 C5.79042635 4.80997199 11.11389049 9.97800652 16.42358398 15.31005859 C17.3414418 16.22777039 18.25929962 17.14548218 19.20497131 18.09100342 C21.70258812 20.58833522 24.197126 23.08872158 26.69109225 25.58969831 C29.30511998 28.21000926 31.92201063 30.82745794 34.53858948 33.44522095 C39.48443695 38.39416715 44.4277314 43.34565522 49.37009722 48.29807818 C55.00057054 53.93975807 60.6339092 59.57857317 66.26748168 65.21715808 C77.84816263 76.80827038 89.42526815 88.40294693 101 100 C96.19002801 105.79042635 91.02199348 111.11389049 85.68994141 116.42358398 C84.77222961 117.3414418 83.85451782 118.25929962 82.90899658 119.20497131 C80.41166478 121.70258812 77.91127842 124.197126 75.41030169 126.69109225 C72.78999074 129.30511998 70.17254206 131.92201063 67.55477905 134.53858948 C62.60583285 139.48443695 57.65434478 144.4277314 52.70192182 149.37009722 C47.06024193 155.00057054 41.42142683 160.6339092 35.78284192 166.26748168 C24.19172962 177.84816263 12.59705307 189.42526815 1 201 C-4.79042635 196.19002801 -10.11389049 191.02199348 -15.42358398 185.68994141 C-16.3414418 184.77222961 -17.25929962 183.85451782 -18.20497131 182.90899658 C-20.70258812 180.41166478 -23.197126 177.91127842 -25.69109225 175.41030169 C-28.30511998 172.78999074 -30.92201063 170.17254206 -33.53858948 167.55477905 C-38.48443695 162.60583285 -43.4277314 157.65434478 -48.37009722 152.70192182 C-54.00057054 147.06024193 -59.6339092 141.42142683 -65.26748168 135.78284192 C-76.84816263 124.19172962 -88.42526815 112.59705307 -100 101 C-95.19002801 95.20957365 -90.02199348 89.88610951 -84.68994141 84.57641602 C-83.77222961 83.6585582 -82.85451782 82.74070038 -81.90899658 81.79502869 C-79.41166478 79.29741188 -76.91127842 76.802874 -74.41030169 74.30890775 C-71.78999074 71.69488002 -69.17254206 69.07798937 -66.55477905 66.46141052 C-61.60583285 61.51556305 -56.65434478 56.5722686 -51.70192182 51.62990278 C-46.06024193 45.99942946 -40.42142683 40.3660908 -34.78284192 34.73251832 C-23.19172962 23.15183737 -11.59705307 11.57473185 0 0 Z M-1.71412849 7.46803284 C-2.40547323 8.16122116 -3.09681797 8.85440948 -3.80911255 9.56860352 C-4.60279236 10.359534 -5.39647217 11.15046448 -6.21420288 11.96536255 C-7.08598175 12.84433197 -7.95776062 13.72330139 -8.85595703 14.62890625 C-9.77308472 15.54574188 -10.6902124 16.46257751 -11.63513184 17.40719604 C-14.15596063 19.92744921 -16.67056024 22.45383708 -19.18412256 24.98133469 C-21.80976718 27.61945169 -24.44104763 30.25193485 -27.07174683 32.88500977 C-32.05517968 37.87466768 -37.03349089 42.86940356 -42.01000202 47.86596394 C-47.67468772 53.55297677 -53.34502938 59.2343357 -59.01586366 64.91521645 C-70.68356715 76.60384518 -82.34411336 88.29958724 -94 100 C-89.34908041 105.5856465 -84.39011637 110.74651353 -79.24072266 115.87280273 C-78.38153229 116.73213913 -77.52234192 117.59147552 -76.63711548 118.47685242 C-74.30050229 120.81289178 -71.96170553 123.14670241 -69.62187624 125.4795177 C-67.16972672 127.92538015 -64.72044313 130.37410926 -62.27084351 132.82252502 C-57.64064138 137.44962953 -53.00789799 142.07418085 -48.37421739 146.69780165 C-43.09528586 151.96552311 -37.81922216 157.236113 -32.54338765 162.50693595 C-21.69876118 173.3411336 -10.85057065 184.17175532 0 195 C2.86582561 193.69925914 4.9249081 192.32356531 7.14280701 190.09770203 C7.7384848 189.50477356 8.3341626 188.91184509 8.94789124 188.3009491 C9.58955734 187.65209244 10.23122345 187.00323578 10.89233398 186.3347168 C11.57739014 185.6499527 12.26244629 184.9651886 12.96826172 184.25967407 C15.23231177 181.9942306 17.48919163 179.72178145 19.74609375 177.44921875 C21.31979895 175.87178147 22.89394774 174.29478662 24.46852112 172.71821594 C28.61548558 168.56361385 32.75641425 164.40304591 36.89611816 160.24121094 C41.0996824 156.01725379 45.30884692 151.79888585 49.51757812 147.58007812 C56.32103767 140.75903554 63.12103455 133.93456376 69.9165802 127.1056366 C79.94200842 117.03179266 79.94200842 117.03179266 83.8046875 113.37109375 C85.16167902 112.06012423 86.51844563 110.74892186 87.875 109.4375 C88.57625 108.77814453 89.2775 108.11878906 90 107.43945312 C90.65742187 106.79814453 91.31484375 106.15683594 91.9921875 105.49609375 C92.89493408 104.63262329 92.89493408 104.63262329 93.81591797 103.75170898 C95.19727684 102.08080651 95.19727684 102.08080651 94.92260742 100.03662109 C93.75221798 97.45303053 92.26593522 95.91076398 90.24609375 93.91796875 C89.0869043 92.76651367 89.0869043 92.76651367 87.90429688 91.59179688 C87.09025391 90.79837891 86.27621094 90.00496094 85.4375 89.1875 C84.65052734 88.40568359 83.86355469 87.62386719 83.05273438 86.81835938 C78.74948517 82.57187191 74.36058768 78.47382533 69.76611328 74.54394531 C65.53226809 70.84269607 61.66945808 66.82321033 58.03442383 62.53710938 C52.96016515 56.71574566 47.46756652 51.30319848 42.01171875 45.84375 C40.8605901 44.68940257 39.70953443 43.53498237 38.55854797 42.38049316 C36.16245921 39.97845596 33.7643529 37.57845422 31.36499023 35.1796875 C28.28527415 32.10007389 25.2125451 29.01358634 22.14145184 25.92537689 C19.77461847 23.54746369 17.40329344 21.1740701 15.03064919 18.80195618 C13.89469685 17.66482175 12.7603704 16.52606075 11.62769127 15.38566589 C10.05294011 13.80117736 8.47205316 12.22307881 6.8894043 10.64648438 C5.99118454 9.7468396 5.09296478 8.84719482 4.16752625 7.92028809 C1.57065306 5.61962637 0.94835356 5.18780058 -1.71412849 7.46803284 Z " fill="#0C0C0C" transform="translate(688,284)"/>
<path d="M0 0 C0.99 0 1.98 0 3 0 C3.06423038 51.7545299 3.10238383 103.50906863 3.12371349 155.26363349 C3.12499465 158.36205595 3.12631299 161.46047839 3.12763214 164.55890083 C3.16834776 261.82738822 3.10079909 359.09544715 2.00902645 654.59108497 C1.99695725 657.47775405 1.98490697 660.36442322 1.97285606 663.25109238 C1.66285481 737.5007915 1.33918838 811.75042814 1 886 C0.67 886 0.34 886 0 886 C0 593.62 0 301.24 0 0 Z " fill="#E4E4E4" transform="translate(0,11)"/>
<path d="M0 0 C134.97 0 269.94 0 409 0 C409 0.99 409 1.98 409 3 C275.02 3 141.04 3 3 3 C3 18.84 3 34.68 3 51 C2.41964286 71.89285714 2.41964286 71.89285714 2 81 C1.01 81 0.02 81 -1 81 C-1.02609914 74.44686776 -1.04316652 67.89374958 -1.05493164 61.34057617 C-1.05985379 59.12735494 -1.06659129 56.91413675 -1.07543945 54.70092773 C-1.14646213 36.43138868 -0.58966591 18.27964333 0 0 Z " fill="#161616" transform="translate(1384,771)"/>
<path d="M0 0 C13.53 0 27.06 0 41 0 C41 5.61 41 11.22 41 17 C27.8 17 14.6 17 1 17 C1 17.66 1 18.32 1 19 C14.2 19 27.4 19 41 19 C41 24.61 41 30.22 41 36 C27.47 36 13.94 36 0 36 C0 24.12 0 12.24 0 0 Z " fill="#E3E3E3" transform="translate(1306,801)"/>
<path d="M0 0 C14.19 0 28.38 0 43 0 C43 5.28 43 10.56 43 16 C29.14 16 15.28 16 1 16 C1 16.99 1 17.98 1 19 C14.86 19 28.72 19 43 19 C43 24.28 43 29.56 43 35 C28.81 35 14.62 35 0 35 C0 23.45 0 11.9 0 0 Z " fill="#FCFCFC" transform="translate(897,800)"/>
<path d="M0 0 C0.33 0 0.66 0 1 0 C1 18.15 1 36.3 1 55 C14.53 55 28.06 55 42 55 C42 64.57 42 74.14 42 84 C28.14 84 14.28 84 0 84 C0 56.28 0 28.56 0 0 Z " fill="#9A9BA6" transform="translate(483,761)"/>
<path d="M0 0 C13.86 0 27.72 0 42 0 C42 5.28 42 10.56 42 16 C28.14 16 14.28 16 0 16 C0 10.72 0 5.44 0 0 Z " fill="#9A9BA5" transform="translate(483,921)"/>
<path d="M0 0 C13.53 0 27.06 0 41 0 C41 5.28 41 10.56 41 16 C27.47 16 13.94 16 0 16 C0 10.72 0 5.44 0 0 Z " fill="#9FA0AB" transform="translate(484,902)"/>
<path d="M0 0 C14.19 0 28.38 0 43 0 C43 4.95 43 9.9 43 15 C28.81 15 14.62 15 0 15 C0 10.05 0 5.1 0 0 Z " fill="#EE4242" transform="translate(897,874)"/>
<path d="M0 0 C14.19 0 28.38 0 43 0 C43 4.95 43 9.9 43 15 C28.81 15 14.62 15 0 15 C0 10.05 0 5.1 0 0 Z " fill="#F9F4F4" transform="translate(897,838)"/>
<path d="M0 0 C12.87 0 25.74 0 39 0 C39 5.28 39 10.56 39 16 C26.13 16 13.26 16 0 16 C0 10.72 0 5.44 0 0 Z " fill="#FDFDFD" transform="translate(1307,821)"/>
<path d="M0 0 C13.53 0 27.06 0 41 0 C41 4.95 41 9.9 41 15 C27.47 15 13.94 15 0 15 C0 10.05 0 5.1 0 0 Z " fill="#9D9EA8" transform="translate(484,884)"/>
<path d="M0 0 C13.53 0 27.06 0 41 0 C41 4.95 41 9.9 41 15 C27.47 15 13.94 15 0 15 C0 10.05 0 5.1 0 0 Z " fill="#F34343" transform="translate(1306,858)"/>
<path d="M0 0 C13.53 0 27.06 0 41 0 C41 4.95 41 9.9 41 15 C27.47 15 13.94 15 0 15 C0 10.05 0 5.1 0 0 Z " fill="#F9DCDC" transform="translate(1306,840)"/>
<path d="M0 0 C14.19 0 28.38 0 43 0 C43 4.62 43 9.24 43 14 C28.81 14 14.62 14 0 14 C0 9.38 0 4.76 0 0 Z " fill="#FD4646" transform="translate(897,857)"/>
<path d="M0 0 C13.53 0 27.06 0 41 0 C41 4.62 41 9.24 41 14 C27.47 14 13.94 14 0 14 C0 9.38 0 4.76 0 0 Z " fill="#F74444" transform="translate(1306,876)"/>
<path d="M0 0 C13.53 0 27.06 0 41 0 C41 4.62 41 9.24 41 14 C27.47 14 13.94 14 0 14 C0 9.38 0 4.76 0 0 Z " fill="#9FA0AB" transform="translate(484,866)"/>
<path d="M0 0 C13.53 0 27.06 0 41 0 C41 4.29 41 8.58 41 13 C27.47 13 13.94 13 0 13 C0 8.71 0 4.42 0 0 Z " fill="#9FA0AB" transform="translate(484,849)"/>
<path d="M0 0 C2.578125 -0.061875 5.15625 -0.12375 7.8125 -0.1875 C9.02450073 -0.22846802 9.02450073 -0.22846802 10.26098633 -0.27026367 C15.50142548 -0.33140542 15.50142548 -0.33140542 17.9921875 1.32421875 C19.55987432 3.9309538 19.30924427 6.03125501 19 9 C18.01 10.485 18.01 10.485 17 12 C17.66 12.53625 18.32 13.0725 19 13.625 C21 16 21 16 21.5625 18.9375 C20.79347287 23.12442548 19.33791715 24.3960751 16 27 C13.1900466 27.58928224 10.54222078 27.47703302 7.6875 27.3125 C5.150625 27.209375 2.61375 27.10625 0 27 C0 18.09 0 9.18 0 0 Z " fill="#060707" transform="translate(262,877)"/>
<path d="M0 0 C1.98 0 3.96 0 6 0 C6 10.23 6 20.46 6 31 C3 31 0 31 -3 31 C-4.299375 31.103125 -5.59875 31.20625 -6.9375 31.3125 C-10.04688507 31.27241585 -10.84681639 31.10722853 -13.5 29.25 C-15.82477367 24.21299038 -15.71487307 19.44808531 -15 14 C-13.5625 10.75 -13.5625 10.75 -11 9 C-7.94530221 8.56208878 -5.05538823 8.56617206 -2 9 C-1.67 9.33 -1.34 9.66 -1 10 C-0.67 6.7 -0.34 3.4 0 0 Z " fill="#0B0303" transform="translate(1154,887)"/>
<path d="M0 0 C1.98 0 3.96 0 6 0 C6.33 3.3 6.66 6.6 7 10 C7.33 9.67 7.66 9.34 8 9 C12.40812146 8.3741004 15.86190399 8.19500526 19.5625 10.8125 C21.69376823 15.53835565 21.65112835 19.89821784 21 25 C19.62747293 28.11937969 19.020457 29.4897715 16 31 C14.66830891 31.06935891 13.33331363 31.0845585 12 31.0625 C11.29875 31.05347656 10.5975 31.04445313 9.875 31.03515625 C9.25625 31.02355469 8.6375 31.01195312 8 31 C7.34 31 6.68 31 6 31 C4.02 31 2.04 31 0 31 C0 20.77 0 10.54 0 0 Z " fill="#070707" transform="translate(661,861)"/>
<path d="M0 0 C3.70222084 1.68282766 5.94320412 3.50228498 8 7 C8.3984375 10.4609375 8.3984375 10.4609375 8.375 14.375 C8.38273438 15.66148437 8.39046875 16.94796875 8.3984375 18.2734375 C7.97528496 22.23115833 7.10798204 24.64504266 5 28 C0.57709713 30.94860192 -3.81156543 30.80001312 -9 30 C-11.6875 27.5 -11.6875 27.5 -13 25 C-12.01 24.01 -11.02 23.02 -10 22 C-9.46375 22.33 -8.9275 22.66 -8.375 23 C-5.4608939 24.22699204 -3.13132292 24.14233286 0 24 C0.99 20.535 0.99 20.535 2 17 C1.46375 17.495 0.9275 17.99 0.375 18.5 C-2.74008151 20.4674199 -4.37170989 20.5923739 -8 20 C-11.1751431 17.9292545 -12.70059701 16.3732017 -13.51953125 12.6171875 C-13.74391467 9.12098076 -13.79941709 6.26668201 -11.890625 3.2421875 C-8.19222496 -0.23748996 -4.8624317 -0.70726279 0 0 Z " fill="#070708" transform="translate(700,862)"/>
<path d="M0 0 C1.65 0 3.3 0 5 0 C5 3.63 5 7.26 5 11 C5.99 10.34 6.98 9.68 8 9 C15.11864407 8.3220339 15.11864407 8.3220339 18.4375 10.875 C21.72676511 15.34840055 21.49351265 19.58837857 21 25 C18.97368421 29.51315789 18.97368421 29.51315789 16 31 C14.125 31.16796875 14.125 31.16796875 12 31.1875 C10.948125 31.20876953 10.948125 31.20876953 9.875 31.23046875 C8 31 8 31 6 29 C5.67 29.66 5.34 30.32 5 31 C3.35 31 1.7 31 0 31 C0 20.77 0 10.54 0 0 Z " fill="#050101" transform="translate(224,706)"/>
<path d="M0 0 C2.9375 1.625 2.9375 1.625 5 4 C5.60024477 7.60146865 5.45562482 9.27859404 3.5 12.375 C3.005 12.91125 2.51 13.4475 2 14 C3.32 14.66 4.64 15.32 6 16 C6.47323944 23.09859155 6.47323944 23.09859155 4.6875 26.5 C0.30194848 28.94774968 -4.10670629 28.71283186 -9 28 C-11.6875 26.5 -11.6875 26.5 -13 24 C-13.30004176 21.24172135 -13.18615699 18.79235483 -13 16 C-11.68 15.34 -10.36 14.68 -9 14 C-9.495 13.46375 -9.99 12.9275 -10.5 12.375 C-12.45562482 9.27859404 -12.60024477 7.60146865 -12 4 C-8.40147049 -0.14376125 -5.35124076 -0.76446297 0 0 Z " fill="#080808" transform="translate(291,457)"/>
<path d="M0 0 C1.98 0 3.96 0 6 0 C6.33 2.97 6.66 5.94 7 9 C7.66 8.67 8.32 8.34 9 8 C12.85633638 7.48582182 14.5518122 7.71744682 17.875 9.8125 C20.97777803 14.46666704 20.85591211 18.56292023 20 24 C18.5 27.1875 18.5 27.1875 16 29 C13.19802679 29.40977474 10.86432917 29.23099429 8 29 C7.34 29 6.68 29 6 29 C4.02 29 2.04 29 0 29 C0 19.43 0 9.86 0 0 Z " fill="#121212" transform="translate(251,280)"/>
<path d="M0 0 C2.35505285 1.10318158 3.96812002 2.33281642 6 4 C5.6875 5.9375 5.6875 5.9375 5 8 C4.01 8.33 3.02 8.66 2 9 C1.1028125 8.2884375 1.1028125 8.2884375 0.1875 7.5625 C-2.72509621 5.48207413 -4.49346563 5.55235731 -8 6 C-9.78007899 7.09130776 -9.78007899 7.09130776 -11 9 C-11.43887323 11.86685568 -11.43887323 11.86685568 -11.3125 15 C-11.30863281 16.051875 -11.30476562 17.10375 -11.30078125 18.1875 C-11.19759718 21.20527038 -11.19759718 21.20527038 -9 24 C-7.02252878 24.36297936 -7.02252878 24.36297936 -4.875 24.1875 C-3.59625 24.125625 -2.3175 24.06375 -1 24 C-0.34 22.35 0.32 20.7 1 19 C-1.31 19 -3.62 19 -6 19 C-6 17.35 -6 15.7 -6 14 C-1.71 14 2.58 14 7 14 C7 19.28 7 24.56 7 30 C5.02 30 3.04 30 1 30 C0.67 29.34 0.34 28.68 0 28 C-0.66 28.66 -1.32 29.32 -2 30 C-5.3839801 30.5689878 -8.61286032 30.53256913 -12 30 C-15.34625024 27.47323961 -16.67977847 25.96066458 -18 22 C-19.17692771 8.46533133 -19.17692771 8.46533133 -15.75 4.25 C-10.67275743 0.09589244 -6.494885 -0.96469794 0 0 Z " fill="#0E0303" transform="translate(1032,888)"/>
<path d="M0 0 C2.97 0 5.94 0 9 0 C10.50752893 4.26821354 12.00472959 8.53997809 13.5 12.8125 C13.92925781 14.02744141 14.35851562 15.24238281 14.80078125 16.49414062 C15.40986328 18.23920898 15.40986328 18.23920898 16.03125 20.01953125 C16.40830078 21.09307861 16.78535156 22.16662598 17.17382812 23.27270508 C18 26 18 26 18 29 C16.02 29 14.04 29 12 29 C11.34 27.02 10.68 25.04 10 23 C6.37 23 2.74 23 -1 23 C-1.66 24.98 -2.32 26.96 -3 29 C-4.98 29 -6.96 29 -9 29 C-7.6393319 22.24476394 -5.71290027 15.91424405 -3.375 9.4375 C-3.05015625 8.52419922 -2.7253125 7.61089844 -2.390625 6.66992188 C-1.59847955 4.4449251 -0.79991232 2.22221632 0 0 Z " fill="#070708" transform="translate(639,863)"/>
<path d="M0 0 C2.64 0 5.28 0 8 0 C10.61577256 6.26246725 12.97705804 12.60676057 15.25 19 C15.52021973 19.754021 15.79043945 20.50804199 16.06884766 21.28491211 C18 26.75982215 18 26.75982215 18 29 C15.69 29 13.38 29 11 29 C10.67 26.69 10.34 24.38 10 22 C6.04 22 2.08 22 -2 22 C-2.66 24.31 -3.32 26.62 -4 29 C-5.98 29 -7.96 29 -10 29 C-8.73849111 25.19076766 -7.47501857 21.38219296 -6.2097168 17.57421875 C-5.77948756 16.27850006 -5.34979683 14.98260245 -4.9206543 13.68652344 C-4.30398652 11.82440063 -3.68522569 9.96297138 -3.06640625 8.1015625 C-2.69459229 6.98088379 -2.32277832 5.86020508 -1.93969727 4.70556641 C-1 2 -1 2 0 0 Z " fill="#0C0303" transform="translate(202,708)"/>
<path d="M0 0 C1.65 0 3.3 0 5 0 C5.33 3.3 5.66 6.6 6 10 C6.66 9.34 7.32 8.68 8 8 C12.02104757 7.55321694 14.13756416 7.3191296 17.375 9.875 C20.34741572 13.76200518 20.51417812 17.22168952 20 22 C17.75 27.625 17.75 27.625 15 29 C8.52941176 29.35294118 8.52941176 29.35294118 5 27 C5 27.66 5 28.32 5 29 C3.35 29 1.7 29 0 29 C0 19.43 0 9.86 0 0 Z " fill="#060606" transform="translate(1088,558)"/>
<path d="M0 0 C1.65 0 3.3 0 5 0 C5.33 3.3 5.66 6.6 6 10 C6.66 9.34 7.32 8.68 8 8 C12.02104757 7.55321694 14.13756416 7.3191296 17.375 9.875 C20.34741572 13.76200518 20.51417812 17.22168952 20 22 C17.75 27.625 17.75 27.625 15 29 C8.52941176 29.35294118 8.52941176 29.35294118 5 27 C5 27.66 5 28.32 5 29 C3.35 29 1.7 29 0 29 C0 19.43 0 9.86 0 0 Z " fill="#060606" transform="translate(712,369)"/>
<path d="M0 0 C1.65 0 3.3 0 5 0 C5.33 3.3 5.66 6.6 6 10 C6.66 9.34 7.32 8.68 8 8 C12.02104757 7.55321694 14.13756416 7.3191296 17.375 9.875 C20.34741572 13.76200518 20.51417812 17.22168952 20 22 C17.75 27.625 17.75 27.625 15 29 C8.52941176 29.35294118 8.52941176 29.35294118 5 27 C5 27.66 5 28.32 5 29 C3.35 29 1.7 29 0 29 C0 19.43 0 9.86 0 0 Z " fill="#060606" transform="translate(681,82)"/>
<path d="M0 0 C1.65 0 3.3 0 5 0 C5.33 3.3 5.66 6.6 6 10 C6.66 9.34 7.32 8.68 8 8 C12.02104757 7.55321694 14.13756416 7.3191296 17.375 9.875 C20.34741572 13.76200518 20.51417812 17.22168952 20 22 C17.75 27.625 17.75 27.625 15 29 C8.52941176 29.35294118 8.52941176 29.35294118 5 27 C5 27.66 5 28.32 5 29 C3.35 29 1.7 29 0 29 C0 19.43 0 9.86 0 0 Z " fill="#060606" transform="translate(1236,73)"/>
<path d="M0 0 C1.65 0 3.3 0 5 0 C5.33 3.3 5.66 6.6 6 10 C6.66 9.34 7.32 8.68 8 8 C12.02104757 7.55321694 14.13756416 7.3191296 17.375 9.875 C20.34741572 13.76200518 20.51417812 17.22168952 20 22 C17.75 27.625 17.75 27.625 15 29 C8.52941176 29.35294118 8.52941176 29.35294118 5 27 C5 27.66 5 28.32 5 29 C3.35 29 1.7 29 0 29 C0 19.43 0 9.86 0 0 Z " fill="#060606" transform="translate(1023,71)"/>
<path d="M0 0 C1.65 0 3.3 0 5 0 C5.33 3.3 5.66 6.6 6 10 C6.66 9.34 7.32 8.68 8 8 C11.87569534 7.48324062 13.52368304 7.68245536 16.8125 9.875 C19.79989408 12.77703996 19.96618847 13.49282705 20.25 17.75 C20.20582665 21.79186129 19.18705533 24.55118198 17 28 C14.73845106 29.13077447 13.50117171 29.10387968 11 29.0625 C10.29875 29.05347656 9.5975 29.04445313 8.875 29.03515625 C8.25625 29.02355469 7.6375 29.01195312 7 29 C6.34 29 5.68 29 5 29 C3.35 29 1.7 29 0 29 C0 19.43 0 9.86 0 0 Z " fill="#080808" transform="translate(254,456)"/>
<path d="M0 0 C1.65 0 3.3 0 5 0 C5.33 3.3 5.66 6.6 6 10 C6.66 9.34 7.32 8.68 8 8 C11.87569534 7.48324062 13.52368304 7.68245536 16.8125 9.875 C19.79989408 12.77703996 19.96618847 13.49282705 20.25 17.75 C20.20582665 21.79186129 19.18705533 24.55118198 17 28 C14.73845106 29.13077447 13.50117171 29.10387968 11 29.0625 C10.29875 29.05347656 9.5975 29.04445313 8.875 29.03515625 C8.25625 29.02355469 7.6375 29.01195313 7 29 C6.34 29 5.68 29 5 29 C3.35 29 1.7 29 0 29 C0 19.43 0 9.86 0 0 Z " fill="#080808" transform="translate(249,90)"/>
<path d="M0 0 C0.7734375 0.495 0.7734375 0.495 1.5625 1 C0.9025 2.65 0.2425 4.3 -0.4375 6 C-1.0975 5.67 -1.7575 5.34 -2.4375 5 C-4.7704866 4.95977609 -7.10456666 4.95679753 -9.4375 5 C-9.7675 6.65 -10.0975 8.3 -10.4375 10 C-9.7775 9.67 -9.1175 9.34 -8.4375 9 C-4.71116541 8.65496902 -2.29814 8.51451077 1 10.375 C3.43391437 14.46397615 3.42343193 18.3724909 2.5625 23 C0.40643972 25.92111392 -1.05072986 26.74170466 -4.59765625 27.40234375 C-9.02445694 27.7053468 -10.87019807 27.44911403 -14.4375 24.625 C-18.55935693 19.21506278 -18.02434546 13.61607967 -17.4375 7 C-16.25906938 3.68451902 -14.43945525 1.76010398 -11.625 -0.375 C-7.60682337 -1.52305047 -3.87990079 -1.59175417 0 0 Z " fill="#0B0B0B" transform="translate(290.4375,92)"/>
<path d="M0 0 C2.93423195 1.79646854 4.47205355 2.9441071 6 6 C6.53118252 10.91996928 6.75105553 14.77327597 4.125 19.0625 C0.40154195 22.45741763 -2.62266388 22.39082252 -7.515625 22.35546875 C-10 22 -10 22 -13.0625 19.6875 C-16.12010472 15.44630636 -16.43651226 12.15084464 -16 7 C-11.90676933 -0.36781521 -8.05288159 -0.94963226 0 0 Z " fill="#0D0303" transform="translate(1227,896)"/>
<path d="M0 0 C2.93423195 1.79646854 4.47205355 2.9441071 6 6 C6.53118252 10.91996928 6.75105553 14.77327597 4.125 19.0625 C0.40154195 22.45741763 -2.62266388 22.39082252 -7.515625 22.35546875 C-10 22 -10 22 -13.0625 19.6875 C-16.12010472 15.44630636 -16.43651226 12.15084464 -16 7 C-11.90676933 -0.36781521 -8.05288159 -0.94963226 0 0 Z " fill="#0D0303" transform="translate(1077,896)"/>
<path d="M0 0 C2.93423195 1.79646854 4.47205355 2.9441071 6 6 C6.53118252 10.91996928 6.75105553 14.77327597 4.125 19.0625 C0.40154195 22.45741763 -2.62266388 22.39082252 -7.515625 22.35546875 C-10 22 -10 22 -13.0625 19.6875 C-16.12010472 15.44630636 -16.43651226 12.15084464 -16 7 C-11.90676933 -0.36781521 -8.05288159 -0.94963226 0 0 Z " fill="#0D0D0D" transform="translate(1055,792)"/>
<path d="M0 0 C2.82424288 2.19022918 4.41508603 3.83017207 6 7 C6.40251462 12.23269006 5.80083881 15.53940485 3 20 C-1.22994616 22.8199641 -5.03220448 22.79231188 -10 22 C-13.34625024 19.47323961 -14.67977847 17.96066458 -16 14 C-16.57279236 6.8973747 -16.57279236 6.8973747 -14.125 3.0625 C-10.0317096 -0.9103995 -5.47565053 -0.79207523 0 0 Z " fill="#0C0303" transform="translate(1253,896)"/>
<path d="M0 0 C2.64 0 5.28 0 8 0 C17 20.80327869 17 20.80327869 17 27 C15.02 27 13.04 27 11 27 C10.67 25.02 10.34 23.04 10 21 C6.37 21.33 2.74 21.66 -1 22 C-1.99 24.475 -1.99 24.475 -3 27 C-4.65 27 -6.3 27 -8 27 C-7.29587558 21.10915626 -5.34799878 15.70895288 -3.4375 10.125 C-3.10814453 9.15046875 -2.77878906 8.1759375 -2.43945312 7.171875 C-1.63038012 4.77983306 -0.8171244 2.38930103 0 0 Z " fill="#0D0D0D" transform="translate(233,458)"/>
<path d="M0 0 C2.64 0 5.28 0 8 0 C9.13215078 2.99734883 10.25437469 5.99832507 11.375 9 C11.69210938 9.83917969 12.00921875 10.67835938 12.3359375 11.54296875 C14.23635797 16.65034877 15.78253441 21.68742288 17 27 C15.02 27 13.04 27 11 27 C10.67 25.02 10.34 23.04 10 21 C6.04 21 2.08 21 -2 21 C-2.33 22.98 -2.66 24.96 -3 27 C-4.98 27 -6.96 27 -9 27 C-6.03 18.09 -3.06 9.18 0 0 Z " fill="#0E0E0E" transform="translate(231,282)"/>
<path d="M0 0 C2.64 0 5.28 0 8 0 C17 20.80327869 17 20.80327869 17 27 C15.02 27 13.04 27 11 27 C10.67 25.02 10.34 23.04 10 21 C6.37 21.33 2.74 21.66 -1 22 C-1.99 24.475 -1.99 24.475 -3 27 C-4.65 27 -6.3 27 -8 27 C-7.29587558 21.10915626 -5.34799878 15.70895288 -3.4375 10.125 C-3.10814453 9.15046875 -2.77878906 8.1759375 -2.43945312 7.171875 C-1.63038012 4.77983306 -0.8171244 2.38930103 0 0 Z " fill="#0D0D0D" transform="translate(228,92)"/>
<path d="M0 0 C2.05078125 0.03255208 4.1015625 0.06510417 6.15234375 0.09765625 C7.49584383 3.84409198 8.82536036 7.59534174 10.15234375 11.34765625 C10.53390625 12.41113281 10.91546875 13.47460938 11.30859375 14.5703125 C11.66953125 15.59511719 12.03046875 16.61992188 12.40234375 17.67578125 C12.7375 18.6184082 13.07265625 19.56103516 13.41796875 20.53222656 C14.15234375 23.09765625 14.15234375 23.09765625 14.15234375 27.09765625 C12.50234375 27.09765625 10.85234375 27.09765625 9.15234375 27.09765625 C8.49234375 25.44765625 7.83234375 23.79765625 7.15234375 22.09765625 C3.52234375 21.76765625 -0.10765625 21.43765625 -3.84765625 21.09765625 C-4.50765625 23.07765625 -5.16765625 25.05765625 -5.84765625 27.09765625 C-7.49765625 27.09765625 -9.14765625 27.09765625 -10.84765625 27.09765625 C-9.71620732 20.87468716 -7.8865218 15.04903701 -5.78515625 9.09765625 C-5.51558105 8.33138916 -5.24600586 7.56512207 -4.96826172 6.77563477 C-2.58837454 0.13680627 -2.58837454 0.13680627 0 0 Z " fill="#0D0D0D" transform="translate(1069.84765625,559.90234375)"/>
<path d="M0 0 C2.05078125 0.03255208 4.1015625 0.06510417 6.15234375 0.09765625 C7.49584383 3.84409198 8.82536036 7.59534174 10.15234375 11.34765625 C10.53390625 12.41113281 10.91546875 13.47460938 11.30859375 14.5703125 C11.66953125 15.59511719 12.03046875 16.61992188 12.40234375 17.67578125 C12.7375 18.6184082 13.07265625 19.56103516 13.41796875 20.53222656 C14.15234375 23.09765625 14.15234375 23.09765625 14.15234375 27.09765625 C12.50234375 27.09765625 10.85234375 27.09765625 9.15234375 27.09765625 C8.49234375 25.44765625 7.83234375 23.79765625 7.15234375 22.09765625 C3.52234375 21.76765625 -0.10765625 21.43765625 -3.84765625 21.09765625 C-4.50765625 23.07765625 -5.16765625 25.05765625 -5.84765625 27.09765625 C-7.49765625 27.09765625 -9.14765625 27.09765625 -10.84765625 27.09765625 C-9.71620732 20.87468716 -7.8865218 15.04903701 -5.78515625 9.09765625 C-5.51558105 8.33138916 -5.24600586 7.56512207 -4.96826172 6.77563477 C-2.58837454 0.13680627 -2.58837454 0.13680627 0 0 Z " fill="#0D0D0D" transform="translate(662.84765625,83.90234375)"/>
<path d="M0 0 C2.05078125 0.03255208 4.1015625 0.06510417 6.15234375 0.09765625 C7.49584383 3.84409198 8.82536036 7.59534174 10.15234375 11.34765625 C10.53390625 12.41113281 10.91546875 13.47460938 11.30859375 14.5703125 C11.66953125 15.59511719 12.03046875 16.61992188 12.40234375 17.67578125 C12.7375 18.6184082 13.07265625 19.56103516 13.41796875 20.53222656 C14.15234375 23.09765625 14.15234375 23.09765625 14.15234375 27.09765625 C12.50234375 27.09765625 10.85234375 27.09765625 9.15234375 27.09765625 C8.49234375 25.44765625 7.83234375 23.79765625 7.15234375 22.09765625 C3.52234375 21.76765625 -0.10765625 21.43765625 -3.84765625 21.09765625 C-4.50765625 23.07765625 -5.16765625 25.05765625 -5.84765625 27.09765625 C-7.49765625 27.09765625 -9.14765625 27.09765625 -10.84765625 27.09765625 C-9.71620732 20.87468716 -7.8865218 15.04903701 -5.78515625 9.09765625 C-5.51558105 8.33138916 -5.24600586 7.56512207 -4.96826172 6.77563477 C-2.58837454 0.13680627 -2.58837454 0.13680627 0 0 Z " fill="#0D0D0D" transform="translate(1217.84765625,74.90234375)"/>
<path d="M0 0 C2.05078125 0.03255208 4.1015625 0.06510417 6.15234375 0.09765625 C7.49584383 3.84409198 8.82536036 7.59534174 10.15234375 11.34765625 C10.53390625 12.41113281 10.91546875 13.47460938 11.30859375 14.5703125 C11.66953125 15.59511719 12.03046875 16.61992188 12.40234375 17.67578125 C12.7375 18.6184082 13.07265625 19.56103516 13.41796875 20.53222656 C14.15234375 23.09765625 14.15234375 23.09765625 14.15234375 27.09765625 C12.50234375 27.09765625 10.85234375 27.09765625 9.15234375 27.09765625 C8.49234375 25.44765625 7.83234375 23.79765625 7.15234375 22.09765625 C3.52234375 21.76765625 -0.10765625 21.43765625 -3.84765625 21.09765625 C-4.50765625 23.07765625 -5.16765625 25.05765625 -5.84765625 27.09765625 C-7.49765625 27.09765625 -9.14765625 27.09765625 -10.84765625 27.09765625 C-9.71620732 20.87468716 -7.8865218 15.04903701 -5.78515625 9.09765625 C-5.51558105 8.33138916 -5.24600586 7.56512207 -4.96826172 6.77563477 C-2.58837454 0.13680627 -2.58837454 0.13680627 0 0 Z " fill="#0D0D0D" transform="translate(1004.84765625,72.90234375)"/>
<path d="M0 0 C1.65 0 3.3 0 5 0 C6.46939453 4.30322683 7.77443263 8.62297367 9 13 C9.20496094 12.22914063 9.40992188 11.45828125 9.62109375 10.6640625 C9.89050781 9.66117188 10.15992188 8.65828125 10.4375 7.625 C10.70433594 6.62726562 10.97117187 5.62953125 11.24609375 4.6015625 C12 2 12 2 13 0 C14.65 0 16.3 0 18 0 C19.32 3.96 20.64 7.92 22 12 C22.99 8.04 23.98 4.08 25 0 C26.65 0 28.3 0 30 0 C29.25403037 7.4596963 27.63253871 14.68951218 26 22 C23.69 22 21.38 22 19 22 C17.68 17.38 16.36 12.76 15 8 C14.525625 9.753125 14.05125 11.50625 13.5625 13.3125 C12.77029018 16.24023193 11.95928532 19.12214405 11 22 C9.02 22 7.04 22 5 22 C0.59225513 7.40318907 0.59225513 7.40318907 0 0 Z " fill="#0E0E0E" transform="translate(1064,792)"/>
<path d="M0 0 C1.65 0 3.3 0 5 0 C5.33 0.66 5.66 1.32 6 2 C6.66 1.34 7.32 0.68 8 0 C11.95158471 -0.34361606 14.60535554 -0.08901197 18 2 C18.99 1.34 19.98 0.68 21 0 C26.26994907 -0.54895303 26.26994907 -0.54895303 28.66918945 1.25512695 C30.32350938 3.42416465 30.3504611 4.52832812 30.29296875 7.23046875 C30.28330078 8.03291016 30.27363281 8.83535156 30.26367188 9.66210938 C30.23853516 10.49548828 30.21339844 11.32886719 30.1875 12.1875 C30.16719727 13.4549707 30.16719727 13.4549707 30.14648438 14.74804688 C30.11115799 16.83230384 30.05735139 18.91623277 30 21 C28.35 21 26.7 21 25 21 C24.67 15.72 24.34 10.44 24 5 C22.35 5.33 20.7 5.66 19 6 C18.67 10.95 18.34 15.9 18 21 C16.35 21 14.7 21 13 21 C12.67 16.05 12.34 11.1 12 6 C10.68 5.67 9.36 5.34 8 5 C5.14206684 7.85793316 5.59200059 10.14665584 5.375 14.125 C5.26285156 16.04699219 5.26285156 16.04699219 5.1484375 18.0078125 C5.09945313 18.99523437 5.05046875 19.98265625 5 21 C3.35 21 1.7 21 0 21 C0 14.07 0 7.14 0 0 Z " fill="#060607" transform="translate(351,883)"/>
<path d="M0 0 C3 1.3125 3 1.3125 5 3 C5.33 3.99 5.66 4.98 6 6 C5.34 6.66 4.68 7.32 4 8 C0.46428571 7.46428571 0.46428571 7.46428571 -1 6 C-5.77075585 5.46524169 -5.77075585 5.46524169 -9.9375 7.4375 C-11.53988008 11.30206373 -11.67995786 14.88247738 -11 19 C-9.49720824 21.6715404 -9.49720824 21.6715404 -7 23 C-4.41482413 23.50059916 -4.41482413 23.50059916 -2 23 C0.1385485 20.8614515 0.42655063 19.86724686 1 17 C-1.31 17 -3.62 17 -6 17 C-6 15.68 -6 14.36 -6 13 C-2.04 13 1.92 13 6 13 C6 17.95 6 22.9 6 28 C4.35 28 2.7 28 1 28 C0.67 27.34 0.34 26.68 0 26 C-0.66 26.66 -1.32 27.32 -2 28 C-5.05657695 28.57048096 -7.93921194 28.52863352 -11 28 C-14.28175318 25.47031526 -15.69243777 23.92268669 -17 20 C-17.1447963 18.04524991 -17.22067502 16.0848862 -17.25 14.125 C-17.28867187 12.58199219 -17.28867187 12.58199219 -17.328125 11.0078125 C-16.85090324 6.63327969 -15.19299096 4.01755111 -11.875 1.1875 C-7.85326293 -0.47365227 -4.29324481 -0.58332131 0 0 Z " fill="#0B0B0B" transform="translate(637,370)"/>
<path d="M0 0 C3.5386994 1.65139305 4.81070153 2.71605229 7 6 C7.73965025 10.59271203 7.60961194 14.02462089 5.125 18 C1.57789544 21.33845135 -1.09416703 21.33083467 -5.8046875 21.29296875 C-8 21 -8 21 -10.5 19.125 C-13.65305007 14.65817907 -13.87418624 10.3543907 -13 5 C-9.96632206 0.09194247 -5.45550122 -0.79352745 0 0 Z " fill="#0A0A0A" transform="translate(749,377)"/>
<path d="M0 0 C2.57637471 1.88515223 3.59667428 3.19334857 5 6 C5 7.98 5 9.96 5 12 C0.05 12 -4.9 12 -10 12 C-9.01 13.65 -8.02 15.3 -7 17 C-3.40620629 17.6450399 -1.09571409 16.83449724 2 15 C2.66 16.32 3.32 17.64 4 19 C0.14592322 22.34672718 -2.61336869 22.56513052 -7.5859375 22.42578125 C-11.28723924 21.77296266 -12.85425264 19.97635924 -15 17 C-16.20643566 13.38069302 -16.32268559 10.80768995 -16 7 C-11.91886033 -0.3460514 -8.04380887 -0.97461335 0 0 Z " fill="#0B0B0B" transform="translate(1236,792)"/>
<path d="M0 0 C2.57637471 1.88515223 3.59667428 3.19334857 5 6 C5 7.98 5 9.96 5 12 C0.05 12 -4.9 12 -10 12 C-9.01 13.65 -8.02 15.3 -7 17 C-3.40620629 17.6450399 -1.09571409 16.83449724 2 15 C2.66 16.32 3.32 17.64 4 19 C0.14592322 22.34672718 -2.61336869 22.56513052 -7.5859375 22.42578125 C-11.28723924 21.77296266 -12.85425264 19.97635924 -15 17 C-16.20643566 13.38069302 -16.32268559 10.80768995 -16 7 C-11.91886033 -0.3460514 -8.04380887 -0.97461335 0 0 Z " fill="#0B0B0B" transform="translate(1188,792)"/>
<path d="M0 0 C2.57637471 1.88515223 3.59667428 3.19334857 5 6 C5 7.98 5 9.96 5 12 C0.05 12 -4.9 12 -10 12 C-9.01 13.65 -8.02 15.3 -7 17 C-3.40620629 17.6450399 -1.09571409 16.83449724 2 15 C2.66 16.32 3.32 17.64 4 19 C0.14592322 22.34672718 -2.61336869 22.56513052 -7.5859375 22.42578125 C-11.28723924 21.77296266 -12.85425264 19.97635924 -15 17 C-16.20643566 13.38069302 -16.32268559 10.80768995 -16 7 C-11.91886033 -0.3460514 -8.04380887 -0.97461335 0 0 Z " fill="#0B0B0B" transform="translate(1113,792)"/>
<path d="M0 0 C0 5.61 0 11.22 0 17 C1.32 17 2.64 17 4 17 C4 18.32 4 19.64 4 21 C2.68 21 1.36 21 0 21 C0 22.98 0 24.96 0 27 C-1.65 27 -3.3 27 -5 27 C-5 25.02 -5 23.04 -5 21 C-8.96 21 -12.92 21 -17 21 C-17 14.33411557 -15.93747315 12.35216685 -12.4375 7.125 C-11.81004883 6.09246094 -11.81004883 6.09246094 -11.16992188 5.0390625 C-10.74130859 4.389375 -10.31269531 3.7396875 -9.87109375 3.0703125 C-9.48880615 2.48008301 -9.10651855 1.88985352 -8.71264648 1.28173828 C-7 0 -7 0 0 0 Z " fill="#0A0A0A" transform="translate(1063,73)"/>
<path d="M0 0 C6.27 0 12.54 0 19 0 C19 1.98 19 3.96 19 6 C14.71 6 10.42 6 6 6 C6 8.31 6 10.62 6 13 C9.96 13 13.92 13 18 13 C18 14.65 18 16.3 18 18 C14.04 18 10.08 18 6 18 C6 21.96 6 25.92 6 30 C4.02 30 2.04 30 0 30 C0 20.1 0 10.2 0 0 Z " fill="#190707" transform="translate(191,650)"/>
<path d="M0 0 C3.38031589 1.18767855 3.93216817 1.89825225 6 5 C5.92195814 9.21426057 5.53492087 11.35809495 2.8125 14.625 C1.4203125 15.800625 1.4203125 15.800625 0 17 C-0.54914063 17.46792969 -1.09828125 17.93585937 -1.6640625 18.41796875 C-3.09532953 19.62877996 -4.5460355 20.81654052 -6 22 C-2.04 22.33 1.92 22.66 6 23 C6 24.65 6 26.3 6 28 C-0.27 28 -6.54 28 -13 28 C-13 21 -13 21 -9 17 C-6.897178 15.49110483 -4.78717549 14.02387915 -2.609375 12.625 C-0.7167292 11.06027869 -0.7167292 11.06027869 -0.765625 8.3125 C-0.84296875 7.549375 -0.9203125 6.78625 -1 6 C-4.94727588 5.82057837 -7.5980513 5.90649311 -11 8 C-11.66 6.68 -12.32 5.36 -13 4 C-8.50292642 0.49008892 -5.70815227 -0.63423914 0 0 Z " fill="#151515" transform="translate(1124,559)"/>
<path d="M0 0 C5.28 0 10.56 0 16 0 C16 1.32 16 2.64 16 4 C12.04 4 8.08 4 4 4 C4 6.31 4 8.62 4 11 C4.99 10.34 5.98 9.68 7 9 C10.83693587 8.58142518 13.11203064 8.45355731 16.4375 10.5 C18.60058411 13.96093458 18.66136993 17.07846533 18 21 C15.86111111 25.56944444 15.86111111 25.56944444 13 27 C4.33381924 27.92097043 4.33381924 27.92097043 0.375 25.1875 C-1 23 -1 23 -1 20 C0.8125 19.3125 0.8125 19.3125 3 19 C3.474375 19.495 3.94875 19.99 4.4375 20.5 C4.953125 20.995 5.46875 21.49 6 22 C8.65466049 21.76956136 8.65466049 21.76956136 11 21 C11.33 18.69 11.66 16.38 12 14 C10.00045254 13.95745644 7.99958364 13.95919217 6 14 C5.67 14.33 5.34 14.66 5 15 C3.35 15 1.7 15 0 15 C0 10.05 0 5.1 0 0 Z " fill="#0E0E0E" transform="translate(706,84)"/>
<path d="M0 0 C3 1.5 3 1.5 5 4 C5.41175039 6.80204162 5.23807011 9.14315872 5 12 C0.71 12 -3.58 12 -8 12 C-7.34 13.32 -6.68 14.64 -6 16 C-2.7 15.67 0.6 15.34 4 15 C4 16.32 4 17.64 4 19 C-0.00254616 21.66836411 -3.29313299 21.8340238 -8 21 C-10.75569447 18.81840855 -12.43588747 17.12822506 -14 14 C-14.37712577 9.00308353 -14.09290612 6.00932275 -11 2 C-7.29046926 -0.47302049 -4.30016077 -0.65255358 0 0 Z " fill="#101010" transform="translate(702,377)"/>
<path d="M0 0 C1.65 0 3.3 0 5 0 C5.33 0.66 5.66 1.32 6 2 C6.66 1.34 7.32 0.68 8 0 C10.05859375 -0.3359375 10.05859375 -0.3359375 12.4375 -0.375 C13.21996094 -0.40335938 14.00242187 -0.43171875 14.80859375 -0.4609375 C17 0 17 0 18.7734375 1.4453125 C20.63880568 5.3305061 20.31688414 9.0035461 20.1875 13.25 C20.16719727 14.51070312 20.16719727 14.51070312 20.14648438 15.796875 C20.11123464 17.86485938 20.0574302 19.93251271 20 22 C18.02 22 16.04 22 14 22 C13.67 16.39 13.34 10.78 13 5 C11.35 5 9.7 5 8 5 C5.94077598 7.05922402 6.58572421 11.21708124 6.4375 14.0625 C6.39431641 14.82111328 6.35113281 15.57972656 6.30664062 16.36132812 C6.20026367 18.24065438 6.09960066 20.12030244 6 22 C4.02 22 2.04 22 0 22 C0 14.74 0 7.48 0 0 Z " fill="#0E0303" transform="translate(1114,896)"/>
<path d="M0 0 C2.63761924 0.85544408 3.64462647 1.50247706 5.25 3.75 C6 6 6 6 6 12 C1.38 12 -3.24 12 -8 12 C-7.34 13.32 -6.68 14.64 -6 16 C-2.4780279 16.08004482 0.61981469 16.04005702 4 15 C4 16.32 4 17.64 4 19 C1.52964288 21.47035712 0.6039993 21.35042281 -2.8125 21.4375 C-6.45467474 21.3320825 -7.89008192 21.06375249 -11.125 19.1875 C-13.88217151 14.50030843 -14.11233035 10.29945961 -13 5 C-9.98273318 0.03850844 -5.4838952 -0.7108753 0 0 Z " fill="#0A0A0B" transform="translate(341,883)"/>
<path d="M0 0 C2.0625 2 2.0625 2 2.375 5.9375 C2.28361633 7.29258933 2.17937297 8.64687075 2.0625 10 C2.0625 11.32 2.0625 12.64 2.0625 14 C2.7225 14.66 3.3825 15.32 4.0625 16 C4.66315303 19.86134088 4.34779173 21.54746829 2.25 24.875 C-2.37165388 27.95610258 -6.53323161 27.90486214 -11.9375 27 C-14.6875 25.25 -14.6875 25.25 -15.9375 23 C-15.6875 20.75 -15.6875 20.75 -14.9375 19 C-12.07025314 19.57344937 -11.0760485 19.8614515 -8.9375 22 C-6.39559998 22.2500773 -6.39559998 22.2500773 -3.9375 22 C-2.64116379 20.93354885 -2.64116379 20.93354885 -2.875 18.4375 C-2.895625 17.633125 -2.91625 16.82875 -2.9375 16 C-5.2475 15.67 -7.5575 15.34 -9.9375 15 C-9.9375 13.68 -9.9375 12.36 -9.9375 11 C-7.9575 10.34 -5.9775 9.68 -3.9375 9 C-3.9375 7.68 -3.9375 6.36 -3.9375 5 C-8.7272321 4.76571687 -8.7272321 4.76571687 -12.9375 7 C-13.5975 6.34 -14.2575 5.68 -14.9375 5 C-14.9375 4.01 -14.9375 3.02 -14.9375 2 C-10.22877064 -1.85259675 -5.62924935 -1.9163402 0 0 Z " fill="#101010" transform="translate(1274.9375,75)"/>
<path d="M0 0 C4.6 2.2 4.6 2.2 6 5 C6 7.31 6 9.62 6 12 C1.38 12 -3.24 12 -8 12 C-7.67 13.32 -7.34 14.64 -7 16 C-1.67829506 16.29562367 -1.67829506 16.29562367 3 14 C3.66 15.32 4.32 16.64 5 18 C3.2841869 20.12085751 2.38482316 20.92868886 -0.33984375 21.43359375 C-7.37203767 21.44416848 -7.37203767 21.44416848 -10.5625 19.1875 C-13.26111994 15.08090444 -13.70171656 10.79974125 -13 6 C-9.33747506 0.26204426 -6.68906908 -0.45349621 0 0 Z " fill="#090909" transform="translate(399,883)"/>
<path d="M0 0 C2.234375 1.60546875 2.234375 1.60546875 4 4 C4.390625 7.234375 4.390625 7.234375 4.25 10.75 C4.21390625 11.92046875 4.1778125 13.0909375 4.140625 14.296875 C4.07101562 15.63492187 4.07101562 15.63492187 4 17 C4.66 17 5.32 17 6 17 C6 18.32 6 19.64 6 21 C3 21 0 21 -3 21 C-4.175625 21.061875 -5.35125 21.12375 -6.5625 21.1875 C-10 21 -10 21 -11.9375 19.875 C-13.52225401 17.07837528 -13.45947423 15.1506804 -13 12 C-10.06683431 8.71485442 -6.16437098 8.04109274 -2 7 C-2 6.34 -2 5.68 -2 5 C-6.64586892 5.48484276 -6.64586892 5.48484276 -11 7 C-11.33 5.68 -11.66 4.36 -12 3 C-8.58822898 -0.41177102 -4.62018654 -1.14602283 0 0 Z " fill="#0B0B0B" transform="translate(661,377)"/>
<path d="M0 0 C2.23828125 1.0703125 2.23828125 1.0703125 4 3 C4.390625 6.35546875 4.390625 6.35546875 4.25 10.1875 C4.21390625 11.45980469 4.1778125 12.73210938 4.140625 14.04296875 C4.07101562 15.50669922 4.07101562 15.50669922 4 17 C4.99 17 5.98 17 7 17 C7 18.32 7 19.64 7 21 C4.625 21.125 4.625 21.125 2 21 C1.34 20.34 0.68 19.68 0 19 C-0.99 19.66 -1.98 20.32 -3 21 C-6.5 21.375 -6.5 21.375 -10 21 C-12 19.3125 -12 19.3125 -13 17 C-12.86642353 14.26168243 -12.35527822 12.58516412 -10.9375 10.25 C-7.82346236 8.24094346 -4.66417153 8.30034193 -1 8 C-1.33 7.01 -1.66 6.02 -2 5 C-3.3921875 5.2475 -3.3921875 5.2475 -4.8125 5.5 C-8 6 -8 6 -11 6 C-11 4.68 -11 3.36 -11 2 C-7.3946611 -0.40355927 -4.20638975 -0.75085268 0 0 Z " fill="#090909" transform="translate(299,883)"/>
<path d="M0 0 C0 7.92 0 15.84 0 24 C1.98 24 3.96 24 6 24 C6 25.65 6 27.3 6 29 C-0.27 29 -6.54 29 -13 29 C-13 27.35 -13 25.7 -13 24 C-10.69 24 -8.38 24 -6 24 C-6 18.06 -6 12.12 -6 6 C-7.98 6.33 -9.96 6.66 -12 7 C-12 5.35 -12 3.7 -12 2 C-7.52247755 0.29427716 -5.01632918 0 0 0 Z " fill="#080202" transform="translate(256,651)"/>
<path d="M0 0 C5.94 0 11.88 0 18 0 C18 1.32 18 2.64 18 4 C13.71 4 9.42 4 5 4 C5 6.64 5 9.28 5 12 C8.96 12 12.92 12 17 12 C17 13.65 17 15.3 17 17 C13.04 17 9.08 17 5 17 C5 20.96 5 24.92 5 29 C3.35 29 1.7 29 0 29 C0 19.43 0 9.86 0 0 Z " fill="#030000" transform="translate(1177,889)"/>
<path d="M0 0 C1.65 0 3.3 0 5 0 C5.33 5.28 5.66 10.56 6 16 C7.65 16.33 9.3 16.66 11 17 C13.42479736 13.36280395 13.38662577 11.14296518 13.625 6.8125 C13.69976563 5.54019531 13.77453125 4.26789062 13.8515625 2.95703125 C13.90054687 1.98121094 13.94953125 1.00539063 14 0 C15.65 0 17.3 0 19 0 C19 7.26 19 14.52 19 22 C17.35 22 15.7 22 14 22 C13.67 21.34 13.34 20.68 13 20 C12.34 20.66 11.68 21.32 11 22 C5.31651376 22.5412844 5.31651376 22.5412844 3 22 C0.83928756 20.20748071 0.08891904 18.7737549 -0.23168945 15.98388672 C-0.29579472 13.56525363 -0.26118219 11.1682872 -0.1875 8.75 C-0.17396484 7.90953125 -0.16042969 7.0690625 -0.14648438 6.203125 C-0.11123464 4.13514062 -0.0574302 2.06748729 0 0 Z " fill="#020000" transform="translate(1088,896)"/>
<path d="M0 0 C1.98 0 3.96 0 6 0 C6 8.25 6 16.5 6 25 C10.29 25 14.58 25 19 25 C19 26.65 19 28.3 19 30 C12.73 30 6.46 30 0 30 C0 20.1 0 10.2 0 0 Z " fill="#0F0F0F" transform="translate(1150,784)"/>
<path d="M0 0 C0 7.92 0 15.84 0 24 C2.31 24 4.62 24 7 24 C7 25.65 7 27.3 7 29 C0.73 29 -5.54 29 -12 29 C-12 27.68 -12 26.36 -12 25 C-9.69 25 -7.38 25 -5 25 C-5 18.73 -5 12.46 -5 6 C-7.31 6.33 -9.62 6.66 -12 7 C-12 5.35 -12 3.7 -12 2 C-7.52247755 0.29427716 -5.01632918 0 0 0 Z " fill="#040101" transform="translate(261,708)"/>
<path d="M0 0 C1.98 0 3.96 0 6 0 C6 7.92 6 15.84 6 24 C10.29 24 14.58 24 19 24 C19 25.65 19 27.3 19 29 C12.73 29 6.46 29 0 29 C0 19.43 0 9.86 0 0 Z " fill="#060606" transform="translate(1017,785)"/>
<path d="M0 0 C1.65 0 3.3 0 5 0 C5.33 0.66 5.66 1.32 6 2 C6.66 1.34 7.32 0.68 8 0 C14.23082856 -0.56643896 14.23082856 -0.56643896 16.7043457 1.25512695 C18.31471204 3.42382645 18.34994812 4.55243854 18.29296875 7.23046875 C18.28330078 8.03291016 18.27363281 8.83535156 18.26367188 9.66210938 C18.23853516 10.49548828 18.21339844 11.32886719 18.1875 12.1875 C18.16719727 13.4549707 18.16719727 13.4549707 18.14648438 14.74804688 C18.11115799 16.83230384 18.05735139 18.91623277 18 21 C16.35 21 14.7 21 13 21 C12.67 15.72 12.34 10.44 12 5 C10.02 5 8.04 5 6 5 C5.67 10.28 5.34 15.56 5 21 C3.35 21 1.7 21 0 21 C0 14.07 0 7.14 0 0 Z " fill="#040405" transform="translate(410,883)"/>
<path d="M0 0 C1.98 0 3.96 0 6 0 C7.65 4.62 9.3 9.24 11 14 C11.804375 11.875625 12.60875 9.75125 13.4375 7.5625 C15.875 1.125 15.875 1.125 17 0 C18.66617115 -0.04063832 20.33388095 -0.042721 22 0 C21.23754579 4.81600823 19.58720144 9.24615702 17.9375 13.8125 C17.65583984 14.60076172 17.37417969 15.38902344 17.08398438 16.20117188 C16.39241462 18.13522289 15.69662722 20.06776488 15 22 C12.69 22 10.38 22 8 22 C4.85830477 14.7728592 2.07042054 7.60837466 0 0 Z " fill="#0B0B0B" transform="translate(1195,792)"/>
<path d="M0 0 C2.5 1 2.5 1 4 2 C4 2.66 4 3.32 4 4 C3.34 4 2.68 4 2 4 C2 4.66 2 5.32 2 6 C-0.64 5.34 -3.28 4.68 -6 4 C-6 5.32 -6 6.64 -6 8 C-4.9275 8.0825 -3.855 8.165 -2.75 8.25 C1.28754072 9.05750814 2.73205373 9.5980806 5 13 C4.93056745 15.84673448 4.48009554 17.3709093 2.75390625 19.6328125 C0.41373802 21.45699709 -1.06260124 21.36932468 -4 21.3125 C-4.86625 21.30863281 -5.7325 21.30476562 -6.625 21.30078125 C-9 21 -9 21 -12 19 C-11.34 17.68 -10.68 16.36 -10 15 C-5.545 15.99 -5.545 15.99 -1 17 C-1 15.68 -1 14.36 -1 13 C-2.093125 12.896875 -3.18625 12.79375 -4.3125 12.6875 C-8 12 -8 12 -9.9375 10.8125 C-11.5339636 8.08912093 -11.38630872 6.09046979 -11 3 C-8.74772438 -1.22301678 -4.2167802 -0.5175525 0 0 Z " fill="#09090A" transform="translate(320,883)"/>
<path d="M0 0 C5.28 0 10.56 0 16 0 C14.875 7.875 14.875 7.875 10.9375 11.9375 C10.20402344 12.70964844 9.47054687 13.48179687 8.71484375 14.27734375 C8.14894531 14.84582031 7.58304688 15.41429687 7 16 C9.97 16.33 12.94 16.66 16 17 C16 18.32 16 19.64 16 21 C10.72 21 5.44 21 0 21 C0 15.2410815 0.62205031 14.74699649 4.4375 10.8125 C7.59499772 7.67274553 7.59499772 7.67274553 10 4 C6.7 4 3.4 4 0 4 C0 2.68 0 1.36 0 0 Z " fill="#0C0C0C" transform="translate(669,377)"/>
<path d="M0 0 C5.94 0 11.88 0 18 0 C16.875 7.875 16.875 7.875 15.15234375 12.05859375 C14.79462891 12.93837891 14.43691406 13.81816406 14.06835938 14.72460938 C13.69517578 15.61986328 13.32199219 16.51511719 12.9375 17.4375 C12.37192383 18.82098633 12.37192383 18.82098633 11.79492188 20.23242188 C10.87031 22.4912838 9.93855136 24.7469027 9 27 C7.02 27 5.04 27 3 27 C5.45765035 19.08090444 8.66818573 11.58014704 12 4 C8.04 4 4.08 4 0 4 C0 2.68 0 1.36 0 0 Z " fill="#090909" transform="translate(274,282)"/>
<path d="M0 0 C1.98 0 3.96 0 6 0 C6.33 8.58 6.66 17.16 7 26 C7.66 26.33 8.32 26.66 9 27 C9 28.32 9 29.64 9 31 C6.1875 31.25 6.1875 31.25 3 31 C0.64066124 28.72324667 0.03962201 27.34117536 -0.34057617 24.06738281 C-0.32486572 22.95717773 -0.30915527 21.84697266 -0.29296875 20.703125 C-0.28330078 19.49785156 -0.27363281 18.29257812 -0.26367188 17.05078125 C-0.23853516 15.79652344 -0.21339844 14.54226563 -0.1875 13.25 C-0.17396484 11.98027344 -0.16042969 10.71054687 -0.14648438 9.40234375 C-0.1111324 6.26780156 -0.06178248 3.13411455 0 0 Z " fill="#0F0F0F" transform="translate(1245,783)"/>
<path d="M0 0 C1.98 0 3.96 0 6 0 C6.33 8.58 6.66 17.16 7 26 C7.66 26.33 8.32 26.66 9 27 C9 28.32 9 29.64 9 31 C6.1875 31.25 6.1875 31.25 3 31 C0.64066124 28.72324667 0.03962201 27.34117536 -0.34057617 24.06738281 C-0.32486572 22.95717773 -0.30915527 21.84697266 -0.29296875 20.703125 C-0.28330078 19.49785156 -0.27363281 18.29257812 -0.26367188 17.05078125 C-0.23853516 15.79652344 -0.21339844 14.54226563 -0.1875 13.25 C-0.17396484 11.98027344 -0.16042969 10.71054687 -0.14648438 9.40234375 C-0.1111324 6.26780156 -0.06178248 3.13411455 0 0 Z " fill="#0F0404" transform="translate(214,649)"/>
<path d="M0 0 C1.65 0 3.3 0 5 0 C5 1.32 5 2.64 5 4 C6.98 4 8.96 4 11 4 C11 5.32 11 6.64 11 8 C9.02 8 7.04 8 5 8 C5.33 11.96 5.66 15.92 6 20 C7.65 20 9.3 20 11 20 C10.67 21.65 10.34 23.3 10 25 C3.58718861 25.36298932 3.58718861 25.36298932 1.28125 23.9375 C-0.69137102 20.95451212 -0.28441673 18.33380768 -0.1875 14.8125 C-0.16042969 13.54019531 -0.13335937 12.26789062 -0.10546875 10.95703125 C-0.07066406 9.98121094 -0.03585937 9.00539063 0 8 C-0.99 8 -1.98 8 -3 8 C-3 6.68 -3 5.36 -3 4 C-2.01 4 -1.02 4 0 4 C0 2.68 0 1.36 0 0 Z " fill="#040404" transform="translate(435,879)"/>
<path d="M0 0 C4.66666667 0 9.33333333 0 14 0 C14 1.65 14 3.3 14 5 C11.69 5.66 9.38 6.32 7 7 C6.67 11.95 6.34 16.9 6 22 C4.02 22 2.04 22 0 22 C0 14.74 0 7.48 0 0 Z " fill="#100404" transform="translate(1045,896)"/>
<path d="M0 0 C4.66666667 0 9.33333333 0 14 0 C14 1.65 14 3.3 14 5 C11.69 5.66 9.38 6.32 7 7 C6.67 11.95 6.34 16.9 6 22 C4.02 22 2.04 22 0 22 C0 14.74 0 7.48 0 0 Z " fill="#100404" transform="translate(227,658)"/>
<path d="M0 0 C1.65 0 3.3 0 5 0 C5.33 0.66 5.66 1.32 6 2 C6.66 1.34 7.32 0.68 8 0 C11.125 -0.125 11.125 -0.125 14 0 C13.67 1.65 13.34 3.3 13 5 C11.02 5.66 9.04 6.32 7 7 C6.67 11.95 6.34 16.9 6 22 C4.02 22 2.04 22 0 22 C0 14.74 0 7.48 0 0 Z " fill="#0D0303" transform="translate(1264,896)"/>
<path d="M0 0 C1.65 0 3.3 0 5 0 C5.33 8.58 5.66 17.16 6 26 C6.66 26.33 7.32 26.66 8 27 C8 28.32 8 29.64 8 31 C5.125 31.125 5.125 31.125 2 31 C0 29 0 29 -0.22705078 26.11083984 C-0.21657715 24.90637207 -0.20610352 23.7019043 -0.1953125 22.4609375 C-0.18564453 20.50800781 -0.18564453 20.50800781 -0.17578125 18.515625 C-0.15906929 17.13541405 -0.14213939 15.75520571 -0.125 14.375 C-0.11497006 12.98698548 -0.10584423 11.59896411 -0.09765625 10.2109375 C-0.07401863 6.80711974 -0.04106867 3.40364494 0 0 Z " fill="#010000" transform="translate(1200,887)"/>
<path d="M0 0 C1.65 0 3.3 0 5 0 C5.33 0.66 5.66 1.32 6 2 C6.66 1.34 7.32 0.68 8 0 C10.625 -0.125 10.625 -0.125 13 0 C13 1.65 13 3.3 13 5 C12.030625 5.12375 11.06125 5.2475 10.0625 5.375 C8.5465625 5.684375 8.5465625 5.684375 7 6 C5.5192152 8.9615696 5.64685963 11.83506295 5.4375 15.125 C5.35371094 16.40632812 5.26992187 17.68765625 5.18359375 19.0078125 C5.09271484 20.48894531 5.09271484 20.48894531 5 22 C3.35 22 1.7 22 0 22 C0 14.74 0 7.48 0 0 Z " fill="#010101" transform="translate(1123,792)"/>
<path d="M0 0 C2.41486943 2.41486943 2.2961925 3.12707789 2.3125 6.4375 C2.32925781 7.21996094 2.34601563 8.00242187 2.36328125 8.80859375 C1.91700017 11.50067642 1.1784515 12.39728211 -1 14 C-3.5625 13.875 -3.5625 13.875 -6 13 C-8.46324069 9.30513897 -8.38991688 7.36706908 -8 3 C-5.94362059 -0.35514536 -3.76397853 -0.48256135 0 0 Z " fill="#EC4343" transform="translate(237,719)"/>
<path d="M0 0 C1.5923093 3.18461859 1.38905037 6.53391489 1 10 C-0.1875 12.0625 -0.1875 12.0625 -2 13 C-4.5625 12.875 -4.5625 12.875 -7 12 C-9.46324069 8.30513897 -9.38991688 6.36706908 -9 2 C-6.7575278 -1.98661725 -4.02061994 -1.13626216 0 0 Z " fill="#F34343" transform="translate(1226,901)"/>
<path d="M0 0 C1.5923093 3.18461859 1.38905037 6.53391489 1 10 C-0.1875 12.0625 -0.1875 12.0625 -2 13 C-4.5625 12.875 -4.5625 12.875 -7 12 C-9.46324069 8.30513897 -9.38991688 6.36706908 -9 2 C-6.7575278 -1.98661725 -4.02061994 -1.13626216 0 0 Z " fill="#F34343" transform="translate(1076,901)"/>
<path d="M0 0 C1.5923093 3.18461859 1.38905037 6.53391489 1 10 C-0.1875 12.0625 -0.1875 12.0625 -2 13 C-4.5625 12.875 -4.5625 12.875 -7 12 C-9.46324069 8.30513897 -9.38991688 6.36706908 -9 2 C-6.7575278 -1.98661725 -4.02061994 -1.13626216 0 0 Z " fill="#F3F3F3" transform="translate(1054,797)"/>
<path d="M0 0 C2.4375 0.8125 2.4375 0.8125 4.4375 2.8125 C4.78923852 6.61127599 4.96451444 8.95610153 2.9375 12.25 C2.4425 12.765625 1.9475 13.28125 1.4375 13.8125 C-3.3125 13.0625 -3.3125 13.0625 -5.5625 10.8125 C-6.12050294 3.781663 -6.12050294 3.781663 -4.375 0.75 C-2.5625 -0.1875 -2.5625 -0.1875 0 0 Z " fill="#F54444" transform="translate(1248.5625,900.1875)"/>
<path d="M0 0 C1.5923093 3.18461859 1.38905037 6.53391489 1 10 C-0.1875 12.0625 -0.1875 12.0625 -2 13 C-4.5625 12.875 -4.5625 12.875 -7 12 C-9.46324069 8.30513897 -9.38991688 6.36706908 -9 2 C-6.7575278 -1.98661725 -4.02061994 -1.13626216 0 0 Z " fill="#F04242" transform="translate(1153,901)"/>
<path d="M0 0 C5.28 0 10.56 0 16 0 C16 1.32 16 2.64 16 4 C12.04 4 8.08 4 4 4 C4 6.31 4 8.62 4 11 C4.66 11.33 5.32 11.66 6 12 C5.67 12.99 5.34 13.98 5 15 C3.35 15 1.7 15 0 15 C0 10.05 0 5.1 0 0 Z " fill="#010101" transform="translate(706,84)"/>
<path d="M0 0 C2.5 0.25 2.5 0.25 4.5 2.25 C4.765625 4.5625 4.765625 4.5625 4.75 7.25 C4.75515625 8.136875 4.7603125 9.02375 4.765625 9.9375 C4.5 12.25 4.5 12.25 2.5 14.25 C-3.06818182 13.68181818 -3.06818182 13.68181818 -4.5 12.25 C-4.6245486 10.60769636 -4.67568524 8.95947724 -4.6875 7.3125 C-4.70167969 6.41660156 -4.71585938 5.52070312 -4.73046875 4.59765625 C-4.39506937 1.18113039 -3.38368179 0.33836818 0 0 Z " fill="#9697A1" transform="translate(671.5,873.75)"/>
<path d="M0 0 C2.4375 0.875 2.4375 0.875 4.4375 3.875 C3.98466981 10.32783019 3.98466981 10.32783019 1.4375 12.875 C-1.0625 13.1875 -1.0625 13.1875 -3.5625 12.875 C-6.02574069 9.18013897 -5.95241688 7.24206908 -5.5625 2.875 C-3.91229442 0.0957064 -3.2342745 -0.15776949 0 0 Z " fill="#EEEEEE" transform="translate(746.5625,381.125)"/>
<path d="M0 0 C2.4375 0.875 2.4375 0.875 4.4375 3.875 C3.98466981 10.32783019 3.98466981 10.32783019 1.4375 12.875 C-1.85964793 12.54528521 -3.1851839 12.2523161 -5.5625 9.875 C-6.11436722 3.80446058 -6.11436722 3.80446058 -4.375 0.875 C-2.5625 -0.125 -2.5625 -0.125 0 0 Z " fill="#ECECEC" transform="translate(1098.5625,570.125)"/>
<path d="M0 0 C2.4375 0.875 2.4375 0.875 4.4375 3.875 C3.98466981 10.32783019 3.98466981 10.32783019 1.4375 12.875 C-1.85964793 12.54528521 -3.1851839 12.2523161 -5.5625 9.875 C-6.11436722 3.80446058 -6.11436722 3.80446058 -4.375 0.875 C-2.5625 -0.125 -2.5625 -0.125 0 0 Z " fill="#ECECEC" transform="translate(722.5625,381.125)"/>
<path d="M0 0 C2.4375 0.875 2.4375 0.875 4.4375 3.875 C3.98466981 10.32783019 3.98466981 10.32783019 1.4375 12.875 C-1.85964793 12.54528521 -3.1851839 12.2523161 -5.5625 9.875 C-6.11436722 3.80446058 -6.11436722 3.80446058 -4.375 0.875 C-2.5625 -0.125 -2.5625 -0.125 0 0 Z " fill="#ECECEC" transform="translate(691.5625,94.125)"/>
<path d="M0 0 C2.4375 0.875 2.4375 0.875 4.4375 3.875 C3.98466981 10.32783019 3.98466981 10.32783019 1.4375 12.875 C-1.85964793 12.54528521 -3.1851839 12.2523161 -5.5625 9.875 C-6.11436722 3.80446058 -6.11436722 3.80446058 -4.375 0.875 C-2.5625 -0.125 -2.5625 -0.125 0 0 Z " fill="#ECECEC" transform="translate(1246.5625,85.125)"/>
<path d="M0 0 C2.4375 0.875 2.4375 0.875 4.4375 3.875 C3.98466981 10.32783019 3.98466981 10.32783019 1.4375 12.875 C-1.85964793 12.54528521 -3.1851839 12.2523161 -5.5625 9.875 C-6.11436722 3.80446058 -6.11436722 3.80446058 -4.375 0.875 C-2.5625 -0.125 -2.5625 -0.125 0 0 Z " fill="#ECECEC" transform="translate(1033.5625,83.125)"/>
<path d="M0 0 C2.375 0.75 2.375 0.75 3.375 1.75 C3.54296875 3.74609375 3.54296875 3.74609375 3.5625 6.1875 C3.57667969 6.99058594 3.59085937 7.79367187 3.60546875 8.62109375 C3.375 10.75 3.375 10.75 1.375 12.75 C-1.125 13.0625 -1.125 13.0625 -3.625 12.75 C-6.08824069 9.05513897 -6.01491688 7.11706908 -5.625 2.75 C-3.94255302 -0.08359492 -3.2944541 -0.31375753 0 0 Z " fill="#F1F1F1" transform="translate(264.625,468.25)"/>
<path d="M0 0 C0.78375 0.2475 1.5675 0.495 2.375 0.75 C3.88434217 3.76868434 3.55010672 6.42297229 3.375 9.75 C2.385 11.235 2.385 11.235 1.375 12.75 C-1.125 13.0625 -1.125 13.0625 -3.625 12.75 C-6.05022207 10.32477793 -5.92129254 9.5779321 -5.9375 6.25 C-5.95425781 5.4559375 -5.97101563 4.661875 -5.98828125 3.84375 C-5.80845703 2.80734375 -5.80845703 2.80734375 -5.625 1.75 C-2.625 -0.25 -2.625 -0.25 0 0 Z " fill="#F1F1F1" transform="translate(262.625,292.25)"/>
<path d="M0 0 C2.375 0.75 2.375 0.75 3.375 1.75 C3.54296875 3.74609375 3.54296875 3.74609375 3.5625 6.1875 C3.57667969 6.99058594 3.59085937 7.79367188 3.60546875 8.62109375 C3.375 10.75 3.375 10.75 1.375 12.75 C-1.125 13.0625 -1.125 13.0625 -3.625 12.75 C-6.08824069 9.05513897 -6.01491688 7.11706908 -5.625 2.75 C-3.94255302 -0.08359492 -3.2944541 -0.31375753 0 0 Z " fill="#F1F1F1" transform="translate(259.625,102.25)"/>
<path d="M0 0 C2.5 0.25 2.5 0.25 4.5 2.25 C4.8125 5.25 4.8125 5.25 4.5 8.25 C1.5 10.25 1.5 10.25 -1.0625 10 C-3.5 9.25 -3.5 9.25 -5.5 7.25 C-5.08994391 3.14943907 -4.53376372 0.45337637 0 0 Z " fill="#92939D" transform="translate(697.5,866.75)"/>
<path d="M0 0 C1.47906892 -0.02689216 2.95827483 -0.04634621 4.4375 -0.0625 C5.26121094 -0.07410156 6.08492188 -0.08570313 6.93359375 -0.09765625 C9 0 9 0 10 1 C10.04080783 2.99958364 10.04254356 5.00045254 10 7 C6.78548731 8.60725635 3.56387464 8.05748185 0 8 C0 5.36 0 2.72 0 0 Z " fill="#9899A4" transform="translate(267,892)"/>
<path d="M0 0 C2.375 0.6875 2.375 0.6875 3.375 1.6875 C3.5625 4.625 3.5625 4.625 3.375 7.6875 C1.375 9.6875 1.375 9.6875 -1.125 9.9375 C-3.625 9.6875 -3.625 9.6875 -5.625 7.6875 C-5.9375 4.6875 -5.9375 4.6875 -5.625 1.6875 C-2.625 -0.3125 -2.625 -0.3125 0 0 Z " fill="#E6E6E6" transform="translate(284.625,105.3125)"/>
<path d="M0 0 C3.5 0.125 3.5 0.125 4.5 1.125 C4.6875 3.5625 4.6875 3.5625 4.5 6.125 C2.5 8.125 2.5 8.125 0 8.375 C-2.5 8.125 -2.5 8.125 -4.5 6.125 C-4.6875 3.5625 -4.6875 3.5625 -4.5 1.125 C-3.5 0.125 -3.5 0.125 0 0 Z " fill="#EEEEEE" transform="translate(287.5,472.875)"/>
<path d="M0 0 C4.62 0 9.24 0 14 0 C12.68 0.33 11.36 0.66 10 1 C9.7834375 1.9590625 9.7834375 1.9590625 9.5625 2.9375 C9 5 9 5 8 6 C5.11274535 6.30392154 3.57791516 6.41849029 1.1875 4.6875 C0 3 0 3 0 0 Z " fill="#E5E5E5" transform="translate(1226,804)"/>
<path d="M0 0 C4.62 0 9.24 0 14 0 C12.68 0.33 11.36 0.66 10 1 C9.7834375 1.9590625 9.7834375 1.9590625 9.5625 2.9375 C9 5 9 5 8 6 C5.11274535 6.30392154 3.57791516 6.41849029 1.1875 4.6875 C0 3 0 3 0 0 Z " fill="#E5E5E5" transform="translate(1178,804)"/>
<path d="M0 0 C4.62 0 9.24 0 14 0 C12.68 0.33 11.36 0.66 10 1 C9.7834375 1.9590625 9.7834375 1.9590625 9.5625 2.9375 C9 5 9 5 8 6 C5.11274535 6.30392154 3.57791516 6.41849029 1.1875 4.6875 C0 3 0 3 0 0 Z " fill="#E5E5E5" transform="translate(1103,804)"/>
<path d="M0 0 C2.64 0 5.28 0 8 0 C8.38218767 1.65614657 8.71395102 3.32457024 9 5 C8 6 8 6 6.15234375 6.09765625 C4.1015625 6.06510417 2.05078125 6.03255208 0 6 C0 4.02 0 2.04 0 0 Z " fill="#9B9CA6" transform="translate(267,881)"/>
<path d="M0 0 C2.3129482 2.3129482 2.49580975 3.47904875 3.125 6.625 C3.29257812 7.44226563 3.46015625 8.25953125 3.6328125 9.1015625 C3.81457031 10.04128906 3.81457031 10.04128906 4 11 C1.69 11 -0.62 11 -3 11 C-2.69217504 9.35328588 -2.37860766 7.70764424 -2.0625 6.0625 C-1.88847656 5.14597656 -1.71445312 4.22945312 -1.53515625 3.28515625 C-1 1 -1 1 0 0 Z " fill="#91929C" transform="translate(643,869)"/>
<path d="M0 0 C0.66 0 1.32 0 2 0 C3.42258812 3.82320557 4.24042276 6.91281305 4 11 C2.02 11 0.04 11 -2 11 C-1.125 3.375 -1.125 3.375 0 0 Z " fill="#E74242" transform="translate(205,714)"/>
<path d="M0 0 C2.3129482 2.3129482 2.49580975 3.47904875 3.125 6.625 C3.29257813 7.44226563 3.46015625 8.25953125 3.6328125 9.1015625 C3.81457031 10.04128906 3.81457031 10.04128906 4 11 C1.69 11 -0.62 11 -3 11 C-2.69078116 9.54096742 -2.37751201 8.08279278 -2.0625 6.625 C-1.88847656 5.81289063 -1.71445313 5.00078125 -1.53515625 4.1640625 C-1 2 -1 2 0 0 Z " fill="#E3E3E3" transform="translate(1071,565)"/>
<path d="M0 0 C2.3129482 2.3129482 2.49580975 3.47904875 3.125 6.625 C3.29257812 7.44226563 3.46015625 8.25953125 3.6328125 9.1015625 C3.81457031 10.04128906 3.81457031 10.04128906 4 11 C1.69 11 -0.62 11 -3 11 C-2.69078116 9.54096742 -2.37751201 8.08279278 -2.0625 6.625 C-1.88847656 5.81289062 -1.71445312 5.00078125 -1.53515625 4.1640625 C-1 2 -1 2 0 0 Z " fill="#E3E3E3" transform="translate(664,89)"/>
<path d="M0 0 C2.3129482 2.3129482 2.49580975 3.47904875 3.125 6.625 C3.29257813 7.44226563 3.46015625 8.25953125 3.6328125 9.1015625 C3.81457031 10.04128906 3.81457031 10.04128906 4 11 C1.69 11 -0.62 11 -3 11 C-2.69078116 9.54096742 -2.37751201 8.08279278 -2.0625 6.625 C-1.88847656 5.81289062 -1.71445313 5.00078125 -1.53515625 4.1640625 C-1 2 -1 2 0 0 Z " fill="#E3E3E3" transform="translate(1219,80)"/>
<path d="M0 0 C2.3129482 2.3129482 2.49580975 3.47904875 3.125 6.625 C3.29257812 7.44226563 3.46015625 8.25953125 3.6328125 9.1015625 C3.81457031 10.04128906 3.81457031 10.04128906 4 11 C1.69 11 -0.62 11 -3 11 C-2.69078116 9.54096742 -2.37751201 8.08279278 -2.0625 6.625 C-1.88847656 5.81289062 -1.71445312 5.00078125 -1.53515625 4.1640625 C-1 2 -1 2 0 0 Z " fill="#E3E3E3" transform="translate(1006,78)"/>
<path d="M0 0 C2.45823172 3.68734758 3.01242616 6.69699971 4 11 C1.69 11 -0.62 11 -3 11 C-2.69217504 9.35328588 -2.37860766 7.70764424 -2.0625 6.0625 C-1.88847656 5.14597656 -1.71445313 4.22945313 -1.53515625 3.28515625 C-1 1 -1 1 0 0 Z " fill="#E4E4E4" transform="translate(237,463)"/>
<path d="M0 0 C2.45823172 3.68734758 3.01242616 6.69699971 4 11 C1.69 11 -0.62 11 -3 11 C-2.69217504 9.35328588 -2.37860766 7.70764424 -2.0625 6.0625 C-1.88847656 5.14597656 -1.71445313 4.22945313 -1.53515625 3.28515625 C-1 1 -1 1 0 0 Z " fill="#E4E4E4" transform="translate(232,97)"/>
<path d="M0 0 C0.66 0 1.32 0 2 0 C2.99 3.3 3.98 6.6 5 10 C2.36 10 -0.28 10 -3 10 C-2.01 6.7 -1.02 3.4 0 0 Z " fill="#ECECEC" transform="translate(234,288)"/>
<path d="M0 0 C1.4540625 0.0309375 1.4540625 0.0309375 2.9375 0.0625 C3.2675 1.7125 3.5975 3.3625 3.9375 5.0625 C0.9675 5.0625 -2.0025 5.0625 -5.0625 5.0625 C-3.81634615 0.07788462 -3.81634615 0.07788462 0 0 Z " fill="#D8D8D8" transform="translate(1231.0625,795.9375)"/>
<path d="M0 0 C1.4540625 0.0309375 1.4540625 0.0309375 2.9375 0.0625 C3.2675 1.7125 3.5975 3.3625 3.9375 5.0625 C0.9675 5.0625 -2.0025 5.0625 -5.0625 5.0625 C-3.81634615 0.07788462 -3.81634615 0.07788462 0 0 Z " fill="#D8D8D8" transform="translate(1183.0625,795.9375)"/>
<path d="M0 0 C1.4540625 0.0309375 1.4540625 0.0309375 2.9375 0.0625 C3.2675 1.7125 3.5975 3.3625 3.9375 5.0625 C0.9675 5.0625 -2.0025 5.0625 -5.0625 5.0625 C-3.81634615 0.07788462 -3.81634615 0.07788462 0 0 Z " fill="#D8D8D8" transform="translate(1108.0625,795.9375)"/>
<path d="M0 0 C2.125 0.375 2.125 0.375 4 1 C4.38218767 2.65614657 4.71395102 4.32457024 5 6 C4 7 4 7 1.4375 7.0625 C0.2309375 7.0315625 0.2309375 7.0315625 -1 7 C-1.625 4.625 -1.625 4.625 -2 2 C-1.34 1.34 -0.68 0.68 0 0 Z " fill="#EAEAEA" transform="translate(286,461)"/>
<path d="M0 0 C-0.33 1.98 -0.66 3.96 -1 6 C-2.65 6 -4.3 6 -6 6 C-6.33 4.68 -6.66 3.36 -7 2 C-4.35261084 0.5393715 -3.10551666 0 0 0 Z " fill="#EAEAEA" transform="translate(660,388)"/>
<path d="M0 0 C0.33 0 0.66 0 1 0 C1 2.97 1 5.94 1 9 C-0.98 9 -2.96 9 -5 9 C-3.75471468 5.55151758 -2.38532951 2.80016942 0 0 Z " fill="#F4F4F4" transform="translate(1057,80)"/>
<path d="M0 0 C0.042721 1.66611905 0.04063832 3.33382885 0 5 C-1 6 -1 6 -3.5625 6.0625 C-4.7690625 6.0315625 -4.7690625 6.0315625 -6 6 C-5.67 4.35 -5.34 2.7 -5 1 C-1.125 0 -1.125 0 0 0 Z " fill="#9B9CA6" transform="translate(298,894)"/>
<path d="M0 0 C1.65 0 3.3 0 5 0 C5.66 1.32 6.32 2.64 7 4 C4.36 4 1.72 4 -1 4 C-0.67 2.68 -0.34 1.36 0 0 Z " fill="#9596A0" transform="translate(393,887)"/>
<path d="M0 0 C1.65 0 3.3 0 5 0 C5.33 1.32 5.66 2.64 6 4 C3.36 4 0.72 4 -2 4 C-1.34 2.68 -0.68 1.36 0 0 Z " fill="#F2F2F2" transform="translate(696,381)"/>
<path d="M0 0 C1.65 0 3.3 0 5 0 C5.33 1.32 5.66 2.64 6 4 C3.69 4 1.38 4 -1 4 C-0.67 2.68 -0.34 1.36 0 0 Z " fill="#9899A4" transform="translate(335,887)"/>
</svg>
