<?xml version="1.0" encoding="UTF-8"?>
<svg id="floorplan" version="1.1" xmlns="http://www.w3.org/2000/svg" width="1612" height="1285">
<path d="M0 0 C531.96 0 1063.92 0 1612 0 C1612 424.05 1612 848.1 1612 1285 C1080.04 1285 548.08 1285 0 1285 C0 860.95 0 436.9 0 0 Z " fill="#0C0C0C" transform="translate(0,0)"/>
<path d="M0 0 C0.33 0 0.66 0 1 0 C1 424.05 1 848.1 1 1285 C-530.96 1285 -1062.92 1285 -1611 1285 C-1611 1281.04 -1611 1277.08 -1611 1273 C-1610.67 1273 -1610.34 1273 -1610 1273 C-1610 1274.65 -1610 1276.3 -1610 1278 C-1379.66 1278 -1149.32 1278 -912 1278 C-912 1276.35 -912 1274.7 -912 1273 C-911.34 1272.67 -910.68 1272.34 -910 1272 C-909.67 1271.01 -909.34 1270.02 -909 1269 C-926.16 1268.67 -943.32 1268.34 -961 1268 C-961 1200.02 -961 1132.04 -961 1062 C-961.99 1062 -962.98 1062 -964 1062 C-964 1063.65 -964 1065.3 -964 1067 C-1068.94 1067 -1173.88 1067 -1282 1067 C-1282 1065.35 -1282 1063.7 -1282 1062 C-1282.99 1062 -1283.98 1062 -1285 1062 C-1285 1063.65 -1285 1065.3 -1285 1067 C-1335.82 1067 -1386.64 1067 -1439 1067 C-1439 998.36 -1439 929.72 -1439 859 C-1299.74 859 -1160.48 859 -1017 859 C-1016.505 771.88 -1016.505 771.88 -1016 683 C-1015.67 682.01 -1015.34 681.02 -1015 680 C-1015.66 680 -1016.32 680 -1017 680 C-1017 623.24 -1017 566.48 -1017 508 C-1016.34 508 -1015.68 508 -1015 508 C-1015 507.01 -1015 506.02 -1015 505 C-1015.66 505 -1016.32 505 -1017 505 C-1017 444.94 -1017 384.88 -1017 323 C-1208.4 323 -1399.8 323 -1597 323 C-1597 289.01 -1597 255.02 -1597 220 C-1552.82473245 219.97005535 -1508.64946985 219.94904085 -1464.47419369 219.93814325 C-1461.88462551 219.93750238 -1459.29505734 219.93684335 -1456.70548916 219.93618393 C-1365.02598277 219.9132215 -1273.34730978 219.98947334 -1111.28968585 220.49097854 C-1108.61546783 220.50003227 -1105.94124975 220.50906818 -1103.26703167 220.51810217 C-1058.51131991 220.66941305 -1013.75564254 220.82941725 -969 221 C-969 221.66 -969 222.32 -969 223 C-968.01 223 -967.02 223 -966 223 C-966 222.34 -966 221.68 -966 221 C-861.06 221 -756.12 221 -648 221 C-648 221.66 -648 222.32 -648 223 C-647.01 223 -646.02 223 -645 223 C-645 222.34 -645 221.68 -645 221 C-599.12635922 220.96875479 -553.25271694 220.94907155 -507.37906694 220.93814325 C-504.69730536 220.93750234 -502.01554378 220.93684333 -499.3337822 220.93618393 C-406.14522283 220.91364542 -312.95747198 220.98286825 -150.13103634 221.49097854 C-147.49042217 221.50003284 -144.84980794 221.50906851 -142.20919371 221.51810217 C-98.13942427 221.66898992 -54.06970115 221.83029283 -10 222 C-10 255.33 -10 288.66 -10 323 C-203.38 323 -396.76 323 -596 323 C-595.67 323.99 -595.34 324.98 -595 326 C-594.90478203 328.90579869 -594.86794204 331.78735644 -594.87695217 334.69320202 C-594.87579833 335.59656673 -594.87464448 336.49993143 -594.87345567 337.43067083 C-594.87078942 340.48563359 -594.87531128 343.54054463 -594.87974548 346.59550476 C-594.87930978 348.79661265 -594.8784349 350.99772048 -594.87715632 353.19882804 C-594.87491111 359.26909541 -594.878933 365.33934526 -594.88393438 371.40961039 C-594.88779677 377.27672185 -594.88697483 383.14383133 -594.88625254 389.01094374 C-594.88493738 401.01617054 -594.88828479 413.02139185 -594.89426994 425.02661705 C-594.90018265 436.91695877 -594.90403502 448.8072982 -594.90512276 460.69764137 C-594.9051915 461.43635799 -594.90526024 462.1750746 -594.90533106 462.93617657 C-594.90566938 466.68759363 -594.90597077 470.43901069 -594.90625793 474.19042776 C-594.90835954 500.77644884 -594.91510022 527.36246693 -594.92456055 553.94848633 C-594.93374175 579.77986638 -594.94081004 605.6112456 -594.94506836 631.44262695 C-594.945339 633.0663897 -594.94560971 634.69015245 -594.94588047 636.31391519 C-594.94806918 649.50721506 -594.95011178 662.70051495 -594.95211896 675.89381484 C-594.96151002 736.92921273 -594.98157947 797.96460281 -595 859 C-454.75 859 -314.5 859 -170 859 C-170 927.31 -170 995.62 -170 1066 C-326.42 1066 -482.84 1066 -644 1066 C-644 1134.64 -644 1203.28 -644 1274 C-662.15 1274 -680.3 1274 -699 1274 C-699 1277.3 -699 1280.6 -699 1284 C-468.33 1284 -237.66 1284 0 1284 C0 860.28 0 436.56 0 0 Z " fill="#FEFEFE" transform="translate(1611,0)"/>
<path d="M0 0 C102.3 0 204.6 0 310 0 C310 0.66 310 1.32 310 2 C310.99 2 311.98 2 313 2 C313 107.6 313 213.2 313 322 C261.52 322 210.04 322 157 322 C157 390.64 157 459.28 157 530 C156.67 530 156.34 530 156 530 C156 461.36 156 392.72 156 322 C155.34 322 154.68 322 154 322 C154 390.64 154 459.28 154 530 C101.86 530 49.72 530 -4 530 C-4.04217371 481.90791183 -4.04217371 481.90791183 -4.05078125 462.91235352 C-4.05131248 461.7442442 -4.05184372 460.57613489 -4.05239105 459.37262833 C-4.05627606 450.60258572 -4.0595329 441.83254297 -4.0625 433.0625 C-4.0629343 431.81737562 -4.06336861 430.57225123 -4.06381607 429.28939581 C-4.09208361 345.88509267 -3.93421669 262.48216898 -3.50902146 138.58975762 C-3.49997041 136.05421129 -3.49093336 133.51866492 -3.48189783 130.98311853 C-3.32859132 87.98871757 -3.16815456 44.99434549 -3 2 C-2.01 2 -1.02 2 0 2 C0 1.34 0 0.68 0 0 Z " fill="#9E9FAA" transform="translate(15,537)"/>
<path d="M0 0 C69.3 0 138.6 0 210 0 C210 209.55 210 419.1 210 635 C140.7 635 71.4 635 0 635 C0 425.45 0 215.9 0 0 Z " fill="#9e9faa" transform="translate(700,327)"/>
<path d="M0 0 C104.28 0 208.56 0 316 0 C316 105.27 316 210.54 316 319 C211.72 319 107.44 319 0 319 C0 213.73 0 108.46 0 0 Z " fill="#9E9FAA" transform="translate(1286,537)"/>
<path id="4" d="M0 0 C87.12 0 174.24 0 264 0 C264 87.12 264 174.24 264 264 C176.88 264 89.76 264 0 264 C0 176.88 0 89.76 0 0 Z " fill="#FEFEFE" transform="translate(1019,326)"/>
<path id="3" d="M0 0 C87.12 0 174.24 0 264 0 C264 86.79 264 173.58 264 263 C176.88 263 89.76 263 0 263 C0 176.21 0 89.42 0 0 Z " fill="#FEFEFE" transform="translate(1019,593)"/>
<path d="M0 0 C103.62 0 207.24 0 314 0 C314 70.29 314 140.58 314 213 C313.01 213 312.02 213 311 213 C311 212.34 311 211.68 311 211 C208.7 211 106.4 211 1 211 C1 211.66 1 212.32 1 213 C0.34 213 -0.32 213 -1 213 C-1.02414969 199.69839696 -1.04139708 186.3967998 -1.05181217 173.0951786 C-1.0568336 166.90556647 -1.06350059 160.71597015 -1.07543945 154.52636719 C-1.16663194 103.0079767 -0.5257456 51.52306842 0 0 Z " fill="#FEFEFE" transform="translate(14,326)"/>
<path id="7" d="M0 0 C105.6 0 211.2 0 320 0 C320 68.31 320 136.62 320 207 C214.4 207 108.8 207 0 207 C0 138.69 0 70.38 0 0 Z " fill="#FEFEFE" transform="translate(966,11)"/>
<path id="8" d="M0 0 C104.94 0 209.88 0 318 0 C318 68.31 318 136.62 318 207 C213.06 207 108.12 207 0 207 C0 138.69 0 70.38 0 0 Z " fill="#fefefe" transform="translate(645,11)"/>
<path id="5" d="M0 0 C103.95 0 207.9 0 315 0 C315 68.64 315 137.28 315 208 C291.71030941 208.58224226 268.49777544 209.14889839 245.21484375 209.11352539 C242.49961753 209.11324181 239.78439399 209.11336108 237.06916809 209.1139679 C231.32674682 209.11448191 225.58433727 209.11145608 219.84191895 209.10573006 C211.54025854 209.09745767 203.23860356 209.09498413 194.93693948 209.09374207 C181.4545385 209.09157564 167.97214372 209.08498241 154.48974609 209.07543945 C141.42496775 209.06620194 128.36019112 209.05916402 115.29541016 209.05493164 C114.47631672 209.05466364 113.65722328 209.05439565 112.81330884 209.05411953 C106.40353841 209.05203902 99.99376796 209.05008248 93.58399749 209.04816496 C62.38932597 209.03880147 31.19467002 209.01866702 0 209 C0 140.03 0 71.06 0 0 Z " fill="#FEFEFE" transform="translate(1286,326)"/>
<path id="9" d="M0 0 C104.28 0 208.56 0 316 0 C316 68.31 316 136.62 316 207 C211.72 207 107.44 207 0 207 C0 138.69 0 70.38 0 0 Z " fill="#FEFEFE" transform="translate(326,11)"/>
<path id="6" d="M0 0 C102.96 0 205.92 0 312 0 C312 68.64 312 137.28 312 208 C209.04 208 106.08 208 0 208 C0 139.36 0 70.72 0 0 Z " fill="#fefefe" transform="translate(1289,11)"/>
<path id="1" d="M0 0 C103.62 0 207.24 0 314 0 C314 67.65 314 135.3 314 205 C210.38 205 106.76 205 0 205 C0 137.35 0 69.7 0 0 Z " fill="#FEFEFE" transform="translate(970,1069)"/>
<path id="2" d="M0 0 C109.60344341 0 109.60344341 0 148.85489535 0.20192909 C154.73870978 0.23166176 160.62253711 0.25864047 166.50636292 0.28601074 C177.46445011 0.33735363 188.42252525 0.39088751 199.38059717 0.4453826 C214.31810734 0.51952502 229.25563521 0.5899296 244.19316196 0.66063499 C267.46212269 0.77086737 290.73105768 0.88578659 314 1 C314 68.32 314 135.64 314 205 C210.38 205 106.76 205 0 205 C0 137.35 0 69.7 0 0 Z " fill="#FEFEFE" transform="translate(1287,1069)"/>
<path d="M0 0 C101.97 0 203.94 0 309 0 C309 68.31 309 136.62 309 207 C206.7 207 104.4 207 -1 207 C-1 137.99919485 -0.71871939 68.99706192 0 0 Z " fill="#FDFDFD" transform="translate(15,11)"/>
<path id="14" d="M0 0 C104.94 0 209.88 0 318 0 C318 65.34 318 130.68 318 198 C213.06 198 108.12 198 0 198 C0 132.66 0 67.32 0 0 Z " fill="#fefefe" transform="translate(329,1070)"/>
<path id="13" d="M0 0 C103.95 0 207.9 0 315 0 C315 65.34 315 130.68 315 198 C210.72 198 106.44 198 -1 198 C-1 131.99915825 -0.57893248 65.99830262 0 0 Z " fill="#FEFEFE" transform="translate(11,1070)"/>
<path id="10" d="M0 0 C85.8 0 171.6 0 260 0 C260 59.07 260 118.14 260 179 C174.2 179 88.4 179 0 179 C0 119.93 0 60.86 0 0 Z " fill="#FEFEFE" transform="translate(331,326)"/>
<path id="12" d="M0 0 C86.13 0 172.26 0 261 0 C261 56.76 261 113.52 261 172 C174.87 172 88.74 172 0 172 C0 115.24 0 58.48 0 0 Z " fill="#fefefe" transform="translate(331,683)"/>
<path id="11" d="M0 0 C86.13 0 172.26 0 261 0 C261 56.76 261 113.52 261 172 C174.87 172 88.74 172 0 172 C0 115.24 0 58.48 0 0 Z " fill="#FDFDFD" transform="translate(331,508)"/>
<path d="M0 0 C51.81 0 103.62 0 157 0 C157 68.64 157 137.28 157 208 C105.19 208 53.38 208 0 208 C0 139.36 0 70.72 0 0 Z " fill="#FEFEFE" transform="translate(1444,859)"/>
<path d="M0 0 C51.48 0.33 102.96 0.66 156 1 C156 69.64 156 138.28 156 209 C104.19 209 52.38 209 -1 209 C-1.09468351 139.31293424 -0.76679856 69.68281957 0 0 Z " fill="#FEFEFE" transform="translate(12,858)"/>
<path d="M0 0 C106.92 0 213.84 0 324 0 C324 0.33 324 0.66 324 1 C218.73 1 113.46 1 5 1 C5 35.98 5 70.96 5 107 C4.82625336 161.97489085 4.82625336 161.97489085 4.74615479 179.22036743 C4.73703081 181.24255152 4.7279459 183.26473578 4.7188952 185.28692019 C4.70471668 188.45400316 4.69051765 191.62108601 4.67620187 194.78816836 C4.62538982 206.03621162 4.57754279 217.28426721 4.52968329 228.53232335 C4.44124189 249.30357962 4.35083551 270.07482685 4.25921631 290.84606934 C4.12827592 320.53818468 4.0002961 350.23031237 3.87299326 379.92244351 C3.82720144 390.60167531 3.78135862 401.2809069 3.73551859 411.9601385 C3.7239418 414.6571829 3.71236706 417.35422732 3.70079397 420.05127174 C3.61864687 439.19454996 3.53612782 458.33782656 3.45334582 477.48110205 C3.14763204 548.18035485 2.84806481 618.87963099 2.43072302 719.81727401 C2.42189097 721.95706925 2.41305799 724.09686448 2.40422481 726.23665971 C2.26651372 759.59745272 2.12914734 792.95824715 1.99196257 826.31904234 C1.90837058 846.64683851 1.82464322 866.97463413 1.74078369 887.3024292 C1.73804007 887.96749241 1.73529646 888.63255563 1.7324697 889.31777227 C1.69696008 897.92530035 1.6614432 906.53282841 1.62592459 915.14035645 C1.57908092 926.49262897 1.5322464 937.84490152 1.4854126 949.19717407 C1.48043095 950.40467797 1.47544931 951.61218187 1.47031671 952.8562768 C1.36406095 978.61219192 1.25793276 1004.36810757 1.15185547 1030.12402344 C1.14786292 1031.09342644 1.14387037 1032.06282944 1.13975683 1033.06160828 C1.09316486 1044.3744055 1.04657872 1055.68720273 1 1067 C0.67 1067 0.34 1067 0 1067 C0 714.89 0 362.78 0 0 Z " fill="#FAFAFA" transform="translate(0,0)"/>
<path d="M0 0 C0.33 0.99 0.66 1.98 1 3 C-50.48 3 -101.96 3 -155 3 C-155 71.64 -155 140.28 -155 211 C-155.33 211 -155.66 211 -156 211 C-156 142.36 -156 73.72 -156 3 C-156.66 3 -157.32 3 -158 3 C-158 71.64 -158 140.28 -158 211 C-158.33 211 -158.66 211 -159 211 C-159 142.36 -159 73.72 -159 3 C-209.49 3 -259.98 3 -312 3 C-312 2.34 -312 1.68 -312 1 C-157.56 0.505 -157.56 0.505 0 0 Z " fill="#7D7D7F" transform="translate(327,856)"/>
<path d="M0 0 C3.59929265 2.89943019 5.08598316 5.54912704 5.68359375 10.15234375 C5.69671687 22.23873408 5.69671687 22.23873408 1.25 26.8125 C-2.97994616 29.6324641 -6.78220448 29.60481188 -11.75 28.8125 C-15.09625024 26.28573961 -16.42977847 24.77316458 -17.75 20.8125 C-18.76548952 7.41136783 -18.76548952 7.41136783 -16 3.0625 C-11.2954683 -1.6420317 -6.34542675 -2.74007064 0 0 Z " fill="#0A0A0A" transform="translate(475.75,410.1875)"/>
<path d="M0 0 C2.125 1.9375 2.125 1.9375 3.125 5.3125 C3.125 9.25312678 2.46921135 10.84314102 0.125 13.9375 C1.115 14.2675 2.105 14.5975 3.125 14.9375 C4.69435594 18.07621188 4.47701103 20.47605822 4.125 23.9375 C2.3125 26.875 2.3125 26.875 -0.875 28.9375 C-6.26702317 29.93183111 -10.40929941 29.8858945 -15.0625 26.875 C-17.31697752 23.2211916 -17.50064474 21.16060199 -16.875 16.9375 C-15.375 15 -15.375 15 -13.875 13.9375 C-14.225625 13.256875 -14.57625 12.57625 -14.9375 11.875 C-16.14517061 8.09096543 -15.9350844 5.75380383 -14.875 1.9375 C-10.46118319 -2.08686238 -5.42638048 -2.00540148 0 0 Z " fill="#0D0D0D" transform="translate(798.875,107.0625)"/>
<path d="M0 0 C3.24044458 2.56535196 4.69560167 4.086805 6 8 C6.69530134 15.05559884 6.36487689 21.17529806 2 27 C-1.20624887 29.13749925 -2.22458103 29.29574999 -5.9375 29.3125 C-6.79214844 29.32925781 -7.64679688 29.34601563 -8.52734375 29.36328125 C-11.5248065 28.92289573 -12.89220314 28.16648262 -15 26 C-15 24.68 -15 23.36 -15 22 C-13.125 21.375 -13.125 21.375 -11 21 C-10.34 21.66 -9.68 22.32 -9 23 C-5.91652174 23.16681109 -5.91652174 23.16681109 -3 23 C-1.5393715 20.35261084 -1 19.10551666 -1 16 C-1.515625 16.515625 -2.03125 17.03125 -2.5625 17.5625 C-5 19 -5 19 -8.5 19 C-12 18 -12 18 -14.4375 15.9375 C-16.44420076 12.16490258 -17.00631805 9.18594483 -16 5 C-11.11683253 -1.03970713 -7.32558558 -1.87251583 0 0 Z " fill="#0D0D0D" transform="translate(464,107)"/>
<path d="M0 0 C2.9375 1.5 2.9375 1.5 5 3 C4.34 4.32 3.68 5.64 3 7 C2.38511719 6.88140625 1.77023437 6.7628125 1.13671875 6.640625 C-1.28271632 6.25475019 -3.54884365 5.96523182 -6 6 C-8.19887923 7.59669834 -8.19887923 7.59669834 -9 10 C-9 10.99 -9 11.98 -9 13 C-8.34 12.34 -7.68 11.68 -7 11 C-2.84320088 10.30987505 0.82986093 10.3721205 4.5625 12.375 C6.83146174 16.51832144 6.82549715 20.39655192 6 25 C4.125 28.125 4.125 28.125 1 30 C-2.47775065 30.68414767 -5.52598283 30.71994435 -9 30 C-12.4130378 27.44022165 -14.37678798 24.9027663 -16 21 C-16.68112406 15.82820918 -16.78675915 10.69808722 -14.3125 6 C-10.15528698 0.60685878 -6.80945544 -0.72958451 0 0 Z " fill="#0E0E0E" transform="translate(1450,106)"/>
<path d="M0 0 C2.64 0 5.28 0 8 0 C8 5.94 8 11.88 8 18 C9.32 18 10.64 18 12 18 C12 19.65 12 21.3 12 23 C10.68 23 9.36 23 8 23 C8 24.98 8 26.96 8 29 C6.02 29 4.04 29 2 29 C2 27.02 2 25.04 2 23 C-2.29 23 -6.58 23 -11 23 C-11 16.24897481 -11 16.24897481 -8.84765625 12.94921875 C-8.40099609 12.25119141 -7.95433594 11.55316406 -7.49414062 10.83398438 C-6.78547852 9.77147461 -6.78547852 9.77147461 -6.0625 8.6875 C-5.59392578 7.95982422 -5.12535156 7.23214844 -4.64257812 6.48242188 C-1.25979663 1.25979663 -1.25979663 1.25979663 0 0 Z " fill="#0E0E0E" transform="translate(493,1155)"/>
<path d="M0 0 C2.64 0 5.28 0 8 0 C8 5.94 8 11.88 8 18 C9.32 18 10.64 18 12 18 C12 19.65 12 21.3 12 23 C10.68 23 9.36 23 8 23 C8 24.98 8 26.96 8 29 C6.02 29 4.04 29 2 29 C2 27.02 2 25.04 2 23 C-2.29 23 -6.58 23 -11 23 C-11 16.24897481 -11 16.24897481 -8.84765625 12.94921875 C-8.40099609 12.25119141 -7.95433594 11.55316406 -7.49414062 10.83398438 C-6.78547852 9.77147461 -6.78547852 9.77147461 -6.0625 8.6875 C-5.59392578 7.95982422 -5.12535156 7.23214844 -4.64257812 6.48242188 C-1.25979663 1.25979663 -1.25979663 1.25979663 0 0 Z " fill="#0E0E0E" transform="translate(1151,434)"/>
<path d="M0 0 C5.94 0 11.88 0 18 0 C18 1.65 18 3.3 18 5 C13.71 5 9.42 5 5 5 C5.33 6.98 5.66 8.96 6 11 C6.99 10.34 7.98 9.68 9 9 C15.24925521 9.22318769 15.24925521 9.22318769 17.6875 11.74609375 C19.97885028 15.6809423 19.71876525 19.59489417 19 24 C17.1875 27.125 17.1875 27.125 14 29 C8.97116265 29.82574104 4.62208707 30.0939657 0.3125 27.1875 C-1 25 -1 25 -1 22 C1.375 21.375 1.375 21.375 4 21 C4.66 21.66 5.32 22.32 6 23 C9.04182893 23.25005386 9.04182893 23.25005386 12 23 C13.41577477 21.81575674 13.41577477 21.81575674 13.0625 18.4375 C13.041875 17.303125 13.02125 16.16875 13 15 C10.08347826 14.83318891 10.08347826 14.83318891 7 15 C6.34 15.66 5.68 16.32 5 17 C3.35 17 1.7 17 0 17 C0 11.39 0 5.78 0 0 Z " fill="#0E0E0E" transform="translate(1436,415)"/>
<path d="M0 0 C3.0625 2.0625 3.0625 2.0625 5 5 C4.92607229 9.28780723 4.3833231 11.42501534 2 15 C2.99 15.33 3.98 15.66 5 16 C6.56935594 19.13871188 6.35201103 21.53855822 6 25 C4.1875 27.9375 4.1875 27.9375 1 30 C-2.79594768 30.70000235 -6.20637972 30.7223235 -10 30 C-13.1875 27.6875 -13.1875 27.6875 -15 25 C-15 24.01 -15 23.02 -15 22 C-13.35 21.67 -11.7 21.34 -10 21 C-9.34 21.99 -8.68 22.98 -8 24 C-4.41642759 24.25015873 -4.41642759 24.25015873 -1 24 C-0.67 22.02 -0.34 20.04 0 18 C-2.97 17.67 -5.94 17.34 -9 17 C-9 15.35 -9 13.7 -9 12 C-5.535 11.505 -5.535 11.505 -2 11 C-1.67 9.35 -1.34 7.7 -1 6 C-6.7974423 5.75571657 -6.7974423 5.75571657 -12 8 C-12.66 6.68 -13.32 5.36 -14 4 C-9.15299684 0.12239747 -6.22803684 -0.88971955 0 0 Z " fill="#0F0F0F" transform="translate(1154,712)"/>
<path d="M0 0 C2.31279611 1.15639806 4.17409828 2.17409828 6 4 C6.47058824 10.23529412 6.47058824 10.23529412 4.5 13.4375 C4.005 13.953125 3.51 14.46875 3 15 C3.639375 15.185625 4.27875 15.37125 4.9375 15.5625 C7 17 7 17 7.875 20.375 C8.04716981 25.36792453 8.04716981 25.36792453 6 28 C1.3500828 30.89444284 -3.70115887 30.65933987 -9 30 C-11.6875 28.25 -11.6875 28.25 -13 26 C-13 24.68 -13 23.36 -13 22 C-11.68 21.67 -10.36 21.34 -9 21 C-8.34 21.99 -7.68 22.98 -7 24 C-3.41642759 24.25015873 -3.41642759 24.25015873 0 24 C0.38218767 22.34385343 0.71395102 20.67542976 1 19 C-0.96822886 17.03177114 -4.34808709 17.33751619 -7 17 C-7 15.35 -7 13.7 -7 12 C-4.69 11.34 -2.38 10.68 0 10 C-0.33 8.68 -0.66 7.36 -1 6 C-4.46941546 6.45822468 -7.67395049 6.89131683 -11 8 C-11.33 6.35 -11.66 4.7 -12 3 C-7.89826183 0.01691769 -5.03733161 -0.5397141 0 0 Z " fill="#0C0C0C" transform="translate(188,1154)"/>
<path d="M0 0 C1.42505859 -0.02900391 1.42505859 -0.02900391 2.87890625 -0.05859375 C5.4375 0.4375 5.4375 0.4375 7.265625 2.01171875 C8.87549126 5.34414192 8.72725346 8.00637537 8.625 11.6875 C8.59792969 12.95078125 8.57085937 14.2140625 8.54296875 15.515625 C8.50816406 16.47984375 8.47335938 17.4440625 8.4375 18.4375 C9.0975 18.4375 9.7575 18.4375 10.4375 18.4375 C10.4375 19.7575 10.4375 21.0775 10.4375 22.4375 C6.72150809 22.63836443 5.66541555 22.5894437 2.4375 20.4375 C1.7775 21.0975 1.1175 21.7575 0.4375 22.4375 C-1.4375 22.703125 -1.4375 22.703125 -3.5625 22.6875 C-4.614375 22.69523437 -4.614375 22.69523437 -5.6875 22.703125 C-7.5625 22.4375 -7.5625 22.4375 -9.5625 20.4375 C-10.24094523 13.31382509 -10.24094523 13.31382509 -8.0625 10.5 C-4.55611154 9.00978491 -1.35886056 8.75386338 2.4375 8.4375 C2.1075 7.4475 1.7775 6.4575 1.4375 5.4375 C-0.2021875 5.685 -0.2021875 5.685 -1.875 5.9375 C-5.5625 6.4375 -5.5625 6.4375 -8.5625 6.4375 C-8.8925 5.4475 -9.2225 4.4575 -9.5625 3.4375 C-6.37401629 0.59575447 -4.24679177 0.00577795 0 0 Z " fill="#0D0D0D" transform="translate(135.5625,113.5625)"/>
<path d="M0 0 C3.4203866 1.17013226 3.91540482 1.87310723 6 5 C6.34391009 8.16759294 5.98147597 10.97248417 5 14 C2.96437077 16.4394806 0.55596704 18.1381798 -2 20 C-3.72456897 21.61758578 -5.35267796 23.30275911 -7 25 C-2.71 25 1.58 25 6 25 C6 26.65 6 28.3 6 30 C-0.27 30 -6.54 30 -13 30 C-13 22 -13 22 -11.13671875 19.5390625 C-10.32847656 18.90742187 -9.52023437 18.27578125 -8.6875 17.625 C-7.48673828 16.65433594 -7.48673828 16.65433594 -6.26171875 15.6640625 C-4.54020635 14.39745752 -2.77831031 13.18554021 -1 12 C-0.26656572 8.93443402 -0.26656572 8.93443402 0 6 C-4.96551325 5.64393187 -4.96551325 5.64393187 -9.4375 7.5 C-9.953125 7.995 -10.46875 8.49 -11 9 C-11.99 7.68 -12.98 6.36 -14 5 C-9.22082568 0.22082568 -6.75499809 -0.76266108 0 0 Z " fill="#0C0C0C" transform="translate(1457,1153)"/>
<path d="M0 0 C2.31279611 1.15639806 4.17409828 2.17409828 6 4 C6.73211317 7.15637469 6.78225578 9.85117292 6 13 C3.36027536 16.15883367 0.24357827 18.49213402 -3 21 C-4.32 22.32 -5.64 23.64 -7 25 C-2.71 25 1.58 25 6 25 C6 26.65 6 28.3 6 30 C-0.27 30 -6.54 30 -13 30 C-13 23 -13 23 -11.5625 20.5 C-7.96489322 16.99013973 -4.03351161 13.99065925 0 11 C-0.33 9.35 -0.66 7.7 -1 6 C-6.3086849 6.58174845 -6.3086849 6.58174845 -11 9 C-11.66 8.34 -12.32 7.68 -13 7 C-12.9375 5.0625 -12.9375 5.0625 -12 3 C-8.11487963 -0.19951089 -4.93416263 -0.52866028 0 0 Z " fill="#0A0A0A" transform="translate(473,760)"/>
<path d="M0 0 C1.98 0 3.96 0 6 0 C6.26554688 0.68707031 6.53109375 1.37414062 6.8046875 2.08203125 C7.15789062 2.98308594 7.51109375 3.88414063 7.875 4.8125 C8.39707031 6.15248047 8.39707031 6.15248047 8.9296875 7.51953125 C9.98832155 10.17711591 9.98832155 10.17711591 12 13 C12.27714844 12.14535156 12.55429688 11.29070312 12.83984375 10.41015625 C13.20207031 9.30542969 13.56429687 8.20070313 13.9375 7.0625 C14.29714844 5.96035156 14.65679687 4.85820313 15.02734375 3.72265625 C16 1 16 1 17 0 C18.66617115 -0.04063832 20.33388095 -0.042721 22 0 C21.36546743 5.74867563 19.33135844 10.74370782 17.1875 16.0625 C16.84396484 16.94744141 16.50042969 17.83238281 16.14648438 18.74414062 C12.58203951 27.65859654 12.58203951 27.65859654 9 31 C6.640625 31.48828125 6.640625 31.48828125 4.25 31.3125 C3.05117187 31.24482422 3.05117187 31.24482422 1.828125 31.17578125 C1.22484375 31.11777344 0.6215625 31.05976563 0 31 C0.33 29.35 0.66 27.7 1 26 C3.31 25.34 5.62 24.68 8 24 C5.69356492 15.86184696 2.89571216 7.94317882 0 0 Z " fill="#0B0B0B" transform="translate(226,114)"/>
<path d="M0 0 C5.94 0 11.88 0 18 0 C18 1.65 18 3.3 18 5 C14.04 5 10.08 5 6 5 C6 7.31 6 9.62 6 12 C9.63 12 13.26 12 17 12 C17 13.65 17 15.3 17 17 C13.37 17 9.74 17 6 17 C6 20.96 6 24.92 6 29 C4.02 29 2.04 29 0 29 C0 19.43 0 9.86 0 0 Z " fill="#0E0E0E" transform="translate(104,107)"/>
<path d="M0 0 C0 8.25 0 16.5 0 25 C1.98 25 3.96 25 6 25 C6 26.65 6 28.3 6 30 C-0.27 30 -6.54 30 -13 30 C-13 28.35 -13 26.7 -13 25 C-10.69 25 -8.38 25 -6 25 C-6 19.06 -6 13.12 -6 7 C-8.31 7.66 -10.62 8.32 -13 9 C-13 7.02 -13 5.04 -13 3 C-8.06632653 0.99308198 -5.44479395 0 0 0 Z " fill="#101010" transform="translate(1131,1154)"/>
<path d="M0 0 C0 8.25 0 16.5 0 25 C1.98 25 3.96 25 6 25 C6 26.65 6 28.3 6 30 C-0.27 30 -6.54 30 -13 30 C-13 28.35 -13 26.7 -13 25 C-10.69 25 -8.38 25 -6 25 C-6 19.06 -6 13.12 -6 7 C-8.31 7.66 -10.62 8.32 -13 9 C-13 7.02 -13 5.04 -13 3 C-8.06632653 0.99308198 -5.44479395 0 0 0 Z " fill="#101010" transform="translate(452,579)"/>
<path d="M0 0 C0 8.25 0 16.5 0 25 C1.98 25 3.96 25 6 25 C6 26.65 6 28.3 6 30 C-0.27 30 -6.54 30 -13 30 C-13 28.35 -13 26.7 -13 25 C-10.69 25 -8.38 25 -6 25 C-6 19.06 -6 13.12 -6 7 C-8.31 7.66 -10.62 8.32 -13 9 C-13 7.02 -13 5.04 -13 3 C-8.06632653 0.99308198 -5.44479395 0 0 0 Z " fill="#101010" transform="translate(448,409)"/>
<path d="M0 0 C0 7.92 0 15.84 0 24 C2.31 24 4.62 24 7 24 C7 25.65 7 27.3 7 29 C0.4 29 -6.2 29 -13 29 C-13 27.35 -13 25.7 -13 24 C-10.69 24 -8.38 24 -6 24 C-6 18.06 -6 12.12 -6 6 C-7.98 6.33 -9.96 6.66 -12 7 C-12 5.35 -12 3.7 -12 2 C-7.52247755 0.29427716 -5.01632918 0 0 0 Z " fill="#0E0E0E" transform="translate(451,761)"/>
<path d="M0 0 C0 7.92 0 15.84 0 24 C1.98 24 3.96 24 6 24 C6 25.65 6 27.3 6 29 C-0.27 29 -6.54 29 -13 29 C-13 27.35 -13 25.7 -13 24 C-10.69 24 -8.38 24 -6 24 C-6 18.06 -6 12.12 -6 6 C-7.98 6.33 -9.96 6.66 -12 7 C-12 5.35 -12 3.7 -12 2 C-7.52247755 0.29427716 -5.01632918 0 0 0 Z " fill="#080808" transform="translate(166,1155)"/>
<path d="M0 0 C1.65 0 3.3 0 5 0 C5.33 5.28 5.66 10.56 6 16 C7.65 16.33 9.3 16.66 11 17 C13.42479736 13.36280395 13.38662577 11.14296518 13.625 6.8125 C13.69976562 5.54019531 13.77453125 4.26789063 13.8515625 2.95703125 C13.90054688 1.98121094 13.94953125 1.00539063 14 0 C15.65 0 17.3 0 19 0 C19 7.26 19 14.52 19 22 C17.35 22 15.7 22 14 22 C13.67 21.34 13.34 20.68 13 20 C12.34 20.66 11.68 21.32 11 22 C3.74273254 22.57597361 3.74273254 22.57597361 1.39501953 20.75537109 C-0.37519351 18.52788916 -0.34969372 17.36812154 -0.29296875 14.55078125 C-0.28330078 13.70322266 -0.27363281 12.85566406 -0.26367188 11.98242188 C-0.23853516 11.10134766 -0.21339844 10.22027344 -0.1875 9.3125 C-0.17396484 8.41982422 -0.16042969 7.52714844 -0.14648438 6.60742188 C-0.11114079 4.40433834 -0.06180493 2.20247418 0 0 Z " fill="#020202" transform="translate(173,114)"/>
<path d="M0 0 C0 7.92 0 15.84 0 24 C2.31 24 4.62 24 7 24 C7 25.65 7 27.3 7 29 C0.73 29 -5.54 29 -12 29 C-12 27.68 -12 26.36 -12 25 C-9.69 25 -7.38 25 -5 25 C-5 18.73 -5 12.46 -5 6 C-7.31 6.33 -9.62 6.66 -12 7 C-12 5.35 -12 3.7 -12 2 C-7.52247755 0.29427716 -5.01632918 0 0 0 Z " fill="#040404" transform="translate(473,1155)"/>
<path d="M0 0 C0 7.92 0 15.84 0 24 C2.31 24 4.62 24 7 24 C7 25.65 7 27.3 7 29 C0.73 29 -5.54 29 -12 29 C-12 27.68 -12 26.36 -12 25 C-9.69 25 -7.38 25 -5 25 C-5 18.73 -5 12.46 -5 6 C-7.31 6.33 -9.62 6.66 -12 7 C-12 5.35 -12 3.7 -12 2 C-7.52247755 0.29427716 -5.01632918 0 0 0 Z " fill="#040404" transform="translate(473,580)"/>
<path d="M0 0 C6.27 0 12.54 0 19 0 C19 7.875 19 7.875 17.03125 12.49609375 C16.42216797 13.95112305 16.42216797 13.95112305 15.80078125 15.43554688 C15.37152344 16.42619141 14.94226562 17.41683594 14.5 18.4375 C14.07074219 19.45521484 13.64148437 20.47292969 13.19921875 21.52148438 C12.14382228 24.01925602 11.07723943 26.51158964 10 29 C8.02 29 6.04 29 4 29 C6.58125669 20.82602049 9.77011881 12.93359166 13 5 C8.71 5 4.42 5 0 5 C0 3.35 0 1.7 0 0 Z " fill="#101010" transform="translate(1091,107)"/>
<path d="M0 0 C0.87527344 -0.01417969 1.75054687 -0.02835937 2.65234375 -0.04296875 C5.0625 0.1875 5.0625 0.1875 8.0625 2.1875 C7.7325 3.5075 7.4025 4.8275 7.0625 6.1875 C3.77399025 6.1875 1.23328685 5.85503407 -1.9375 5.1875 C-2.5975 5.1875 -3.2575 5.1875 -3.9375 5.1875 C-3.99145478 6.81213842 -4.03027195 8.43728541 -4.0625 10.0625 C-4.09730469 11.41988281 -4.09730469 11.41988281 -4.1328125 12.8046875 C-4.18074836 15.37556994 -4.18074836 15.37556994 -1.9375 17.1875 C0.63790213 17.02242354 0.63790213 17.02242354 3.0625 16.1875 C3.3925 15.5275 3.7225 14.8675 4.0625 14.1875 C5.3825 14.5175 6.7025 14.8475 8.0625 15.1875 C8.0625 19.1875 8.0625 19.1875 6.8671875 20.90625 C3.87481059 23.03070806 1.07526347 22.7121241 -2.48828125 22.61328125 C-6.21253066 21.96584395 -7.77791369 20.1830552 -9.9375 17.1875 C-11.17421367 13.47735899 -11.50118603 10.04311242 -10.9375 6.1875 C-7.78546382 1.24930999 -5.71231261 0.04194062 0 0 Z " fill="#0C0C0C" transform="translate(159.9375,113.8125)"/>
<path d="M0 0 C1.98 0 3.96 0 6 0 C6 1.65 6 3.3 6 5 C7.98 5 9.96 5 12 5 C12 6.32 12 7.64 12 9 C10.02 9 8.04 9 6 9 C6 13.29 6 17.58 6 22 C7.98 22 9.96 22 12 22 C12.5625 23.9375 12.5625 23.9375 13 26 C11.4211316 27.5788684 9.80707663 27.28319742 7.625 27.375 C6.83351562 27.42398438 6.04203125 27.47296875 5.2265625 27.5234375 C3 27 3 27 1.22265625 24.90234375 C-0.23356885 21.44555382 -0.30074679 18.92464417 -0.1875 15.1875 C-0.16042969 14.02605469 -0.13335937 12.86460938 -0.10546875 11.66796875 C-0.07066406 10.78753906 -0.03585938 9.90710938 0 9 C-0.99 9 -1.98 9 -3 9 C-3 7.68 -3 6.36 -3 5 C-2.01 5 -1.02 5 0 5 C0 3.35 0 1.7 0 0 Z " fill="#0D0D0D" transform="translate(212,109)"/>
<path d="M0 0 C2.94660315 0.60443142 3.69161246 1.06573395 5.4375 3.5 C5.80078125 6.75 5.80078125 6.75 5.75 10.5 C5.74613281 11.7375 5.74226563 12.975 5.73828125 14.25 C5.4375 17.5 5.4375 17.5 3.4375 20.5 C-0.0625 20.8125 -0.0625 20.8125 -3.5625 20.5 C-6.60638852 17.45611148 -6.7369772 14.25403461 -6.875 10.0625 C-6.83056719 6.69671479 -6.56010488 5.49565331 -4.875 2.4375 C-2.5625 0.5 -2.5625 0.5 0 0 Z " fill="#F3F3F3" transform="translate(469.5625,413.5)"/>
<path d="M0 0 C1.65 0 3.3 0 5 0 C5.33 8.58 5.66 17.16 6 26 C6.66 26.33 7.32 26.66 8 27 C8 28.32 8 29.64 8 31 C5.125 31.125 5.125 31.125 2 31 C0 29 0 29 -0.22705078 26.11083984 C-0.21657715 24.90637207 -0.20610352 23.7019043 -0.1953125 22.4609375 C-0.18564453 20.50800781 -0.18564453 20.50800781 -0.17578125 18.515625 C-0.15906929 17.13541405 -0.14213939 15.75520571 -0.125 14.375 C-0.11497006 12.98698548 -0.10584423 11.59896411 -0.09765625 10.2109375 C-0.07401863 6.80711974 -0.04106867 3.40364494 0 0 Z " fill="#010101" transform="translate(199,105)"/>
<path d="M0 0 C2.375 0.6875 2.375 0.6875 3.375 1.6875 C3.5 5.1875 3.5 5.1875 3.375 8.6875 C2.375 9.6875 2.375 9.6875 -0.5625 9.875 C-3.625 9.6875 -3.625 9.6875 -5.625 7.6875 C-5.9375 4.6875 -5.9375 4.6875 -5.625 1.6875 C-2.625 -0.3125 -2.625 -0.3125 0 0 Z " fill="#F2F2F2" transform="translate(1446.625,121.3125)"/>
<path d="M0 0 C2.5 0.25 2.5 0.25 4.5 2.25 C4.75 5.25 4.75 5.25 4.5 8.25 C2.5 10.25 2.5 10.25 0 10.5 C-2.5 10.25 -2.5 10.25 -4.5 8.25 C-4.75 5.25 -4.75 5.25 -4.5 2.25 C-2.5 0.25 -2.5 0.25 0 0 Z " fill="#F2F2F2" transform="translate(458.5,110.75)"/>
<path d="M0 0 C3.5 0.125 3.5 0.125 4.5 1.125 C4.625 4.125 4.625 4.125 4.5 7.125 C3.5 8.125 3.5 8.125 0 8.25 C-3.5 8.125 -3.5 8.125 -4.5 7.125 C-4.625 4.125 -4.625 4.125 -4.5 1.125 C-3.5 0.125 -3.5 0.125 0 0 Z " fill="#F6F6F6" transform="translate(792.5,122.875)"/>
<path d="M0 0 C0.33 0 0.66 0 1 0 C1 3.63 1 7.26 1 11 C-1.31 11 -3.62 11 -6 11 C-4.55007731 6.89188572 -2.54592427 3.53144334 0 0 Z " fill="#F4F4F4" transform="translate(494,1162)"/>
<path d="M0 0 C0.33 0 0.66 0 1 0 C1 3.63 1 7.26 1 11 C-1.31 11 -3.62 11 -6 11 C-4.55007731 6.89188572 -2.54592427 3.53144334 0 0 Z " fill="#F4F4F4" transform="translate(1152,441)"/>
<path d="M0 0 C2.5 0.125 2.5 0.125 3.5 1.125 C3.625 3.625 3.625 3.625 3.5 6.125 C2.5 7.125 2.5 7.125 0 7.25 C-2.5 7.125 -2.5 7.125 -3.5 6.125 C-3.625 3.625 -3.625 3.625 -3.5 1.125 C-2.5 0.125 -2.5 0.125 0 0 Z " fill="#F1F1F1" transform="translate(792.5,110.875)"/>
<path d="M0 0 C0.78375 0.04125 1.5675 0.0825 2.375 0.125 C2.417721 1.79111905 2.41563832 3.45882885 2.375 5.125 C1.375 6.125 1.375 6.125 -1.1875 6.1875 C-2.3940625 6.1565625 -2.3940625 6.1565625 -3.625 6.125 C-4.25 4.25 -4.25 4.25 -4.625 2.125 C-2.625 0.125 -2.625 0.125 0 0 Z " fill="#F1F1F1" transform="translate(135.625,125.875)"/>
<path d="M0 0 C1.98 0.495 1.98 0.495 4 1 C3.67 2.32 3.34 3.64 3 5 C1.68 4.67 0.36 4.34 -1 4 C-0.67 2.68 -0.34 1.36 0 0 Z " fill="#272727" transform="translate(910,1258)"/>
<path d="M0 0 C1.98 0.495 1.98 0.495 4 1 C3.67 2.32 3.34 3.64 3 5 C1.68 4.67 0.36 4.34 -1 4 C-0.67 2.68 -0.34 1.36 0 0 Z " fill="#282828" transform="translate(698,1258)"/>
<path d="M0 0 C1.98 0.495 1.98 0.495 4 1 C3.67 2.32 3.34 3.64 3 5 C1.68 4.67 0.36 4.34 -1 4 C-0.67 2.68 -0.34 1.36 0 0 Z " fill="#202020" transform="translate(910,1268)"/>
<path d="M0 0 C1.32 0.66 2.64 1.32 4 2 C3.67 2.99 3.34 3.98 3 5 C1.68 5 0.36 5 -1 5 C-0.67 3.35 -0.34 1.7 0 0 Z " fill="#222222" transform="translate(699,1238)"/>
<path d="M0 0 C1.32 0.33 2.64 0.66 4 1 C4 2.32 4 3.64 4 5 C2.68 5 1.36 5 0 5 C0 3.35 0 1.7 0 0 Z " fill="#1D1D1D" transform="translate(910,1248)"/>
<path d="M0 0 C1.32 0.33 2.64 0.66 4 1 C4 2.32 4 3.64 4 5 C2.68 5 1.36 5 0 5 C0 3.35 0 1.7 0 0 Z " fill="#1E1E1E" transform="translate(698,1248)"/>
<path d="M0 0 C1.32 0.66 2.64 1.32 4 2 C3.67 2.99 3.34 3.98 3 5 C1.68 4.67 0.36 4.34 -1 4 C-0.67 2.68 -0.34 1.36 0 0 Z " fill="#1B1B1B" transform="translate(911,1238)"/>
</svg>
